<?xml version="1.0" standalone="no"?>
<!DOCTYPE svg PUBLIC "-//W3C//DTD SVG 1.1//EN" "http://www.w3.org/Graphics/SVG/1.1/DTD/svg11.dtd" >
<svg xmlns="http://www.w3.org/2000/svg" xmlns:xlink="http://www.w3.org/1999/xlink" version="1.1">
<metadata>
Created by FontForge 20170731 at Fri Jan 26 17:34:20 2018
 By Aleksey,,,
Copyright 2018 Adobe Systems Incorporated. All rights reserved.
</metadata>
<defs>
<font id="SVN-ProductSans" horiz-adv-x="542" >
  <font-face 
    font-family="SVN-Product Sans"
    font-weight="400"
    font-stretch="normal"
    units-per-em="1000"
    panose-1="2 11 4 3 3 5 2 4 2 3"
    ascent="800"
    descent="-200"
    x-height="490"
    cap-height="716"
    bbox="-176 -253 3284 1027"
    underline-thickness="84"
    underline-position="-286"
    unicode-range="U+000D-2215"
  />
<missing-glyph horiz-adv-x="570" 
d="M136 60h298v596h-298v-596zM498 0h-426v716h426v-716z" />
    <glyph glyph-name="f_i" unicode="fi" horiz-adv-x="584" 
d="M208 406v-406h-92v406h-92v84h92v71q0 36 12.5 66t34.5 51.5t52.5 33.5t66.5 12q50 0 82 -17l-25 -81q-24 12 -54 12q-34 0 -55.5 -23.5t-21.5 -62.5v-62h312v-490h-92v406h-220zM536 634q0 -24 -18 -42t-44 -18q-24 0 -42 18t-18 42q0 26 18 44t42 18q26 0 44 -18
t18 -44z" />
    <glyph glyph-name="f_l" unicode="fl" horiz-adv-x="576" 
d="M520 720v-720h-92v636h-138q-82 0 -82 -92v-54h128v-84h-128v-406h-92v406h-92v84h92v65q0 37 12.5 67.5t35.5 52t55 33.5t71 12h230z" />
    <glyph glyph-name="f_b" unicode="fb" horiz-adv-x="948" 
d="M520 720v-230l-4 -68h4q24 38 68.5 61t98.5 23q97 0 164 -76q69 -77 69 -185q0 -109 -69 -185q-67 -76 -164 -76q-54 0 -98.5 23t-68.5 61h-4v-68h-88v636h-138q-82 0 -82 -92v-54h128v-84h-128v-406h-92v406h-92v84h92v65q0 37 12.5 67.5t35.5 52t55 33.5t71 12h230z
M672 68q66 0 111 50q45 49 45 127q0 77 -45 127t-111 50q-67 0 -112 -50q-44 -50 -44 -127q0 -78 44 -128q45 -49 112 -49z" />
    <glyph glyph-name="f_f" unicode="ff" horiz-adv-x="680" 
d="M208 490h220v71q0 36 12.5 66t34.5 51.5t52.5 33.5t66.5 12q50 0 82 -17l-25 -81q-24 12 -54 12q-34 0 -55.5 -23.5t-21.5 -62.5v-62h128v-84h-128v-406h-92v406h-220v-406h-92v406h-92v84h92v71q0 36 12.5 66t34.5 51.5t52.5 33.5t66.5 12q50 0 82 -17l-25 -81
q-24 12 -54 12q-34 0 -55.5 -23.5t-21.5 -62.5v-62z" />
    <glyph glyph-name="f_f_b" unicode="ffb" horiz-adv-x="1260" 
d="M208 490h220v65q0 37 12.5 67.5t35.5 52t55 33.5t71 12h230v-230l-4 -68h4q24 38 68.5 61t98.5 23q97 0 164 -76q69 -77 69 -185q0 -109 -69 -185q-67 -76 -164 -76q-54 0 -98.5 23t-68.5 61h-4v-68h-88v636h-138q-82 0 -82 -92v-54h128v-84h-128v-406h-92v406h-220v-406
h-92v406h-92v84h92v71q0 36 12.5 66t34.5 51.5t52.5 33.5t66.5 12q50 0 82 -17l-25 -81q-24 12 -54 12q-34 0 -55.5 -23.5t-21.5 -62.5v-62zM984 68q66 0 111 50q45 49 45 127q0 77 -45 127t-111 50q-67 0 -112 -50q-44 -50 -44 -127q0 -78 44 -128q45 -49 112 -49z" />
    <glyph glyph-name="f_f_h" unicode="ffh" horiz-adv-x="1226" 
d="M208 490h220v65q0 37 12.5 67.5t35.5 52t55 33.5t71 12h230v-230l-4 -68h4q10 18 27 33.5t37.5 26.5t43.5 17.5t47 6.5q91 0 139 -51t48 -147v-308h-92v290q0 132 -117 132q-56 0 -95 -47q-38 -47 -38 -108v-267h-92v636h-138q-82 0 -82 -92v-54h128v-84h-128v-406h-92
v406h-220v-406h-92v406h-92v84h92v71q0 36 12.5 66t34.5 51.5t52.5 33.5t66.5 12q50 0 82 -17l-25 -81q-24 12 -54 12q-34 0 -55.5 -23.5t-21.5 -62.5v-62z" />
    <glyph glyph-name="f_f_i" unicode="ffi" horiz-adv-x="896" 
d="M208 490h220v71q0 36 12.5 66t34.5 51.5t52.5 33.5t66.5 12q50 0 82 -17l-25 -81q-24 12 -54 12q-34 0 -55.5 -23.5t-21.5 -62.5v-62h312v-490h-92v406h-220v-406h-92v406h-220v-406h-92v406h-92v84h92v71q0 36 12.5 66t34.5 51.5t52.5 33.5t66.5 12q50 0 82 -17l-25 -81
q-24 12 -54 12q-34 0 -55.5 -23.5t-21.5 -62.5v-62zM849 634q0 -24 -18 -42t-44 -18q-24 0 -42 18t-18 42q0 26 18 44t42 18q26 0 44 -18t18 -44z" />
    <glyph glyph-name="f_f_j" unicode="ffj" horiz-adv-x="896" 
d="M208 490h220v71q0 36 12.5 66t34.5 51.5t52.5 33.5t66.5 12q50 0 82 -17l-25 -81q-24 12 -54 12q-34 0 -55.5 -23.5t-21.5 -62.5v-62h312v-556q0 -78 -37.5 -119t-109.5 -41q-31 0 -54 10l24 80q16 -6 27 -6q56 0 58 69v479h-220v-406h-92v406h-220v-406h-92v406h-92v84
h92v71q0 36 12.5 66t34.5 51.5t52.5 33.5t66.5 12q50 0 82 -17l-25 -81q-24 12 -54 12q-34 0 -55.5 -23.5t-21.5 -62.5v-62zM848 634q0 -24 -18 -42t-44 -18q-24 0 -42 18t-18 42q0 26 18 44t42 18q26 0 44 -18t18 -44z" />
    <glyph glyph-name="f_f_k" unicode="ffk" horiz-adv-x="1167" 
d="M208 490h220v65q0 37 12.5 67.5t35.5 52t55 33.5t71 12h230v-445l212 215h118v-4l-191 -190l200 -292v-4h-111l-153 231l-75 -74v-157h-92v636h-138q-82 0 -82 -92v-54h128v-84h-128v-406h-92v406h-220v-406h-92v406h-92v84h92v71q0 36 12.5 66t34.5 51.5t52.5 33.5
t66.5 12q50 0 82 -17l-25 -81q-24 12 -54 12q-34 0 -55.5 -23.5t-21.5 -62.5v-62z" />
    <glyph glyph-name="f_f_l" unicode="ffl" horiz-adv-x="888" 
d="M208 490h220v65q0 37 12.5 67.5t35.5 52t55 33.5t71 12h230v-720h-92v636h-138q-82 0 -82 -92v-54h128v-84h-128v-406h-92v406h-220v-406h-92v406h-92v84h92v71q0 36 12.5 66t34.5 51.5t52.5 33.5t66.5 12q50 0 82 -17l-25 -81q-24 12 -54 12q-34 0 -55.5 -23.5
t-21.5 -62.5v-62z" />
    <glyph glyph-name="f_f_t" unicode="fft" horiz-adv-x="984" 
d="M208 490h220v71q0 36 12.5 66t34.5 51.5t52.5 33.5t66.5 12q50 0 82 -17l-25 -81q-24 12 -54 12q-34 0 -55.5 -23.5t-21.5 -62.5v-62h220v150h92v-150h120v-84h-120v-244q0 -49 19 -66.5t43 -17.5q11 0 21.5 2.5t19.5 6.5l29 -82q-35 -13 -84 -13q-60 0 -99.5 37
t-40.5 103v274h-220v-406h-92v406h-220v-406h-92v406h-92v84h92v71q0 36 12.5 66t34.5 51.5t52.5 33.5t66.5 12q50 0 82 -17l-25 -81q-24 12 -54 12q-34 0 -55.5 -23.5t-21.5 -62.5v-62z" />
    <glyph glyph-name="f_h" unicode="fh" horiz-adv-x="914" 
d="M520 720v-230l-4 -68h4q10 18 27 33.5t37.5 26.5t43.5 17.5t47 6.5q91 0 139 -51t48 -147v-308h-92v290q0 132 -117 132q-56 0 -95 -47q-38 -47 -38 -108v-267h-92v636h-138q-82 0 -82 -92v-54h128v-84h-128v-406h-92v406h-92v84h92v65q0 37 12.5 67.5t35.5 52t55 33.5
t71 12h230z" />
    <glyph glyph-name="f_j" unicode="fj" horiz-adv-x="584" 
d="M373 -226q-31 0 -54 10l24 80q16 -6 27 -6q56 0 58 69v479h-220v-406h-92v406h-92v84h92v71q0 36 12.5 66t34.5 51.5t52.5 33.5t66.5 12q50 0 82 -17l-25 -81q-24 12 -54 12q-34 0 -55.5 -23.5t-21.5 -62.5v-62h312v-556q0 -78 -37.5 -119t-109.5 -41zM536 634
q0 -24 -18 -42t-44 -18q-24 0 -42 18t-18 42q0 26 18 44t42 18q26 0 44 -18t18 -44z" />
    <glyph glyph-name="f_k" unicode="fk" horiz-adv-x="855" 
d="M520 720v-445l212 215h118v-4l-191 -190l200 -292v-4h-111l-153 231l-75 -74v-157h-92v636h-138q-82 0 -82 -92v-54h128v-84h-128v-406h-92v406h-92v84h92v65q0 37 12.5 67.5t35.5 52t55 33.5t71 12h230z" />
    <glyph glyph-name="f_t" unicode="ft" horiz-adv-x="672" 
d="M652 5q-35 -13 -84 -13q-60 0 -99.5 37t-40.5 103v274h-220v-406h-92v406h-92v84h92v71q0 36 12.5 66t34.5 51.5t52.5 33.5t66.5 12q50 0 82 -17l-25 -81q-24 12 -54 12q-34 0 -55.5 -23.5t-21.5 -62.5v-62h220v150h92v-150h120v-84h-120v-244q0 -49 19 -66.5t43 -17.5
q11 0 21.5 2.5t19.5 6.5z" />
    <glyph glyph-name="r_f" unicode="rf" horiz-adv-x="748" 
d="M662 724q50 0 82 -17l-25 -81q-24 12 -54 12q-34 0 -55.5 -23.5t-21.5 -62.5v-62h128v-84h-128v-406h-92v406h-92v84h92v71q0 36 12.5 66t34.5 51.5t52.5 33.5t66.5 12zM56 490h88v-80h4q40 94 169 94l19 -2v-96l-41 4q-32 0 -59 -10.5t-46.5 -29t-30.5 -44.5t-11 -56
v-270h-92v490z" />
    <glyph glyph-name="r_f_f" unicode="rff" horiz-adv-x="1060" 
d="M56 490h88v-80h4q40 94 169 94l19 -2v-96l-41 4q-32 0 -59 -10.5t-46.5 -29t-30.5 -44.5t-11 -56v-270h-92v490zM588 490h220v71q0 36 12.5 66t34.5 51.5t52.5 33.5t66.5 12q50 0 82 -17l-25 -81q-24 12 -54 12q-34 0 -55.5 -23.5t-21.5 -62.5v-62h128v-84h-128v-406h-92
v406h-220v-406h-92v406h-92v84h92v71q0 36 12.5 66t34.5 51.5t52.5 33.5t66.5 12q50 0 82 -17l-25 -81q-24 12 -54 12q-34 0 -55.5 -23.5t-21.5 -62.5v-62z" />
    <glyph glyph-name="r_t" unicode="rt" horiz-adv-x="734" 
d="M630 -8q-60 0 -99.5 37t-40.5 103v274h-86v84h86v150h92v-150h120v-84h-120v-244q0 -49 19 -66.5t43 -17.5q11 0 21.5 2.5t19.5 6.5l29 -82q-35 -13 -84 -13zM56 490h88v-80h4q40 94 169 94l19 -2v-96l-41 4q-32 0 -59 -10.5t-46.5 -29t-30.5 -44.5t-11 -56v-270h-92v490
z" />
    <glyph glyph-name="t_f" unicode="tf" horiz-adv-x="674" 
d="M250 -8q-60 0 -99.5 37t-40.5 103v274h-86v84h86v150h92v-150h220v71q0 36 12.5 66t34.5 51.5t52.5 33.5t66.5 12q50 0 82 -17l-25 -81q-24 12 -54 12q-34 0 -55.5 -23.5t-21.5 -62.5v-62h128v-84h-128v-406h-92v406h-220v-247q0 -43 17.5 -62t41.5 -19q23 0 44 9l29 -82
q-36 -13 -84 -13z" />
    <glyph glyph-name="t_t" unicode="tt" horiz-adv-x="674" 
d="M570 -8q-60 0 -99.5 37t-40.5 103v274h-228v-247q0 -43 17.5 -62t41.5 -19q23 0 44 9l29 -82q-35 -13 -84 -13q-60 0 -99.5 37t-40.5 103v274h-86v84h86v150h92v-150h228v150h92v-150h120v-84h-120v-244q0 -49 19 -66.5t43 -17.5q11 0 21.5 2.5t19.5 6.5l29 -82
q-35 -13 -84 -13z" />
    <glyph glyph-name=".notdef" horiz-adv-x="570" 
d="M136 60h298v596h-298v-596zM498 0h-426v716h426v-716z" />
    <glyph glyph-name=".null" horiz-adv-x="0" 
 />
    <glyph glyph-name="uni000D" unicode="&#xd;" horiz-adv-x="0" 
 />
    <glyph glyph-name="NULL" horiz-adv-x="0" 
 />
    <glyph glyph-name="NULL" horiz-adv-x="0" 
 />
    <glyph glyph-name="space" unicode=" " horiz-adv-x="220" 
 />
    <glyph glyph-name="exclam" unicode="!" horiz-adv-x="232" 
d="M152 222h-72l-10 268v226h92v-226zM184 62q0 -28 -19.5 -48t-48.5 -20q-28 0 -48 20t-20 48q0 29 20 48.5t48 19.5q29 0 48.5 -19.5t19.5 -48.5z" />
    <glyph glyph-name="quotedbl" unicode="&#x22;" horiz-adv-x="320" 
d="M128 716v-226h-84v226h84zM276 716v-226h-84v226h84z" />
    <glyph glyph-name="numbersign" unicode="#" horiz-adv-x="632" 
d="M238 279h136l20 135h-136zM412 0h-80l30 203h-136l-30 -203h-80l30 203h-123l13 76h122l20 135h-125l12 76h124l29 194h80l-29 -194h136l29 194h80l-29 -194h123l-12 -76h-122l-20 -135h125l-12 -76h-125z" />
    <glyph glyph-name="dollar" unicode="$" horiz-adv-x="533" 
d="M141 517q0 -60 92 -105v197q-42 -7 -67 -32t-25 -60zM401 180q0 62 -92 104v-207q92 21 92 103zM309 -100h-76v86q-38 5 -72 20t-61 39t-47 55t-29 69l82 33q12 -48 46.5 -82.5t80.5 -44.5v240q-100 40 -142 88t-42 114q0 71 51 122q51 53 133 60v85h76v-88
q63 -10 108 -46.5t61 -87.5l-82 -35q-18 63 -87 79v-225q51 -21 86 -43t57 -46t31.5 -51t9.5 -59q0 -79 -49.5 -130.5t-134.5 -64.5v-87z" />
    <glyph glyph-name="percent" unicode="%" horiz-adv-x="814" 
d="M374 529q0 -70 -51 -121q-50 -50 -120 -50q-68 0 -121 50q-50 53 -50 121q0 70 50 120q51 51 121 51t120 -51q51 -50 51 -120zM657 654l-444 -662l-57 37l445 663zM300 529q0 45 -27.5 74.5t-69.5 29.5q-41 0 -69 -30q-28 -28 -28 -74t28 -74q28 -30 69 -30
q42 0 69.5 29.5t27.5 74.5zM782 155q0 -70 -51 -121q-50 -50 -120 -50q-68 0 -121 50q-50 53 -50 121q0 70 50 120q51 51 121 51t120 -51q51 -50 51 -120zM708 155q0 45 -27.5 74.5t-69.5 29.5q-41 0 -69 -30q-28 -28 -28 -74t28 -74q28 -30 69 -30q42 0 69.5 29.5
t27.5 74.5z" />
    <glyph glyph-name="ampersand" unicode="&#x26;" horiz-adv-x="618" 
d="M514 124l67 -88l-69 -52l-49 65q-74 -65 -166 -65q-109 0 -185 73t-76 180q0 63 33.5 119.5t90.5 91.5q-52 67 -52 119q0 68 51 116q50 49 122 49q57 0 99 -32t61 -89l-79 -42q-29 75 -81 75q-35 0 -57.5 -21t-22.5 -56q0 -33 23 -64l237 -310l64 107l72 -44zM120 237
q0 -72 51 -121q51 -48 126 -48q71 0 115 48l-201 265q-42 -23 -66.5 -62t-24.5 -82z" />
    <glyph glyph-name="quotesingle" unicode="'" horiz-adv-x="172" 
d="M128 716v-226h-84v226h84z" />
    <glyph glyph-name="parenleft" unicode="(" horiz-adv-x="330" 
d="M310 732q-69 -82 -112 -194q-42 -110 -42 -216q0 -107 42 -216q43 -112 112 -194l-68 -48q-83 99 -131 216q-47 124 -47 242t47 241q47 119 131 217z" />
    <glyph glyph-name="parenright" unicode=")" horiz-adv-x="330" 
d="M88 780q83 -95 130 -217q48 -120 48 -241t-48 -242q-47 -120 -130 -216l-68 48q69 82 112 194q42 109 42 216q0 106 -42 216q-43 112 -112 194z" />
    <glyph glyph-name="asterisk" unicode="*" horiz-adv-x="436" 
d="M359 413l-62 -45l-76 104h-6l-76 -104l-62 45l77 104l-2 7l-112 38l24 73l111 -40l5 3v118h76v-118l5 -3l111 40l24 -73l-112 -38l-2 -7z" />
    <glyph glyph-name="plus" unicode="+" horiz-adv-x="550" 
d="M494 309v-76h-181v-181h-76v181h-181v76h181v181h76v-181h181z" />
    <glyph glyph-name="comma" unicode="," horiz-adv-x="232" 
d="M87 -112l-43 28l54 84q-21 4 -35.5 21t-14.5 41q0 29 20 48.5t48 19.5q29 0 48.5 -19.5t19.5 -48.5q0 -27 -20 -59z" />
    <glyph glyph-name="hyphen" unicode="-" horiz-adv-x="432" 
d="M376 272h-320v76h320v-76z" />
    <glyph glyph-name="period" unicode="." horiz-adv-x="232" 
d="M184 62q0 -28 -19.5 -48t-48.5 -20q-28 0 -48 20t-20 48q0 29 20 48.5t48 19.5q29 0 48.5 -19.5t19.5 -48.5z" />
    <glyph glyph-name="slash" unicode="/" horiz-adv-x="437" 
d="M410 716l-297 -716h-86l297 716h86z" />
    <glyph glyph-name="zero" unicode="0" horiz-adv-x="638" 
d="M44 342q0 156 77 257t198 101t198 -102q77 -101 77 -256q0 -153 -77 -257q-77 -101 -198 -101t-198 101q-77 104 -77 257zM500 342q0 117 -50 194q-49 76 -131 76t-131 -76q-50 -77 -50 -194q0 -118 50 -195q49 -75 131 -75t131 76q50 77 50 194z" />
    <glyph glyph-name="one" unicode="1" horiz-adv-x="384" 
d="M300 684v-684h-92v570l-133 -58l-35 78l201 94h59z" />
    <glyph glyph-name="two" unicode="2" horiz-adv-x="520" 
d="M476 88v-88h-436v92l177 179q90 93 123 136q34 46 34 96q0 22 -9.5 42t-26 35t-39.5 23.5t-50 8.5q-48 0 -81.5 -28t-43.5 -68l-84 34q19 62 77 106t134 44q93 0 155 -57t62 -140q0 -99 -109 -214l-200 -201h317z" />
    <glyph glyph-name="three" unicode="3" horiz-adv-x="531" 
d="M491 194q0 -90 -67 -150q-66 -60 -164 -60q-78 0 -139 46q-62 47 -85 125l84 35q16 -57 52.5 -87.5t87.5 -30.5q56 0 97 35q40 36 40 87t-42 86q-41 35 -99 35h-59v86h52q55 0 90 30.5t35 79.5q0 45 -33 73t-87 28q-87 0 -119 -89l-85 36q23 63 77 102t127 39
q91 0 153 -54q61 -52 61 -135q0 -99 -92 -147v-4q54 -23 84.5 -67t30.5 -99z" />
    <glyph glyph-name="four" unicode="4" horiz-adv-x="589" 
d="M457 144v-144h-92v144h-325v70l317 470h100v-454h88v-86h-88zM144 230h221v319h-4z" />
    <glyph glyph-name="five" unicode="5" horiz-adv-x="555" 
d="M507 214q0 -98 -68 -164t-168 -66q-80 0 -145 50t-86 135l82 33q15 -60 54 -95t93 -35q32 0 58.5 10.5t46 29t30 44.5t10.5 57t-10.5 57.5t-30 45.5t-46 29.5t-57.5 10.5q-73 0 -115 -59l-93 40l44 347h359v-88h-282l-25 -196l4 -1q52 41 124 41q91 0 156 -65t65 -161z
" />
    <glyph glyph-name="six" unicode="6" horiz-adv-x="549" 
d="M295 434q83 0 148 -66q66 -65 66 -155q0 -92 -70 -161q-71 -68 -164 -68q-99 0 -167 68t-68 161q0 83 67 189l199 298l74 -51l-169 -234l2 -2q31 21 82 21zM133 212q0 -59 41 -100q40 -40 101 -40q60 0 100 40q41 41 41 100q0 58 -42 99q-41 41 -99 41q-56 0 -100 -41
q-42 -41 -42 -99z" />
    <glyph glyph-name="seven" unicode="7" horiz-adv-x="523" 
d="M483 590l-332 -606l-82 42l317 570h-346l2 88h441v-94z" />
    <glyph glyph-name="eight" unicode="8" horiz-adv-x="544" 
d="M504 189q0 -88 -67 -146q-68 -59 -165 -59t-165 59q-67 58 -67 146q0 54 29 98.5t83 70.5v4q-40 26 -64.5 64t-24.5 80q0 83 59 139q58 55 150 55t150 -55q59 -56 59 -139q0 -42 -24.5 -80t-64.5 -64v-4q54 -26 83 -70.5t29 -98.5zM157 508q0 -48 32 -77.5t83 -29.5
t83 29.5t32 77.5t-32 76t-83 28t-83 -28t-32 -76zM134 194q0 -27 10.5 -49t29 -38.5t43.5 -25.5t55 -9t55 9t43.5 25.5t29 38.5t10.5 49q0 52 -40 86q-41 35 -98 35q-58 0 -99 -35q-39 -35 -39 -86z" />
    <glyph glyph-name="nine" unicode="9" horiz-adv-x="549" 
d="M254 250q-81 0 -149 65q-65 68 -65 156q0 93 70 160q70 69 164 69q99 0 167 -68t68 -161q0 -83 -67 -189l-199 -298l-74 51l169 234l-2 2q-32 -21 -82 -21zM416 472q0 58 -42 99q-41 41 -100 41t-100 -41t-41 -99t41 -99q44 -41 100 -41t100 41q42 40 42 99z" />
    <glyph glyph-name="colon" unicode=":" horiz-adv-x="232" 
d="M184 428q0 -28 -19.5 -48t-48.5 -20q-28 0 -48 20t-20 48q0 29 20 48.5t48 19.5q29 0 48.5 -19.5t19.5 -48.5zM184 62q0 -28 -19.5 -48t-48.5 -20q-28 0 -48 20t-20 48q0 29 20 48.5t48 19.5q29 0 48.5 -19.5t19.5 -48.5z" />
    <glyph glyph-name="semicolon" unicode=";" horiz-adv-x="232" 
d="M184 428q0 -28 -19.5 -48t-48.5 -20q-28 0 -48 20t-20 48q0 29 20 48.5t48 19.5q29 0 48.5 -19.5t19.5 -48.5zM87 -93l-43 28l54 84q-21 4 -35.5 21t-14.5 41q0 29 20 48.5t48 19.5q29 0 48.5 -19.5t19.5 -48.5q0 -27 -20 -59z" />
    <glyph glyph-name="less" unicode="&#x3c;" horiz-adv-x="506" 
d="M446 136v-84l-390 185v68l390 185v-84l-294 -133v-4z" />
    <glyph glyph-name="equal" unicode="=" horiz-adv-x="562" 
d="M506 376h-450v76h450v-76zM506 186h-450v76h450v-76z" />
    <glyph glyph-name="greater" unicode="&#x3e;" horiz-adv-x="506" 
d="M450 305v-68l-390 -185v84l294 133v4l-294 133v84z" />
    <glyph glyph-name="question" unicode="?" horiz-adv-x="493" 
d="M286 222h-94v47q0 42 16 73t63 75q23 22 39 38.5t24 29.5q17 26 17 57q0 48 -30 75t-81 27q-87 0 -118 -96l-86 36q24 66 78 107t126 41q90 0 147 -54q58 -52 58 -136q0 -42 -21 -81q-11 -19 -30.5 -42t-48.5 -49q-57 -52 -59 -105v-43zM307 62q0 -28 -19.5 -48
t-48.5 -20q-28 0 -48 20t-20 48q0 29 20 48.5t48 19.5q29 0 48.5 -19.5t19.5 -48.5z" />
    <glyph glyph-name="at" unicode="@" horiz-adv-x="868" 
d="M824 304q0 -97 -40 -152.5t-110 -55.5q-75 0 -112 73q-49 -73 -140 -73q-84 0 -139 58t-55 146q0 87 55 145q56 59 135 59q77 0 128 -59h4v45h72v-249q0 -80 59 -80q71 0 71 143q0 130 -92 222t-224 92t-224 -92t-92 -222q0 -131 92 -223q91 -91 224 -91q72 0 127 28
l28 -68q-73 -32 -155 -32q-107 0 -198 51q-90 52 -142 141q-52 91 -52 195q0 51 12.5 99t38.5 93t62.5 81t81 60.5t94.5 38t103 13.5q106 0 195 -51q90 -51 141 -141q52 -88 52 -194zM308 300q0 -28 9 -51.5t25.5 -40.5t38.5 -26.5t48 -9.5t48 9.5t38.5 26t25.5 40t9 52.5
q0 28 -9 52t-25.5 40.5t-38.5 26t-48 9.5t-48 -9.5t-38.5 -26.5t-25.5 -40.5t-9 -51.5z" />
    <glyph glyph-name="A" unicode="A" horiz-adv-x="668" 
d="M332 603l-117 -323h238l-117 323h-4zM114 0h-102l270 716h104l270 -716h-102l-69 194h-301z" />
    <glyph glyph-name="B" unicode="B" horiz-adv-x="594" 
d="M72 0v716h259q84 0 146 -56q61 -55 61 -139q0 -106 -97 -149v-4q55 -18 88 -62.5t33 -101.5q0 -88 -64 -146q-61 -58 -153 -58h-273zM164 628v-219h167q49 0 82 33q33 34 33 77q0 41 -32 76q-32 33 -79 33h-171zM164 323v-235h185q50 0 85 35q34 34 34 83q0 47 -35 82
t-88 35h-181z" />
    <glyph glyph-name="C" unicode="C" horiz-adv-x="729" 
d="M409 -16q-159 0 -266 107q-106 106 -106 267q0 160 106 266q106 108 266 108q162 0 263 -117l-66 -64q-77 93 -197 93q-119 0 -199 -80q-79 -79 -79 -206t79 -206q80 -80 199 -80q125 0 217 105l67 -65q-51 -61 -125 -94.5t-159 -33.5z" />
    <glyph glyph-name="D" unicode="D" horiz-adv-x="691" 
d="M72 0v716h219q164 0 263 -99q100 -99 100 -259q0 -161 -100 -260q-100 -98 -263 -98h-219zM164 628v-540h127q124 0 197 71q72 72 72 199q0 126 -72 198t-197 72h-127z" />
    <glyph glyph-name="E" unicode="E" 
d="M490 716v-88h-326v-227h294v-86h-294v-227h326v-88h-418v716h418z" />
    <glyph glyph-name="F" unicode="F" horiz-adv-x="522" 
d="M164 307v-307h-92v716h418v-88h-326v-235h294v-86h-294z" />
    <glyph glyph-name="G" unicode="G" horiz-adv-x="801" 
d="M761 329q0 -150 -89 -239q-100 -106 -263 -106q-156 0 -264 108t-108 266t108 266t264 108q79 0 149 -28t115 -79l-66 -66q-33 40 -85.5 62.5t-112.5 22.5q-117 0 -198 -81q-80 -83 -80 -205t80 -205q81 -81 198 -81q107 0 178 60q72 61 82 165h-260v86h347
q2 -14 3.5 -27.5t1.5 -26.5z" />
    <glyph glyph-name="H" unicode="H" horiz-adv-x="686" 
d="M164 0h-92v716h92v-307h358v307h92v-716h-92v323h-358v-323z" />
    <glyph glyph-name="I" unicode="I" horiz-adv-x="236" 
d="M164 0h-92v716h92v-716z" />
    <glyph glyph-name="J" unicode="J" horiz-adv-x="524" 
d="M247 -16q-81 0 -140 44t-83 122l87 36q34 -114 136 -114q57 0 91 39.5t34 102.5v502h92v-494q0 -56 -15 -100t-43.5 -74.5t-68.5 -47t-90 -16.5z" />
    <glyph glyph-name="K" unicode="K" horiz-adv-x="622" 
d="M483 716h119v-4l-266 -307l284 -401v-4h-113l-233 334l-110 -127v-207h-92v716h92v-369h4z" />
    <glyph glyph-name="L" unicode="L" horiz-adv-x="498" 
d="M474 0h-402v716h92v-628h310v-88z" />
    <glyph glyph-name="M" unicode="M" horiz-adv-x="830" 
d="M164 0h-92v716h92l249 -436h4l249 436h92v-716h-92v425l4 120h-4l-224 -393h-54l-224 393h-4l4 -120v-425z" />
    <glyph glyph-name="N" unicode="N" horiz-adv-x="696" 
d="M164 0h-92v716h112l348 -557h4l-4 138v419h92v-716h-96l-364 584h-4l4 -138v-446z" />
    <glyph glyph-name="O" unicode="O" horiz-adv-x="810" 
d="M773 358q0 -160 -106 -266q-107 -108 -262 -108q-156 0 -262 108q-106 106 -106 266t106 266q106 108 262 108t262 -109q106 -106 106 -265zM131 358q0 -124 78 -205q79 -81 196 -81t195 81q79 79 79 205t-79 205q-78 81 -195 81t-196 -81q-78 -81 -78 -205z" />
    <glyph glyph-name="P" unicode="P" horiz-adv-x="564" 
d="M164 290v-290h-92v716h244q93 0 158 -62q66 -62 66 -151q0 -91 -66 -152q-64 -61 -158 -61h-152zM164 628v-250h154q55 0 91 37q37 37 37 88q0 50 -37 87q-36 38 -91 38h-154z" />
    <glyph glyph-name="Q" unicode="Q" horiz-adv-x="810" 
d="M698 -1l-72 -47l-49 73q-85 -41 -172 -41q-156 0 -262 108q-106 106 -106 266t106 266q106 108 262 108t262 -109q106 -106 106 -265q0 -85 -32.5 -157.5t-92.5 -126.5zM405 72q65 0 121 28l-84 126l72 49l83 -125q82 79 82 208q0 126 -79 205q-78 81 -195 81t-196 -81
q-78 -81 -78 -205t78 -205q79 -81 196 -81z" />
    <glyph glyph-name="R" unicode="R" horiz-adv-x="578" 
d="M164 628v-252h148q56 0 95 36q39 37 39 91q0 50 -37 87q-36 38 -91 38h-154zM164 0h-92v716h244q93 0 158 -62q66 -62 66 -151q0 -74 -49 -132q-47 -56 -122 -73l-2 -3l201 -291v-4h-109l-193 290h-102v-290z" />
    <glyph glyph-name="S" unicode="S" horiz-adv-x="553" 
d="M514 191q0 -94 -69 -151q-71 -56 -170 -56q-90 0 -157 52q-69 54 -94 142l88 36q18 -63 62.5 -102.5t102.5 -39.5q63 0 103 32.5t40 86.5q0 45 -33 77q-32 32 -116 60q-87 32 -107 42q-114 58 -114 171q0 79 63 135q65 56 157 56q82 0 142 -42q60 -41 80 -103l-86 -36
q-12 40 -47.5 66.5t-86.5 26.5q-54 0 -91 -30q-37 -28 -37 -73q0 -37 29 -64q30 -26 139 -64q109 -37 155.5 -90.5t46.5 -131.5z" />
    <glyph glyph-name="T" unicode="T" horiz-adv-x="540" 
d="M316 628v-628h-92v628h-200v88h492v-88h-200z" />
    <glyph glyph-name="U" unicode="U" horiz-adv-x="642" 
d="M321 -16q-119 0 -192 78q-73 76 -73 204v450h92v-454q0 -88 46 -139t127 -51t127 51t46 139v454h92v-450q0 -130 -72 -206t-193 -76z" />
    <glyph glyph-name="V" unicode="V" horiz-adv-x="632" 
d="M360 0h-96l-252 716h102l196 -581h4l204 581h102z" />
    <glyph glyph-name="W" unicode="W" horiz-adv-x="922" 
d="M810 716h96l-191 -716h-94l-154 472h-4l-154 -472h-94l-199 716h96l151 -563h4l155 467h86l155 -467h4z" />
    <glyph glyph-name="X" unicode="X" horiz-adv-x="632" 
d="M124 0h-108l240 370l-226 346h110l174 -274h4l174 274h110l-226 -346l240 -370h-108l-190 293h-4z" />
    <glyph glyph-name="Y" unicode="Y" horiz-adv-x="594" 
d="M345 333v-333h-92v333l-241 383h108l177 -291h4l173 291h108z" />
    <glyph glyph-name="Z" unicode="Z" horiz-adv-x="564" 
d="M524 0h-492v96l381 532h-365v88h472v-96l-381 -532h385v-88z" />
    <glyph glyph-name="bracketleft" unicode="[" horiz-adv-x="308" 
d="M276 -124h-204v916h204v-76h-120v-764h120v-76z" />
    <glyph glyph-name="backslash" unicode="\" horiz-adv-x="437" 
d="M113 716l297 -716h-86l-297 716h86z" />
    <glyph glyph-name="bracketright" unicode="]" horiz-adv-x="308" 
d="M236 -124h-204v76h120v764h-120v76h204v-916z" />
    <glyph glyph-name="asciicircum" unicode="^" horiz-adv-x="470" 
d="M271 716l187 -306h-96l-125 218h-4l-125 -218h-96l187 306h72z" />
    <glyph glyph-name="underscore" unicode="_" horiz-adv-x="480" 
d="M480 -216h-480v76h480v-76z" />
    <glyph glyph-name="grave" unicode="`" horiz-adv-x="400" 
d="M196 716l52 -128h-80l-72 128h100z" />
    <glyph glyph-name="a" unicode="a" horiz-adv-x="510" 
d="M123 150q0 -18 8 -33.5t22 -26.5t32.5 -17.5t39.5 -6.5q59 0 103 43q46 43 46 101q-43 34 -120 34q-28 0 -52 -7t-41.5 -20t-27.5 -30t-10 -37zM242 506q103 0 161.5 -54t58.5 -150v-302h-88v68h-4q-57 -84 -152 -84q-81 0 -136 48q-54 48 -54 120q0 38 15 68.5
t42.5 52.5t66.5 33.5t87 11.5q82 0 135 -30v21q0 48 -38 81q-37 34 -89 34q-77 0 -122 -65l-81 51q67 96 198 96z" />
    <glyph glyph-name="b" unicode="b" horiz-adv-x="576" 
d="M315 -16q-54 0 -98.5 23t-68.5 61h-4v-68h-88v716h92v-226l-4 -68h4q24 38 68.5 61t98.5 23q97 0 164 -76q69 -77 69 -185q0 -109 -69 -185q-67 -76 -164 -76zM300 68q66 0 111 50q45 49 45 127q0 77 -45 127t-111 50q-67 0 -112 -50q-44 -50 -44 -127q0 -78 44 -128
q45 -49 112 -49z" />
    <glyph glyph-name="c" unicode="c" horiz-adv-x="522" 
d="M280 -16q-109 0 -181 74q-71 77 -71 187q0 113 71 187q72 74 181 74q75 0 131 -37.5t84 -103.5l-84 -35q-39 92 -137 92q-63 0 -109 -51q-45 -51 -45 -126t45 -126q46 -51 109 -51q101 0 142 92l82 -35q-27 -66 -84.5 -103.5t-133.5 -37.5z" />
    <glyph glyph-name="d" unicode="d" horiz-adv-x="576" 
d="M276 68q68 0 111 49q45 49 45 128q0 77 -45 127q-44 50 -111 50q-66 0 -111 -50t-45 -127q0 -78 45 -127q45 -50 111 -50zM261 -16q-96 0 -165 76q-68 77 -68 185t68 185q69 76 165 76q54 0 98.5 -23t68.5 -61h4l-4 68v226h92v-716h-88v68h-4q-24 -38 -68.5 -61
t-98.5 -23z" />
    <glyph glyph-name="e" unicode="e" horiz-adv-x="536" 
d="M276 -16q-107 0 -178 74q-70 73 -70 187q0 112 68 186q67 75 174 75q54 0 98 -18t75 -52.5t48 -84.5t17 -113l-1 -10h-385q2 -73 48 -116q47 -44 110 -44q89 0 138 88l82 -40q-33 -63 -91 -97.5t-133 -34.5zM410 304q-4 51 -41.5 84.5t-100.5 33.5q-52 0 -89.5 -32
t-49.5 -86h281z" />
    <glyph glyph-name="f" unicode="f" horiz-adv-x="368" 
d="M282 724q50 0 82 -17l-25 -81q-24 12 -54 12q-34 0 -55.5 -23.5t-21.5 -62.5v-62h128v-84h-128v-406h-92v406h-92v84h92v71q0 36 12.5 66t34.5 51.5t52.5 33.5t66.5 12z" />
    <glyph glyph-name="g" unicode="g" horiz-adv-x="576" 
d="M276 68q68 0 111 49q45 49 45 128q0 77 -45 127q-44 50 -111 50q-66 0 -111 -50t-45 -127q0 -78 45 -127q45 -50 111 -50zM273 -232q-41 0 -77 10.5t-65.5 29.5t-50.5 45t-32 58l87 36q15 -43 52 -69t86 -26q75 0 117 45t42 124v47h-4q-26 -39 -70.5 -61.5t-96.5 -22.5
q-96 0 -165 75q-68 77 -68 186q0 108 68 185q69 76 165 76q52 0 96.5 -22.5t70.5 -61.5h4v68h88v-469q0 -118 -67 -185q-68 -68 -180 -68z" />
    <glyph glyph-name="h" unicode="h" 
d="M56 716h92v-226l-4 -68h4q10 18 27 33.5t37.5 26.5t43.5 17.5t47 6.5q91 0 139 -51t48 -147v-308h-92v290q0 132 -117 132q-56 0 -95 -47q-38 -47 -38 -108v-267h-92v716z" />
    <glyph glyph-name="i" unicode="i" horiz-adv-x="220" 
d="M156 490v-490h-92v490h92zM172 634q0 -24 -18 -42t-44 -18q-24 0 -42 18t-18 42q0 26 18 44t42 18q26 0 44 -18t18 -44z" />
    <glyph glyph-name="j" unicode="j" horiz-adv-x="220" 
d="M9 -226q-31 0 -54 10l24 80q16 -6 27 -6q56 0 58 69v563h92v-549q0 -167 -147 -167zM172 634q0 -24 -18 -42t-44 -18q-24 0 -42 18t-18 42q0 26 18 44t42 18q26 0 44 -18t18 -44z" />
    <glyph glyph-name="k" unicode="k" horiz-adv-x="483" 
d="M487 0h-111l-153 231l-75 -74v-157h-92v716h92v-441l212 215h118v-4l-191 -190l200 -292v-4z" />
    <glyph glyph-name="l" unicode="l" horiz-adv-x="204" 
d="M148 716v-716h-92v716h92z" />
    <glyph glyph-name="m" unicode="m" horiz-adv-x="852" 
d="M148 0h-92v490h88v-68h4q10 18 27 33.5t37.5 26.5t43 17.5t43.5 6.5q54 0 95 -24.5t60 -69.5q61 94 169 94q85 0 131 -51.5t46 -148.5v-306h-92v292q0 69 -24.5 99.5t-84.5 30.5q-53 0 -89 -45t-36 -106v-271h-92v292q0 69 -24.5 99.5t-84.5 30.5q-53 0 -89 -45t-36 -106
v-271z" />
    <glyph glyph-name="n" unicode="n" 
d="M56 490h88v-68h4q10 18 27 33.5t37.5 26.5t43.5 17.5t47 6.5q91 0 139 -51t48 -147v-308h-92v302q-3 120 -121 120q-55 0 -92 -45q-37 -43 -37 -106v-271h-92v490z" />
    <glyph glyph-name="o" unicode="o" horiz-adv-x="560" 
d="M28 245q0 113 71 187q72 74 181 74t180 -74q72 -74 72 -187q0 -114 -72 -187q-71 -74 -180 -74t-181 74q-71 74 -71 187zM120 245q0 -79 46 -128t114 -49t114 49t46 128q0 78 -46 127q-47 50 -114 50t-114 -50q-46 -49 -46 -127z" />
    <glyph glyph-name="p" unicode="p" horiz-adv-x="572" 
d="M296 68q66 0 111 50q45 49 45 127q0 77 -45 127t-111 50q-67 0 -112 -50q-44 -50 -44 -127q0 -78 44 -128q45 -49 112 -49zM311 -16q-54 0 -98.5 23t-68.5 61h-4l4 -68v-216h-92v706h88v-68h4q24 38 68.5 61t98.5 23q97 0 164 -76q69 -77 69 -185q0 -109 -69 -185
q-67 -76 -164 -76z" />
    <glyph glyph-name="q" unicode="q" horiz-adv-x="572" 
d="M520 -216h-92v216l4 68h-4q-24 -38 -68.5 -61t-98.5 -23q-96 0 -165 76q-68 77 -68 185t68 185q69 76 165 76q54 0 98.5 -23t68.5 -61h4v68h88v-706zM276 68q68 0 111 49q45 49 45 128q0 77 -45 127q-44 50 -111 50q-66 0 -111 -50t-45 -127q0 -78 45 -127
q45 -50 111 -50z" />
    <glyph glyph-name="r" unicode="r" horiz-adv-x="363" 
d="M148 0h-92v490h88v-80h4q13 39 57 66q43 28 86 28q39 0 68 -12l-28 -89q-15 7 -54 7q-52 0 -91 -42q-38 -43 -38 -98v-270z" />
    <glyph glyph-name="s" unicode="s" horiz-adv-x="455" 
d="M431 136q0 -64 -56 -108t-141 -44q-75 0 -130.5 38.5t-79.5 101.5l82 35q18 -45 52 -69t76 -24q44 0 73.5 19t29.5 45q0 46 -72 69l-84 21q-143 36 -143 138q0 66 54 107q56 41 140 41q33 0 63 -8t55 -23t43.5 -36t29.5 -47l-82 -34q-14 31 -45.5 48.5t-70.5 17.5
q-18 0 -35 -5t-29.5 -13t-20.5 -19.5t-8 -24.5q0 -42 79 -60l74 -19q146 -36 146 -147z" />
    <glyph glyph-name="t" unicode="t" horiz-adv-x="354" 
d="M250 -8q-60 0 -99.5 37t-40.5 103v274h-86v84h86v150h92v-150h120v-84h-120v-244q0 -49 19 -66.5t43 -17.5q11 0 21.5 2.5t19.5 6.5l29 -82q-35 -13 -84 -13z" />
    <glyph glyph-name="u" unicode="u" 
d="M486 0h-88v68h-4q-11 -18 -27.5 -33.5t-37 -26.5t-43.5 -17.5t-47 -6.5q-91 0 -139 51t-48 147v308h92v-302q3 -120 121 -120q54 0 92 44q37 44 37 107v271h92v-490z" />
    <glyph glyph-name="v" unicode="v" horiz-adv-x="498" 
d="M294 0h-92l-198 490h100l144 -380h2l146 380h98z" />
    <glyph glyph-name="w" unicode="w" horiz-adv-x="754" 
d="M750 490l-158 -490h-94l-122 376l-121 -376h-93l-158 490h96l109 -370h1l121 370h95l121 -370h1l108 370h94z" />
    <glyph glyph-name="x" unicode="x" horiz-adv-x="472" 
d="M289 249l175 -249h-108l-121 181l-119 -181h-108l173 249l-169 241h104l121 -173l115 173h108z" />
    <glyph glyph-name="y" unicode="y" horiz-adv-x="498" 
d="M494 490l-307 -706h-95l114 247l-202 459h100l146 -352h2l142 352h100z" />
    <glyph glyph-name="z" unicode="z" horiz-adv-x="460" 
d="M428 0h-396v80l279 326h-271v84h384v-80l-279 -326h283v-84z" />
    <glyph glyph-name="braceleft" unicode="{" horiz-adv-x="318" 
d="M286 -124h-22q-76 0 -121 44.5t-45 120.5v162q0 93 -74 93v76q74 0 74 93v162q0 76 45 120.5t121 44.5h22v-76h-15q-89 0 -89 -101v-166q-2 -89 -69 -113v-4q68 -23 69 -110v-169q0 -101 89 -101h15v-76z" />
    <glyph glyph-name="bar" unicode="|" horiz-adv-x="228" 
d="M156 -120h-84v912h84v-912z" />
    <glyph glyph-name="braceright" unicode="}" horiz-adv-x="318" 
d="M32 -124v76h15q89 0 89 101v169q1 87 69 110v4q-67 24 -69 113v166q0 101 -89 101h-15v76h22q76 0 121 -44.5t45 -120.5v-162q0 -93 74 -93v-76q-74 0 -74 -93v-162q0 -76 -45 -120.5t-121 -44.5h-22z" />
    <glyph glyph-name="asciitilde" unicode="~" horiz-adv-x="530" 
d="M377 234q-30 0 -117 32q-86 33 -105 33q-21 0 -35 -15t-16 -36h-72q0 58 35 96q36 38 86 38q34 0 117 -33q84 -32 105 -32t35 15t16 36h72q0 -59 -36 -96q-35 -38 -85 -38z" />
    <glyph glyph-name="uni00A0" unicode="&#xa0;" horiz-adv-x="220" 
 />
    <glyph glyph-name="exclamdown" unicode="&#xa1;" horiz-adv-x="232" 
d="M162 10v-226h-92v226l10 268h72zM184 438q0 -28 -19.5 -48t-48.5 -20q-28 0 -48 20t-20 48q0 29 20 48.5t48 19.5q29 0 48.5 -19.5t19.5 -48.5z" />
    <glyph glyph-name="cent" unicode="&#xa2;" horiz-adv-x="522" 
d="M240 515q-53 -16 -86.5 -63t-33.5 -110t33 -111t87 -62v346zM498 222q-51 -120 -182 -137v-85h-76v86q-95 13 -153 84q-59 71 -59 172t58 171q59 71 154 85v86h76v-85q128 -17 179 -137l-84 -35q-30 70 -95 87v-344q70 16 100 87z" />
    <glyph glyph-name="sterling" unicode="&#xa3;" horiz-adv-x="519" 
d="M32 0v80q98 45 98 149v10l-1 7h-97v77h68q-68 103 -68 179q0 83 58 140q58 58 148 58q72 0 124.5 -39t73.5 -103l-84 -35q-29 89 -114 89q-25 0 -46 -8.5t-36 -23.5t-23.5 -35t-8.5 -43q0 -48 36 -109q18 -31 28 -48t12 -22h135v-77h-115q0 -96 -59 -155l3 -3h178
q62 0 85 57l76 -32q-45 -111 -158 -113h-313z" />
    <glyph glyph-name="currency" unicode="&#xa4;" horiz-adv-x="598" 
d="M113 91l-53 54l60 58q-37 58 -37 122q0 70 37 122l-60 59l53 54l59 -57q56 41 127 41t127 -41l59 57l53 -54l-59 -58q36 -54 36 -123q0 -68 -36 -122l59 -58l-53 -54l-59 57q-60 -42 -127 -42q-33 0 -65.5 10.5t-61.5 31.5zM167 325q0 -58 38 -99q39 -40 94 -40
q56 0 93 40q39 40 39 99q0 57 -39 98q-38 41 -93 41t-94 -41q-38 -41 -38 -98z" />
    <glyph glyph-name="yen" unicode="&#xa5;" horiz-adv-x="572" 
d="M501 242v-76h-167v-166h-92v166h-171v76h171v84h-171v76h122l-181 282h105l169 -282h4l165 282h105l-178 -282h119v-76h-167v-84h167z" />
    <glyph glyph-name="brokenbar" unicode="&#xa6;" horiz-adv-x="228" 
d="M156 756v-380h-84v380h84zM156 292v-412h-84v412h84z" />
    <glyph glyph-name="section" unicode="&#xa7;" horiz-adv-x="535" 
d="M157 279q0 -53 75 -86l126 -47q19 14 31 39.5t12 49.5q0 48 -35 80q-33 30 -126 59l-4 1q-34 -10 -56.5 -38t-22.5 -58zM495 -41q0 -85 -65 -138t-158 -53q-82 0 -146 52q-63 51 -86 141l86 35q17 -66 55.5 -103t90.5 -37q27 0 50.5 8t41 21.5t27.5 32t10 39.5
q0 47 -35 78t-124 58q-88 27 -133.5 71t-45.5 113q0 40 22.5 77t62.5 60q-85 51 -85 143q0 71 58 123t148 52q72 0 128 -43t76 -102l-85 -35q-6 18 -17.5 35t-27 29.5t-34 20t-38.5 7.5q-24 0 -45 -7t-36 -19t-24 -27.5t-9 -33.5q0 -63 119 -101q60 -19 101.5 -41t68 -48
t38 -57.5t11.5 -70.5q0 -90 -65 -138q65 -53 65 -142z" />
    <glyph glyph-name="dieresis" unicode="&#xa8;" horiz-adv-x="400" 
d="M173 659q0 -23 -16.5 -40t-40.5 -17q-22 0 -39.5 17.5t-17.5 39.5q0 24 17 40.5t40 16.5q25 0 41 -16t16 -41zM341 659q0 -23 -16.5 -40t-40.5 -17q-22 0 -39.5 17.5t-17.5 39.5q0 24 17 40.5t40 16.5q25 0 41 -16t16 -41z" />
    <glyph glyph-name="copyright" unicode="&#xa9;" horiz-adv-x="532" 
d="M496 502q0 -95 -68 -163q-67 -67 -162 -67q-96 0 -163 67t-67 163q0 95 67 162q68 68 163 68q94 0 162 -68t68 -162zM84 502q0 -74 54 -128t128 -54q75 0 128 53q54 54 54 129q0 76 -53 129t-129 53q-75 0 -129 -54q-53 -53 -53 -128zM270 383q-51 0 -85 34t-34 85
q0 50 34 84q35 35 85 35q48 0 87 -39l-32 -29q-23 24 -55 24q-30 0 -51.5 -22t-21.5 -53q0 -15 6 -29t16 -24t23 -16t28 -6q38 0 60 31l34 -27q-36 -48 -94 -48z" />
    <glyph glyph-name="ordfeminine" unicode="&#xaa;" horiz-adv-x="478" 
d="M132 415q0 -30 26 -48.5t64 -18.5q51 0 92 35q40 36 40 86q-14 13 -48 23q-28 7 -55 7q-57 0 -88 -22t-31 -62zM208 272q-70 0 -120 41q-48 42 -48 106q0 33 14 60.5t39.5 46.5t61 29.5t77.5 10.5q76 0 122 -28v15q0 45 -31 73t-79 28q-74 0 -105 -55l-78 38q19 43 66 69
t113 26q87 0 143 -51q55 -49 55 -134v-261h-84v62h-4q-21 -35 -59 -55.5t-83 -20.5z" />
    <glyph glyph-name="guillemotleft" unicode="&#xab;" horiz-adv-x="556" 
d="M296 440l-160 -169l160 -169l-54 -50l-202 219l202 219zM496 440l-160 -169l160 -169l-54 -50l-202 219l202 219z" />
    <glyph glyph-name="logicalnot" unicode="&#xac;" horiz-adv-x="562" 
d="M482 385v-280h-72v204h-362v76h434z" />
    <glyph glyph-name="uni00AD" unicode="&#xad;" horiz-adv-x="432" 
d="M376 272h-320v76h320v-76z" />
    <glyph glyph-name="registered" unicode="&#xae;" horiz-adv-x="532" 
d="M496 502q0 -95 -68 -163q-67 -67 -162 -67q-96 0 -163 67t-67 163q0 95 67 162q68 68 163 68q94 0 162 -68t68 -162zM84 502q0 -74 54 -128t128 -54q75 0 128 53q54 54 54 129q0 76 -53 129t-129 53q-75 0 -129 -54q-53 -53 -53 -128zM235 515h46q13 0 22 8t9 20
q0 28 -37 28h-40v-56zM314 389l-55 84h-24v-84h-46v226h96q30 0 51.5 -21t21.5 -51q0 -23 -14 -41.5t-36 -24.5l-2 -2l60 -84v-2h-52z" />
    <glyph glyph-name="macron" unicode="&#xaf;" horiz-adv-x="400" 
d="M340 695v-72h-280v72h280z" />
    <glyph glyph-name="degree" unicode="&#xb0;" horiz-adv-x="325" 
d="M293 571q0 -54 -39 -91q-38 -38 -91 -38q-52 0 -93 38q-38 38 -38 91t38 91q41 38 93 38q54 0 92 -38t38 -91zM163 506q25 0 43.5 19.5t18.5 45.5q1 28 -19 46.5t-45 18.5t-43 -19q-18 -17 -18 -43t17.5 -48t45.5 -20z" />
    <glyph glyph-name="plusminus" unicode="&#xb1;" horiz-adv-x="550" 
d="M494 372v-76h-181v-157h-76v157h-181v76h181v157h76v-157h181zM494 76v-76h-438v76h438z" />
    <glyph glyph-name="twosuperior" unicode="&#xb2;" horiz-adv-x="304" 
d="M276 414v-64h-250v60l143 144q33 34 33 62q0 19 -15 31.5t-37 12.5q-49 0 -61 -58l-65 27q9 43 44 69t81 26q53 0 88 -31q37 -30 37 -77q0 -44 -51 -98l-105 -104h158z" />
    <glyph glyph-name="threesuperior" unicode="&#xb3;" horiz-adv-x="323" 
d="M158 342q-51 0 -86.5 26t-47.5 74l65 24q13 -60 69 -60q25 0 43 15.5t18 38.5q0 50 -71 50h-30v60h29q60 0 60 47q0 19 -14.5 31t-35.5 12q-42 0 -58 -43l-62 25q28 82 120 82q54 0 88 -29t34 -77q0 -47 -45 -75q57 -33 57 -84q0 -26 -10 -47t-28 -37t-42.5 -24.5
t-52.5 -8.5z" />
    <glyph glyph-name="acute" unicode="&#xb4;" horiz-adv-x="400" 
d="M304 716l-72 -128h-80l52 128h100z" />
    <glyph glyph-name="mu" unicode="&#xb5;" 
d="M486 490v-490h-88v68h-4q-50 -84 -151 -84q-53 0 -99 40h-4l4 -56v-184h-92v706h92v-283q0 -139 121 -139q54 0 92 45q37 44 37 107v270h92z" />
    <glyph glyph-name="paragraph" unicode="&#xb6;" horiz-adv-x="624" 
d="M544 -216h-84v844h-84v-844h-84v512h-44q-95 0 -160 59q-64 58 -64 151t64 151q65 59 160 59h296v-932z" />
    <glyph glyph-name="periodcentered" unicode="&#xb7;" horiz-adv-x="176" 
d="M156 324q0 -28 -19.5 -48t-48.5 -20q-28 0 -48 20t-20 48q0 29 20 48.5t48 19.5q29 0 48.5 -19.5t19.5 -48.5z" />
    <glyph glyph-name="cedilla" unicode="&#xb8;" horiz-adv-x="400" 
d="M266 -141q0 -40 -29 -68t-72 -28q-31 0 -57 18.5t-37 48.5l52 23q10 -34 42 -34q18 0 29.5 11.5t11.5 28.5q0 18 -11.5 30t-29.5 12q-20 0 -33 -16l-47 22l35 93h56l-21 -48l20 2q38 0 64.5 -27t26.5 -68z" />
    <glyph glyph-name="onesuperior" unicode="&#xb9;" horiz-adv-x="242" 
d="M182 716v-366h-70v285l-64 -26l-24 54l112 53h46z" />
    <glyph glyph-name="ordmasculine" unicode="&#xba;" horiz-adv-x="516" 
d="M480 502q0 -99 -63 -165q-63 -65 -159 -65t-159 65q-63 66 -63 165t63 164q63 66 159 66t159 -66q63 -65 63 -164zM124 502q0 -64 39 -107q40 -43 95 -43t94 43q40 43 40 107q0 63 -40 106q-39 44 -94 44t-95 -43q-39 -44 -39 -107z" />
    <glyph glyph-name="guillemotright" unicode="&#xbb;" horiz-adv-x="556" 
d="M114 52l-54 50l160 169l-160 169l54 50l202 -219zM314 52l-54 50l160 169l-160 169l54 50l202 -219z" />
    <glyph glyph-name="onequarter" unicode="&#xbc;" horiz-adv-x="736" 
d="M632 72v-72h-70v72h-171v48l174 246h67v-234h48v-60h-48zM558 263l-94 -131h98v131h-4zM622 686l-465 -694l-57 37l466 695zM206 716v-366h-70v285l-64 -26l-24 54l112 53h46z" />
    <glyph glyph-name="onehalf" unicode="&#xbd;" horiz-adv-x="776" 
d="M720 64v-64h-250v60l143 144q33 34 33 62q0 19 -15 31.5t-37 12.5q-49 0 -61 -58l-65 27q9 43 44 69t81 26q53 0 88 -31q37 -30 37 -77q0 -44 -51 -98l-105 -104h158zM614 686l-465 -694l-57 37l466 695zM206 716v-366h-70v285l-64 -26l-24 54l112 53h46z" />
    <glyph glyph-name="threequarters" unicode="&#xbe;" horiz-adv-x="829" 
d="M723 72v-72h-70v72h-171v48l174 246h67v-234h48v-60h-48zM649 263l-94 -131h98v131h-4zM701 686l-465 -694l-57 37l466 695zM182 342q-51 0 -86.5 26t-47.5 74l65 24q13 -60 69 -60q25 0 43 15.5t18 38.5q0 50 -71 50h-30v60h29q60 0 60 47q0 19 -14.5 31t-35.5 12
q-42 0 -58 -43l-62 25q28 82 120 82q54 0 88 -29t34 -77q0 -47 -45 -75q57 -33 57 -84q0 -26 -10 -47t-28 -37t-42.5 -24.5t-52.5 -8.5z" />
    <glyph glyph-name="questiondown" unicode="&#xbf;" horiz-adv-x="482" 
d="M196 278h94v-47q0 -21 -3.5 -38.5t-12.5 -35t-24.5 -35.5t-39.5 -39q-23 -22 -39 -38.5t-24 -29.5q-16 -25 -16 -57q0 -48 30 -75t81 -27q86 0 118 96l86 -36q-24 -66 -78 -107t-126 -41q-90 0 -148 54q-57 52 -57 136q0 42 21 80q22 41 79 92q57 52 59 105v43zM175 438
q0 29 20 48.5t48 19.5q29 0 48.5 -19.5t19.5 -48.5q0 -28 -19.5 -48t-48.5 -20q-28 0 -48 20t-20 48z" />
    <glyph glyph-name="Agrave" unicode="&#xc0;" horiz-adv-x="668" 
d="M317 926l82 -141h-85l-102 141h105zM332 603l-117 -323h238l-117 323h-4zM114 0h-102l270 716h104l270 -716h-102l-69 194h-301z" />
    <glyph glyph-name="Aacute" unicode="&#xc1;" horiz-adv-x="668" 
d="M481 926l-102 -141h-85l82 141h105zM332 603l-117 -323h238l-117 323h-4zM114 0h-102l270 716h104l270 -716h-102l-69 194h-301z" />
    <glyph glyph-name="Acircumflex" unicode="&#xc2;" horiz-adv-x="668" 
d="M275 775h-89l108 141h80l108 -141h-89l-59 69zM332 603l-117 -323h238l-117 323h-4zM114 0h-102l270 716h104l270 -716h-102l-69 194h-301z" />
    <glyph glyph-name="Atilde" unicode="&#xc3;" horiz-adv-x="668" 
d="M393 775q-29 0 -57 20t-41 20q-28 0 -29 -31h-70q0 48 24 77.5t67 29.5q32 0 58 -20t40 -20q28 0 29 31h70q0 -48 -23 -77.5t-68 -29.5zM332 603l-117 -323h238l-117 323h-4zM114 0h-102l270 716h104l270 -716h-102l-69 194h-301z" />
    <glyph glyph-name="Adieresis" unicode="&#xc4;" horiz-adv-x="668" 
d="M332 603l-117 -323h238l-117 323h-4zM114 0h-102l270 716h104l270 -716h-102l-69 194h-301zM307 843q0 -23 -16.5 -40t-40.5 -17q-22 0 -39.5 17.5t-17.5 39.5q0 24 17 40.5t40 16.5q25 0 41 -16t16 -41zM475 843q0 -23 -16.5 -40t-40.5 -17q-22 0 -39.5 17.5t-17.5 39.5
q0 24 17 40.5t40 16.5q25 0 41 -16t16 -41z" />
    <glyph glyph-name="Aring" unicode="&#xc5;" horiz-adv-x="668" 
d="M294 756q0 -16 12 -28t28 -12q17 0 28.5 12t11.5 28q0 17 -11.5 28.5t-28.5 11.5q-16 0 -28 -11.5t-12 -28.5zM332 603l-117 -323h238l-117 323h-4zM485 194h-301l-70 -194h-102l255 676q-37 33 -37 80q0 22 8 41t22.5 33t33.5 22t40 8t40 -8t33.5 -22.5t22.5 -33.5
t8 -40q0 -48 -37 -79l255 -677h-102z" />
    <glyph glyph-name="AE" unicode="&#xc6;" horiz-adv-x="960" 
d="M490 628h-4l-206 -348h210v348zM908 0h-418v194h-261l-115 -194h-110l432 716h472v-88h-326v-227h294v-86h-294v-227h326v-88z" />
    <glyph glyph-name="Ccedilla" unicode="&#xc7;" horiz-adv-x="729" 
d="M515 -141q0 -40 -29 -68t-72 -28q-31 0 -57 18.5t-37 48.5l52 23q10 -34 42 -34q18 0 29.5 11.5t11.5 28.5q0 18 -11.5 30t-29.5 12q-20 0 -33 -16l-47 22l30 80q-143 16 -235 120t-92 251q0 160 106 266q106 108 266 108q162 0 263 -117l-66 -64q-77 93 -197 93
q-119 0 -199 -80q-79 -79 -79 -206t79 -206q80 -80 199 -80q125 0 217 105l67 -65q-49 -58 -121 -92t-154 -36l-14 -32l20 2q38 0 64.5 -27t26.5 -68z" />
    <glyph glyph-name="Egrave" unicode="&#xc8;" 
d="M268 926l82 -141h-85l-102 141h105zM490 716v-88h-326v-227h294v-86h-294v-227h326v-88h-418v716h418z" />
    <glyph glyph-name="Eacute" unicode="&#xc9;" 
d="M420 926l-102 -141h-85l82 141h105zM490 716v-88h-326v-227h294v-86h-294v-227h326v-88h-418v716h418z" />
    <glyph glyph-name="Ecircumflex" unicode="&#xca;" 
d="M221 775h-89l108 141h80l108 -141h-89l-59 69zM490 716v-88h-326v-227h294v-86h-294v-227h326v-88h-418v716h418z" />
    <glyph glyph-name="Edieresis" unicode="&#xcb;" 
d="M490 716v-88h-326v-227h294v-86h-294v-227h326v-88h-418v716h418zM250 843q0 -23 -16.5 -40t-40.5 -17q-22 0 -39.5 17.5t-17.5 39.5q0 24 17 40.5t40 16.5q25 0 41 -16t16 -41zM418 843q0 -23 -16.5 -40t-40.5 -17q-22 0 -39.5 17.5t-17.5 39.5q0 24 17 40.5t40 16.5
q25 0 41 -16t16 -41z" />
    <glyph glyph-name="Igrave" unicode="&#xcc;" horiz-adv-x="236" 
d="M96 926l82 -141h-85l-102 141h105zM164 0h-92v716h92v-716z" />
    <glyph glyph-name="Iacute" unicode="&#xcd;" horiz-adv-x="236" 
d="M255 926l-102 -141h-85l82 141h105zM164 0h-92v716h92v-716z" />
    <glyph glyph-name="Icircumflex" unicode="&#xce;" horiz-adv-x="236" 
d="M164 0h-92v716h92v-716zM64 778h-89v5l103 117h80l103 -117v-5h-89l-50 60h-8z" />
    <glyph glyph-name="Idieresis" unicode="&#xcf;" horiz-adv-x="236" 
d="M243 844q0 -23 -16.5 -40t-40.5 -17q-22 0 -39.5 17.5t-17.5 39.5q0 24 17 40.5t40 16.5q25 0 41 -16t16 -41zM107 844q0 -23 -16.5 -40t-40.5 -17q-22 0 -39.5 17.5t-17.5 39.5q0 24 17 40.5t40 16.5q25 0 41 -16t16 -41zM164 0h-92v716h92v-716z" />
    <glyph glyph-name="Eth" unicode="&#xd0;" horiz-adv-x="751" 
d="M714 358q0 -161 -100 -260q-100 -98 -263 -98h-219v319h-76v76h76v321h219q164 0 263 -99q100 -99 100 -259zM224 319v-231h127q124 0 197 71q72 72 72 199q0 126 -72 198t-197 72h-127v-233h200v-76h-200z" />
    <glyph glyph-name="Ntilde" unicode="&#xd1;" horiz-adv-x="696" 
d="M164 0h-92v716h112l348 -557h4l-4 138v419h92v-716h-96l-364 584h-4l4 -138v-446zM413 778q-24 0 -67 22q-43 23 -49 23q-31 0 -33 -35h-76q0 54 32.5 86t78.5 32q28 0 81 -30q30 -15 35 -15q31 0 33 35h76q0 -54 -32.5 -86t-78.5 -32z" />
    <glyph glyph-name="Ograve" unicode="&#xd2;" horiz-adv-x="810" 
d="M395 926l82 -141h-85l-102 141h105zM773 358q0 -160 -106 -266q-107 -108 -262 -108q-156 0 -262 108q-106 106 -106 266t106 266q106 108 262 108t262 -109q106 -106 106 -265zM131 358q0 -124 78 -205q79 -81 196 -81t195 81q79 79 79 205t-79 205q-78 81 -195 81
t-196 -81q-78 -81 -78 -205z" />
    <glyph glyph-name="Oacute" unicode="&#xd3;" horiz-adv-x="810" 
d="M544 926l-102 -141h-85l82 141h105zM773 358q0 -160 -106 -266q-107 -108 -262 -108q-156 0 -262 108q-106 106 -106 266t106 266q106 108 262 108t262 -109q106 -106 106 -265zM131 358q0 -124 78 -205q79 -81 196 -81t195 81q79 79 79 205t-79 205q-78 81 -195 81
t-196 -81q-78 -81 -78 -205z" />
    <glyph glyph-name="Ocircumflex" unicode="&#xd4;" horiz-adv-x="810" 
d="M346 775h-89l108 141h80l108 -141h-89l-59 69zM773 358q0 -160 -106 -266q-107 -108 -262 -108q-156 0 -262 108q-106 106 -106 266t106 266q106 108 262 108t262 -109q106 -106 106 -265zM131 358q0 -124 78 -205q79 -81 196 -81t195 81q79 79 79 205t-79 205
q-78 81 -195 81t-196 -81q-78 -81 -78 -205z" />
    <glyph glyph-name="Otilde" unicode="&#xd5;" horiz-adv-x="810" 
d="M464 775q-29 0 -57 20t-41 20q-28 0 -29 -31h-70q0 48 24 77.5t67 29.5q32 0 58 -20t40 -20q28 0 29 31h70q0 -48 -23 -77.5t-68 -29.5zM773 358q0 -160 -106 -266q-107 -108 -262 -108q-156 0 -262 108q-106 106 -106 266t106 266q106 108 262 108t262 -109
q106 -106 106 -265zM131 358q0 -124 78 -205q79 -81 196 -81t195 81q79 79 79 205t-79 205q-78 81 -195 81t-196 -81q-78 -81 -78 -205z" />
    <glyph glyph-name="Odieresis" unicode="&#xd6;" horiz-adv-x="810" 
d="M773 358q0 -160 -106 -266q-107 -108 -262 -108q-156 0 -262 108q-106 106 -106 266t106 266q106 108 262 108t262 -109q106 -106 106 -265zM131 358q0 -124 78 -205q79 -81 196 -81t195 81q79 79 79 205t-79 205q-78 81 -195 81t-196 -81q-78 -81 -78 -205zM378 843
q0 -23 -16.5 -40t-40.5 -17q-22 0 -39.5 17.5t-17.5 39.5q0 24 17 40.5t40 16.5q25 0 41 -16t16 -41zM546 843q0 -23 -16.5 -40t-40.5 -17q-22 0 -39.5 17.5t-17.5 39.5q0 24 17 40.5t40 16.5q25 0 41 -16t16 -41z" />
    <glyph glyph-name="multiply" unicode="&#xd7;" 
d="M482 116l-51 -51l-160 156l-160 -156l-51 51l159 155l-159 155l51 51l160 -156l160 156l51 -51l-159 -155z" />
    <glyph glyph-name="Oslash" unicode="&#xd8;" horiz-adv-x="810" 
d="M405 644q-117 0 -196 -81q-78 -81 -78 -205q0 -138 94 -220l299 480q-55 26 -119 26zM405 72q117 0 195 81q79 80 79 205q0 136 -93 219l-299 -479q55 -26 118 -26zM773 358q0 -159 -106 -266q-107 -108 -262 -108q-87 0 -165 38l-37 -59l-63 39l37 59q-66 52 -103 129.5
t-37 167.5q0 159 106 266q106 108 262 108q88 0 166 -39l38 61l62 -40l-38 -60q67 -54 103.5 -131t36.5 -165z" />
    <glyph glyph-name="Ugrave" unicode="&#xd9;" horiz-adv-x="642" 
d="M304 926l82 -141h-85l-102 141h105zM321 -16q-119 0 -192 78q-73 76 -73 204v450h92v-454q0 -88 46 -139t127 -51t127 51t46 139v454h92v-450q0 -130 -72 -206t-193 -76z" />
    <glyph glyph-name="Uacute" unicode="&#xda;" horiz-adv-x="642" 
d="M462 926l-102 -141h-85l82 141h105zM321 -16q-119 0 -192 78q-73 76 -73 204v450h92v-454q0 -88 46 -139t127 -51t127 51t46 139v454h92v-450q0 -130 -72 -206t-193 -76z" />
    <glyph glyph-name="Ucircumflex" unicode="&#xdb;" horiz-adv-x="642" 
d="M321 -16q-119 0 -192 78q-73 76 -73 204v450h92v-454q0 -88 46 -139t127 -51t127 51t46 139v454h92v-450q0 -130 -72 -206t-193 -76zM267 778h-89v5l103 117h80l103 -117v-5h-89l-50 60h-8z" />
    <glyph glyph-name="Udieresis" unicode="&#xdc;" horiz-adv-x="642" 
d="M321 -16q-119 0 -192 78q-73 76 -73 204v450h92v-454q0 -88 46 -139t127 -51t127 51t46 139v454h92v-450q0 -130 -72 -206t-193 -76zM294 843q0 -23 -16.5 -40t-40.5 -17q-22 0 -39.5 17.5t-17.5 39.5q0 24 17 40.5t40 16.5q25 0 41 -16t16 -41zM462 843q0 -23 -16.5 -40
t-40.5 -17q-22 0 -39.5 17.5t-17.5 39.5q0 24 17 40.5t40 16.5q25 0 41 -16t16 -41z" />
    <glyph glyph-name="Yacute" unicode="&#xdd;" horiz-adv-x="594" 
d="M443 926l-102 -141h-85l82 141h105zM345 333v-333h-92v333l-241 383h108l177 -291h4l173 291h108z" />
    <glyph glyph-name="Thorn" unicode="&#xde;" horiz-adv-x="564" 
d="M164 506v-250h154q55 0 91 37q37 37 37 88q0 50 -37 87q-36 38 -91 38h-154zM164 168v-168h-92v716h92v-122h152q93 0 158 -62q66 -62 66 -151q0 -91 -66 -152q-64 -61 -158 -61h-152z" />
    <glyph glyph-name="germandbls" unicode="&#xdf;" horiz-adv-x="562" 
d="M412 385q118 -51 118 -174q0 -95 -65 -157t-164 -62l-53 4v88l53 -4q56 0 96 38q39 37 39 93q0 54 -43 91q-43 38 -100 38h-37v86h25q57 0 90 30t33 82q0 23 -9 42.5t-24.5 33.5t-37 22t-46.5 8q-57 0 -89 -34t-32 -94v-516h-94v516q0 98 58 156q58 60 157 60
q92 0 151 -55q60 -56 60 -139q0 -105 -86 -149v-4z" />
    <glyph glyph-name="agrave" unicode="&#xe0;" horiz-adv-x="510" 
d="M244 710l82 -141h-85l-102 141h105zM123 150q0 -18 8 -33.5t22 -26.5t32.5 -17.5t39.5 -6.5q59 0 103 43q46 43 46 101q-43 34 -120 34q-28 0 -52 -7t-41.5 -20t-27.5 -30t-10 -37zM242 506q103 0 161.5 -54t58.5 -150v-302h-88v68h-4q-57 -84 -152 -84q-81 0 -136 48
q-54 48 -54 120q0 38 15 68.5t42.5 52.5t66.5 33.5t87 11.5q82 0 135 -30v21q0 48 -38 81q-37 34 -89 34q-77 0 -122 -65l-81 51q67 96 198 96z" />
    <glyph glyph-name="aacute" unicode="&#xe1;" horiz-adv-x="510" 
d="M406 710l-102 -141h-85l82 141h105zM123 150q0 -18 8 -33.5t22 -26.5t32.5 -17.5t39.5 -6.5q59 0 103 43q46 43 46 101q-43 34 -120 34q-28 0 -52 -7t-41.5 -20t-27.5 -30t-10 -37zM242 506q103 0 161.5 -54t58.5 -150v-302h-88v68h-4q-57 -84 -152 -84q-81 0 -136 48
q-54 48 -54 120q0 38 15 68.5t42.5 52.5t66.5 33.5t87 11.5q82 0 135 -30v21q0 48 -38 81q-37 34 -89 34q-77 0 -122 -65l-81 51q67 96 198 96z" />
    <glyph glyph-name="acircumflex" unicode="&#xe2;" horiz-adv-x="510" 
d="M192 559h-89l108 141h80l108 -141h-89l-59 69zM123 150q0 -18 8 -33.5t22 -26.5t32.5 -17.5t39.5 -6.5q59 0 103 43q46 43 46 101q-43 34 -120 34q-28 0 -52 -7t-41.5 -20t-27.5 -30t-10 -37zM242 506q103 0 161.5 -54t58.5 -150v-302h-88v68h-4q-57 -84 -152 -84
q-81 0 -136 48q-54 48 -54 120q0 38 15 68.5t42.5 52.5t66.5 33.5t87 11.5q82 0 135 -30v21q0 48 -38 81q-37 34 -89 34q-77 0 -122 -65l-81 51q67 96 198 96z" />
    <glyph glyph-name="atilde" unicode="&#xe3;" horiz-adv-x="510" 
d="M310 559q-29 0 -57 20t-41 20q-28 0 -29 -31h-70q0 48 24 77.5t67 29.5q32 0 58 -20t40 -20q28 0 29 31h70q0 -48 -23 -77.5t-68 -29.5zM123 150q0 -18 8 -33.5t22 -26.5t32.5 -17.5t39.5 -6.5q59 0 103 43q46 43 46 101q-43 34 -120 34q-28 0 -52 -7t-41.5 -20
t-27.5 -30t-10 -37zM242 506q103 0 161.5 -54t58.5 -150v-302h-88v68h-4q-57 -84 -152 -84q-81 0 -136 48q-54 48 -54 120q0 38 15 68.5t42.5 52.5t66.5 33.5t87 11.5q82 0 135 -30v21q0 48 -38 81q-37 34 -89 34q-77 0 -122 -65l-81 51q67 96 198 96z" />
    <glyph glyph-name="adieresis" unicode="&#xe4;" horiz-adv-x="510" 
d="M123 150q0 -18 8 -33.5t22 -26.5t32.5 -17.5t39.5 -6.5q59 0 103 43q46 43 46 101q-43 34 -120 34q-28 0 -52 -7t-41.5 -20t-27.5 -30t-10 -37zM242 506q103 0 161.5 -54t58.5 -150v-302h-88v68h-4q-57 -84 -152 -84q-81 0 -136 48q-54 48 -54 120q0 38 15 68.5
t42.5 52.5t66.5 33.5t87 11.5q82 0 135 -30v21q0 48 -38 81q-37 34 -89 34q-77 0 -122 -65l-81 51q67 96 198 96zM229 658q0 -23 -16.5 -40t-40.5 -17q-22 0 -39.5 17.5t-17.5 39.5q0 24 17 40.5t40 16.5q25 0 41 -16t16 -41zM397 658q0 -23 -16.5 -40t-40.5 -17
q-22 0 -39.5 17.5t-17.5 39.5q0 24 17 40.5t40 16.5q25 0 41 -16t16 -41z" />
    <glyph glyph-name="aring" unicode="&#xe5;" horiz-adv-x="510" 
d="M123 150q0 -18 8 -33.5t22 -26.5t32.5 -17.5t39.5 -6.5q59 0 103 43q46 43 46 101q-43 34 -120 34q-28 0 -52 -7t-41.5 -20t-27.5 -30t-10 -37zM242 506q103 0 161.5 -54t58.5 -150v-302h-88v68h-4q-57 -84 -152 -84q-81 0 -136 48q-54 48 -54 120q0 38 15 68.5
t42.5 52.5t66.5 33.5t87 11.5q82 0 135 -30v21q0 48 -38 81q-37 34 -89 34q-77 0 -122 -65l-81 51q67 96 198 96zM153 668q0 22 8 41t22.5 33t33.5 22t40 8t40 -8t33.5 -22.5t22.5 -33.5t8 -40t-8 -40t-22.5 -33.5t-33.5 -22.5t-40 -8t-40 8t-33.5 22.5t-22.5 33.5t-8 40z
M213 668q0 -18 13 -31.5t31 -13.5t31 13.5t13 31.5t-13 31t-31 13t-31 -13t-13 -31z" />
    <glyph glyph-name="ae" unicode="&#xe6;" horiz-adv-x="886" 
d="M760 304q-4 51 -41.5 84.5t-100.5 33.5q-52 0 -91 -32t-50 -86h283zM626 -16q-66 0 -118 29t-84 83q-67 -112 -206 -112q-81 0 -136 48q-54 48 -54 120q0 38 15 68.5t42.5 52.5t66.5 33.5t87 11.5q88 0 139 -30v21q0 48 -38 81q-37 34 -88 34q-81 0 -118 -69l-84 41
q57 110 198 110q61 0 109.5 -26t75.5 -74q67 100 187 100q54 0 98 -18t75 -52.5t48 -84.5t17 -113l-1 -10h-387q2 -71 48 -116q47 -44 112 -44q89 0 138 88l82 -40q-33 -63 -91 -97.5t-133 -34.5zM123 150q0 -18 8 -33.5t22 -26.5t32.5 -17.5t39.5 -6.5q60 0 106 43
q47 44 47 101q-18 14 -59 25q-29 9 -65 9q-28 0 -52 -7t-41.5 -20t-27.5 -30t-10 -37z" />
    <glyph glyph-name="ccedilla" unicode="&#xe7;" horiz-adv-x="522" 
d="M384 -141q0 -40 -29 -68t-72 -28q-31 0 -57 18.5t-37 48.5l52 23q10 -34 42 -34q18 0 29.5 11.5t11.5 28.5q0 18 -11.5 30t-29.5 12q-20 0 -33 -16l-47 22l30 81q-92 17 -149 87q-56 71 -56 170q0 113 71 187q72 74 181 74q75 0 131 -37.5t84 -103.5l-84 -35
q-39 92 -137 92q-63 0 -109 -51q-45 -51 -45 -126t45 -126q46 -51 109 -51q101 0 142 92l82 -35q-26 -64 -81 -101.5t-130 -39.5l-14 -32l20 2q38 0 64.5 -27t26.5 -68z" />
    <glyph glyph-name="egrave" unicode="&#xe8;" horiz-adv-x="536" 
d="M258 710l82 -141h-85l-102 141h105zM276 -16q-107 0 -178 74q-70 73 -70 187q0 112 68 186q67 75 174 75q54 0 98 -18t75 -52.5t48 -84.5t17 -113l-1 -10h-385q2 -73 48 -116q47 -44 110 -44q89 0 138 88l82 -40q-33 -63 -91 -97.5t-133 -34.5zM410 304q-4 51 -41.5 84.5
t-100.5 33.5q-52 0 -89.5 -32t-49.5 -86h281z" />
    <glyph glyph-name="eacute" unicode="&#xe9;" horiz-adv-x="536" 
d="M421 710l-102 -141h-85l82 141h105zM276 -16q-107 0 -178 74q-70 73 -70 187q0 112 68 186q67 75 174 75q54 0 98 -18t75 -52.5t48 -84.5t17 -113l-1 -10h-385q2 -73 48 -116q47 -44 110 -44q89 0 138 88l82 -40q-33 -63 -91 -97.5t-133 -34.5zM410 304q-4 51 -41.5 84.5
t-100.5 33.5q-52 0 -89.5 -32t-49.5 -86h281z" />
    <glyph glyph-name="ecircumflex" unicode="&#xea;" horiz-adv-x="536" 
d="M215 559h-89l108 141h80l108 -141h-89l-59 69zM276 -16q-107 0 -178 74q-70 73 -70 187q0 112 68 186q67 75 174 75q54 0 98 -18t75 -52.5t48 -84.5t17 -113l-1 -10h-385q2 -73 48 -116q47 -44 110 -44q89 0 138 88l82 -40q-33 -63 -91 -97.5t-133 -34.5zM410 304
q-4 51 -41.5 84.5t-100.5 33.5q-52 0 -89.5 -32t-49.5 -86h281z" />
    <glyph glyph-name="edieresis" unicode="&#xeb;" horiz-adv-x="536" 
d="M276 -16q-107 0 -178 74q-70 73 -70 187q0 112 68 186q67 75 174 75q54 0 98 -18t75 -52.5t48 -84.5t17 -113l-1 -10h-385q2 -73 48 -116q47 -44 110 -44q89 0 138 88l82 -40q-33 -63 -91 -97.5t-133 -34.5zM410 304q-4 51 -41.5 84.5t-100.5 33.5q-52 0 -89.5 -32
t-49.5 -86h281zM239 658q0 -23 -16.5 -40t-40.5 -17q-22 0 -39.5 17.5t-17.5 39.5q0 24 17 40.5t40 16.5q25 0 41 -16t16 -41zM407 658q0 -23 -16.5 -40t-40.5 -17q-22 0 -39.5 17.5t-17.5 39.5q0 24 17 40.5t40 16.5q25 0 41 -16t16 -41z" />
    <glyph glyph-name="igrave" unicode="&#xec;" horiz-adv-x="220" 
d="M105 710l62 -141h-85l-82 141h105zM156 490v-490h-92v490h92z" />
    <glyph glyph-name="iacute" unicode="&#xed;" horiz-adv-x="220" 
d="M223 710l-82 -141h-85l62 141h105zM156 490v-490h-92v490h92z" />
    <glyph glyph-name="icircumflex" unicode="&#xee;" horiz-adv-x="220" 
d="M156 490v-490h-92v490h92zM56 594h-89v5l103 117h80l103 -117v-5h-89l-50 60h-8z" />
    <glyph glyph-name="idieresis" unicode="&#xef;" horiz-adv-x="220" 
d="M99 659q0 -23 -16.5 -40t-40.5 -17q-22 0 -39.5 17.5t-17.5 39.5q0 24 17 40.5t40 16.5q25 0 41 -16t16 -41zM235 659q0 -23 -16.5 -40t-40.5 -17q-22 0 -39.5 17.5t-17.5 39.5q0 24 17 40.5t40 16.5q25 0 41 -16t16 -41zM156 490v-490h-92v490h92z" />
    <glyph glyph-name="eth" unicode="&#xf0;" horiz-adv-x="571" 
d="M531 260q0 -123 -68 -200q-67 -76 -178 -76q-101 0 -173 72q-72 73 -72 176q0 104 70 173t168 69q82 0 126 -47l4 3q-34 79 -95 129l-129 -57l-28 67l86 38q-25 13 -52.5 23t-57.5 17l31 77q98 -27 171 -77l101 45l28 -66l-67 -30q135 -131 135 -336zM287 389
q-66 0 -109 -45q-44 -47 -44 -113q0 -68 43 -114q43 -45 108 -45q64 0 108 45q44 47 44 114q0 66 -44 113q-44 45 -106 45z" />
    <glyph glyph-name="ntilde" unicode="&#xf1;" 
d="M56 490h88v-68h4q10 18 27 33.5t37.5 26.5t43.5 17.5t47 6.5q91 0 139 -51t48 -147v-308h-92v302q-3 120 -121 120q-55 0 -92 -45q-37 -43 -37 -106v-271h-92v490zM336 595q-24 0 -67 22q-43 23 -49 23q-31 0 -33 -35h-76q0 54 32.5 86t78.5 32q28 0 81 -30
q30 -15 35 -15q31 0 33 35h76q0 -54 -32.5 -86t-78.5 -32z" />
    <glyph glyph-name="ograve" unicode="&#xf2;" horiz-adv-x="560" 
d="M262 710l82 -141h-85l-102 141h105zM28 245q0 113 71 187q72 74 181 74t180 -74q72 -74 72 -187q0 -114 -72 -187q-71 -74 -180 -74t-181 74q-71 74 -71 187zM120 245q0 -79 46 -128t114 -49t114 49t46 128q0 78 -46 127q-47 50 -114 50t-114 -50q-46 -49 -46 -127z" />
    <glyph glyph-name="oacute" unicode="&#xf3;" horiz-adv-x="560" 
d="M426 710l-102 -141h-85l82 141h105zM28 245q0 113 71 187q72 74 181 74t180 -74q72 -74 72 -187q0 -114 -72 -187q-71 -74 -180 -74t-181 74q-71 74 -71 187zM120 245q0 -79 46 -128t114 -49t114 49t46 128q0 78 -46 127q-47 50 -114 50t-114 -50q-46 -49 -46 -127z" />
    <glyph glyph-name="ocircumflex" unicode="&#xf4;" horiz-adv-x="560" 
d="M221 559h-89l108 141h80l108 -141h-89l-59 69zM28 245q0 113 71 187q72 74 181 74t180 -74q72 -74 72 -187q0 -114 -72 -187q-71 -74 -180 -74t-181 74q-71 74 -71 187zM120 245q0 -79 46 -128t114 -49t114 49t46 128q0 78 -46 127q-47 50 -114 50t-114 -50
q-46 -49 -46 -127z" />
    <glyph glyph-name="otilde" unicode="&#xf5;" horiz-adv-x="560" 
d="M342 559q-29 0 -57 20t-41 20q-28 0 -29 -31h-70q0 48 24 77.5t67 29.5q32 0 58 -20t40 -20q28 0 29 31h70q0 -48 -23 -77.5t-68 -29.5zM28 245q0 113 71 187q72 74 181 74t180 -74q72 -74 72 -187q0 -114 -72 -187q-71 -74 -180 -74t-181 74q-71 74 -71 187zM120 245
q0 -79 46 -128t114 -49t114 49t46 128q0 78 -46 127q-47 50 -114 50t-114 -50q-46 -49 -46 -127z" />
    <glyph glyph-name="odieresis" unicode="&#xf6;" horiz-adv-x="560" 
d="M28 245q0 113 71 187q72 74 181 74t180 -74q72 -74 72 -187q0 -114 -72 -187q-71 -74 -180 -74t-181 74q-71 74 -71 187zM120 245q0 -79 46 -128t114 -49t114 49t46 128q0 78 -46 127q-47 50 -114 50t-114 -50q-46 -49 -46 -127zM253 658q0 -23 -16.5 -40t-40.5 -17
q-22 0 -39.5 17.5t-17.5 39.5q0 24 17 40.5t40 16.5q25 0 41 -16t16 -41zM421 658q0 -23 -16.5 -40t-40.5 -17q-22 0 -39.5 17.5t-17.5 39.5q0 24 17 40.5t40 16.5q25 0 41 -16t16 -41z" />
    <glyph glyph-name="divide" unicode="&#xf7;" horiz-adv-x="550" 
d="M343 454q0 -28 -19.5 -48t-48.5 -20q-28 0 -48 20t-20 48q0 29 20 48.5t48 19.5q29 0 48.5 -19.5t19.5 -48.5zM494 309v-76h-438v76h438zM343 88q0 -28 -19.5 -48t-48.5 -20q-28 0 -48 20t-20 48q0 29 20 48.5t48 19.5q29 0 48.5 -19.5t19.5 -48.5z" />
    <glyph glyph-name="oslash" unicode="&#xf8;" horiz-adv-x="560" 
d="M280 422q-67 0 -114 -50q-46 -49 -46 -127q0 -76 44 -125l180 288q-31 14 -64 14zM280 68q68 0 114 49t46 128q0 75 -42 123l-179 -287q29 -13 61 -13zM532 245q0 -114 -72 -187q-71 -74 -180 -74q-59 0 -107 22l-25 -39l-59 33l27 43q-88 75 -88 202q0 113 71 187
q72 74 181 74q60 0 110 -24l26 42l58 -34l-28 -44q86 -78 86 -201z" />
    <glyph glyph-name="ugrave" unicode="&#xf9;" 
d="M246 710l82 -141h-85l-102 141h105zM486 0h-88v68h-4q-11 -18 -27.5 -33.5t-37 -26.5t-43.5 -17.5t-47 -6.5q-91 0 -139 51t-48 147v308h92v-302q3 -120 121 -120q54 0 92 44q37 44 37 107v271h92v-490z" />
    <glyph glyph-name="uacute" unicode="&#xfa;" 
d="M412 710l-102 -141h-85l82 141h105zM486 0h-88v68h-4q-11 -18 -27.5 -33.5t-37 -26.5t-43.5 -17.5t-47 -6.5q-91 0 -139 51t-48 147v308h92v-302q3 -120 121 -120q54 0 92 44q37 44 37 107v271h92v-490z" />
    <glyph glyph-name="ucircumflex" unicode="&#xfb;" 
d="M486 0h-88v68h-4q-11 -18 -27.5 -33.5t-37 -26.5t-43.5 -17.5t-47 -6.5q-91 0 -139 51t-48 147v308h92v-302q3 -120 121 -120q54 0 92 44q37 44 37 107v271h92v-490zM217 578h-89v5l103 117h80l103 -117v-5h-89l-50 60h-8z" />
    <glyph glyph-name="udieresis" unicode="&#xfc;" 
d="M486 0h-88v68h-4q-11 -18 -27.5 -33.5t-37 -26.5t-43.5 -17.5t-47 -6.5q-91 0 -139 51t-48 147v308h92v-302q3 -120 121 -120q54 0 92 44q37 44 37 107v271h92v-490zM246 659q0 -23 -16.5 -40t-40.5 -17q-22 0 -39.5 17.5t-17.5 39.5q0 24 17 40.5t40 16.5q25 0 41 -16
t16 -41zM414 659q0 -23 -16.5 -40t-40.5 -17q-22 0 -39.5 17.5t-17.5 39.5q0 24 17 40.5t40 16.5q25 0 41 -16t16 -41z" />
    <glyph glyph-name="yacute" unicode="&#xfd;" horiz-adv-x="498" 
d="M386 710l-102 -141h-85l82 141h105zM494 490l-307 -706h-95l114 247l-202 459h100l146 -352h2l142 352h100z" />
    <glyph glyph-name="thorn" unicode="&#xfe;" horiz-adv-x="576" 
d="M300 68q66 0 111 50q45 49 45 127q0 77 -45 127t-111 50q-67 0 -112 -50q-44 -50 -44 -127q0 -78 44 -128q45 -49 112 -49zM315 -16q-54 0 -98.5 23t-68.5 61h-4l4 -68v-216h-92v932h92v-226l-4 -68h4q24 38 68.5 61t98.5 23q97 0 164 -76q69 -77 69 -185
q0 -109 -69 -185q-67 -76 -164 -76z" />
    <glyph glyph-name="ydieresis" unicode="&#xff;" horiz-adv-x="498" 
d="M494 490l-307 -706h-95l114 247l-202 459h100l146 -352h2l142 352h100zM224 659q0 -23 -16.5 -40t-40.5 -17q-22 0 -39.5 17.5t-17.5 39.5q0 24 17 40.5t40 16.5q25 0 41 -16t16 -41zM392 659q0 -23 -16.5 -40t-40.5 -17q-22 0 -39.5 17.5t-17.5 39.5q0 24 17 40.5
t40 16.5q25 0 41 -16t16 -41z" />
    <glyph glyph-name="Abreve" unicode="&#x102;" horiz-adv-x="668" 
d="M333 775q-66 0 -99 34t-33 91h76q0 -32 16.5 -45.5t40.5 -12.5q22 -1 39 12.5t17 45.5h76q0 -57 -33.5 -91t-99.5 -34zM332 603l-117 -323h238l-117 323h-4zM114 0h-102l270 716h104l270 -716h-102l-69 194h-301z" />
    <glyph glyph-name="abreve" unicode="&#x103;" horiz-adv-x="510" 
d="M267 559q-66 0 -99 34t-33 91h76q0 -32 16.5 -45.5t40.5 -12.5q22 -1 39 12.5t17 45.5h76q0 -57 -33.5 -91t-99.5 -34zM123 150q0 -18 8 -33.5t22 -26.5t32.5 -17.5t39.5 -6.5q59 0 103 43q46 43 46 101q-43 34 -120 34q-28 0 -52 -7t-41.5 -20t-27.5 -30t-10 -37z
M242 506q103 0 161.5 -54t58.5 -150v-302h-88v68h-4q-57 -84 -152 -84q-81 0 -136 48q-54 48 -54 120q0 38 15 68.5t42.5 52.5t66.5 33.5t87 11.5q82 0 135 -30v21q0 48 -38 81q-37 34 -89 34q-77 0 -122 -65l-81 51q67 96 198 96z" />
    <glyph glyph-name="Dcroat" unicode="&#x110;" horiz-adv-x="691" 
d="M72 0v310h-69v79h69v327h219q164 0 263 -99q100 -99 100 -259q0 -161 -100 -260q-100 -98 -263 -98h-219zM323 310h-159v-222h127q124 0 197 71q72 72 72 199q0 126 -72 198t-197 72h-127v-239h159v-79z" />
    <glyph glyph-name="dcroat" unicode="&#x111;" horiz-adv-x="576" 
d="M585 568h-65v-568h-88v68h-4q-24 -38 -68.5 -61t-98.5 -23q-96 0 -165 76q-68 77 -68 185t68 185q69 76 165 76q54 0 98.5 -23t68.5 -61h4l-4 68v78h-163v71h163v77h92v-77h65v-71zM276 68q68 0 111 49q45 49 45 128q0 77 -45 127q-44 50 -111 50q-66 0 -111 -50
t-45 -127q0 -78 45 -127q45 -50 111 -50z" />
    <glyph glyph-name="Itilde" unicode="&#x128;" horiz-adv-x="236" 
d="M174 775q-29 0 -57 20t-41 20q-28 0 -29 -31h-70q0 48 24 77.5t67 29.5q32 0 58 -20t40 -20q28 0 29 31h70q0 -48 -23 -77.5t-68 -29.5zM164 0h-92v716h92v-716z" />
    <glyph glyph-name="itilde" unicode="&#x129;" horiz-adv-x="220" 
d="M161 559q-26 0 -52 20t-38 20q-25 0 -26 -31h-64q0 48 22 77.5t61 29.5q30 0 53 -20q25 -20 37 -20q25 0 26 31h64q0 -48 -21.5 -77.5t-61.5 -29.5zM156 490v-490h-92v490h92z" />
    <glyph glyph-name="dotlessi" unicode="&#x131;" horiz-adv-x="220" 
d="M156 490v-490h-92v490h92z" />
    <glyph glyph-name="OE" unicode="&#x152;" horiz-adv-x="1149" 
d="M131 358q0 -124 78 -205q79 -81 196 -81t195 81q79 79 79 205t-79 205q-78 81 -195 81t-196 -81q-78 -81 -78 -205zM1097 0h-418v110q-101 -126 -274 -126q-156 0 -262 108q-106 106 -106 266t106 266q106 108 262 108q172 0 274 -127v111h418v-88h-326v-227h294v-86
h-294v-227h326v-88z" />
    <glyph glyph-name="oe" unicode="&#x153;" horiz-adv-x="952" 
d="M692 -16q-138 0 -205 117q-32 -57 -86 -87t-121 -30q-109 0 -181 74q-71 77 -71 187q0 113 71 187q72 74 181 74q67 0 121.5 -30t86.5 -87q31 57 83 87t115 30q54 0 98 -18t75 -52.5t48 -84.5t17 -113l-1 -10h-387q2 -71 48 -116q47 -44 112 -44q89 0 138 88l82 -40
q-33 -63 -91 -97.5t-133 -34.5zM826 304q-4 51 -41.5 84.5t-100.5 33.5q-52 0 -91 -32t-50 -86h283zM120 245q0 -79 46 -128t114 -49t114 49t46 128q0 78 -46 127q-47 50 -114 50t-114 -50q-46 -49 -46 -127z" />
    <glyph glyph-name="Utilde" unicode="&#x168;" horiz-adv-x="642" 
d="M378 775q-29 0 -57 20t-41 20q-28 0 -29 -31h-70q0 48 24 77.5t67 29.5q32 0 58 -20t40 -20q28 0 29 31h70q0 -48 -23 -77.5t-68 -29.5zM321 -16q-119 0 -192 78q-73 76 -73 204v450h92v-454q0 -88 46 -139t127 -51t127 51t46 139v454h92v-450q0 -130 -72 -206t-193 -76z
" />
    <glyph glyph-name="utilde" unicode="&#x169;" 
d="M324 559q-29 0 -57 20t-41 20q-28 0 -29 -31h-70q0 48 24 77.5t67 29.5q32 0 58 -20t40 -20q28 0 29 31h70q0 -48 -23 -77.5t-68 -29.5zM486 0h-88v68h-4q-11 -18 -27.5 -33.5t-37 -26.5t-43.5 -17.5t-47 -6.5q-91 0 -139 51t-48 147v308h92v-302q3 -120 121 -120
q54 0 92 44q37 44 37 107v271h92v-490z" />
    <glyph glyph-name="Ohorn" unicode="&#x1a0;" horiz-adv-x="810" 
d="M773 358q0 -160 -106 -266q-107 -108 -262 -108q-156 0 -262 108q-106 106 -106 266t106 266q106 108 262 108q56 0 102 -13q15 -2 25.5 -3t15.5 -2h18.5t24.5 1q61 0 60 77l75 -25q-2 -59 -35 -90q-22 -20 -52 -28q7 -6 14 -12.5t14 -13.5q106 -106 106 -265zM131 358
q0 -124 78 -205q79 -81 196 -81t195 81q79 79 79 205t-79 205q-78 81 -195 81t-196 -81q-78 -81 -78 -205z" />
    <glyph glyph-name="ohorn" unicode="&#x1a1;" horiz-adv-x="560" 
d="M28 245q0 113 71 187q72 74 181 74q45 0 85 -14q7 -1 12 -1.5t9 -0.5q8 -1 15 -1h14q61 0 60 77l75 -25q-2 -59 -35 -90q-20 -20 -48 -27q65 -73 65 -179q0 -114 -72 -187q-71 -74 -180 -74t-181 74q-71 74 -71 187zM120 245q0 -79 46 -128t114 -49t114 49t46 128
q0 78 -46 127q-47 50 -114 50t-114 -50q-46 -49 -46 -127z" />
    <glyph glyph-name="Uhorn" unicode="&#x1af;" horiz-adv-x="642" 
d="M321 -16q-119 0 -192 78q-73 76 -73 204v450h92v-454q0 -88 46 -139t127 -51t127 51t46 139v454h72q20 3 32 17q16 19 15 59l75 -25q-2 -59 -35 -90q-28 -27 -67 -31v-380q0 -130 -72 -206t-193 -76z" />
    <glyph glyph-name="uhorn" unicode="&#x1b0;" 
d="M486 0h-88v68h-4q-11 -18 -27.5 -33.5t-37 -26.5t-43.5 -17.5t-47 -6.5q-91 0 -139 51t-48 147v308h92v-302q3 -120 121 -120q54 0 92 44q37 44 37 107v271h72q20 3 32 17q16 19 15 59l75 -25q-2 -59 -35 -90q-28 -27 -67 -31v-420z" />
    <glyph glyph-name="circumflex" unicode="&#x2c6;" horiz-adv-x="400" 
d="M146 594h-89v5l103 117h80l103 -117v-5h-89l-50 60h-8z" />
    <glyph glyph-name="ring" unicode="&#x2da;" horiz-adv-x="400" 
d="M96 672q0 22 8 41t22.5 33t33.5 22t40 8t40 -8t33.5 -22.5t22.5 -33.5t8 -40t-8 -40t-22.5 -33.5t-33.5 -22.5t-40 -8t-40 8t-33.5 22.5t-22.5 33.5t-8 40zM156 672q0 -18 13 -31.5t31 -13.5t31 13.5t13 31.5t-13 31t-31 13t-31 -13t-13 -31z" />
    <glyph glyph-name="tilde" unicode="&#x2dc;" horiz-adv-x="400" 
d="M257 594q-24 0 -67 22q-43 23 -49 23q-31 0 -33 -35h-76q0 54 32.5 86t78.5 32q28 0 81 -30q30 -15 35 -15q31 0 33 35h76q0 -54 -32.5 -86t-78.5 -32z" />
    <glyph glyph-name="uni1EA0" unicode="&#x1ea0;" horiz-adv-x="668" 
d="M396 -154q0 -24 -18 -42t-44 -18q-24 0 -42 18t-18 42q0 26 18 44t42 18q26 0 44 -18t18 -44zM332 603l-117 -323h238l-117 323h-4zM114 0h-102l270 716h104l270 -716h-102l-69 194h-301z" />
    <glyph glyph-name="uni1EA1" unicode="&#x1ea1;" horiz-adv-x="510" 
d="M307 -154q0 -24 -18 -42t-44 -18q-24 0 -42 18t-18 42q0 26 18 44t42 18q26 0 44 -18t18 -44zM123 150q0 -18 8 -33.5t22 -26.5t32.5 -17.5t39.5 -6.5q59 0 103 43q46 43 46 101q-43 34 -120 34q-28 0 -52 -7t-41.5 -20t-27.5 -30t-10 -37zM242 506q103 0 161.5 -54
t58.5 -150v-302h-88v68h-4q-57 -84 -152 -84q-81 0 -136 48q-54 48 -54 120q0 38 15 68.5t42.5 52.5t66.5 33.5t87 11.5q82 0 135 -30v21q0 48 -38 81q-37 34 -89 34q-77 0 -122 -65l-81 51q67 96 198 96z" />
    <glyph glyph-name="uni1EA2" unicode="&#x1ea2;" horiz-adv-x="668" 
d="M304 785q0 11 2.5 23t7.5 20q5 9 13 15.5l16 13t14 13.5t6 18q0 8 -7 15t-21 7t-23 -4t-20 -22l-57 22q14 35 39.5 50.5t63.5 15.5q48 0 73 -22t25 -57q0 -28 -12 -43t-25 -25q-8 -8 -17 -16t-11 -24h-67zM332 603l-117 -323h238l-117 323h-4zM114 0h-102l270 716h104
l270 -716h-102l-69 194h-301z" />
    <glyph glyph-name="uni1EA3" unicode="&#x1ea3;" horiz-adv-x="510" 
d="M236 569q0 11 2.5 23t7.5 20q5 9 13 15.5l16 13t14 13.5t6 18q0 8 -7 15t-21 7t-23 -4t-20 -22l-57 22q14 35 39.5 50.5t63.5 15.5q48 0 73 -22t25 -57q0 -28 -12 -43t-25 -25q-8 -8 -17 -16t-11 -24h-67zM123 150q0 -18 8 -33.5t22 -26.5t32.5 -17.5t39.5 -6.5
q59 0 103 43q46 43 46 101q-43 34 -120 34q-28 0 -52 -7t-41.5 -20t-27.5 -30t-10 -37zM242 506q103 0 161.5 -54t58.5 -150v-302h-88v68h-4q-57 -84 -152 -84q-81 0 -136 48q-54 48 -54 120q0 38 15 68.5t42.5 52.5t66.5 33.5t87 11.5q82 0 135 -30v21q0 48 -38 81
q-37 34 -89 34q-77 0 -122 -65l-81 51q67 96 198 96z" />
    <glyph glyph-name="uni1EA4" unicode="&#x1ea4;" horiz-adv-x="668" 
d="M275 775h-89l108 126h80l108 -126h-89l-59 62zM332 603l-117 -323h238l-117 323h-4zM114 0h-102l270 716h104l270 -716h-102l-69 194h-301zM600 990l-83 -113h-80l63 113h100z" />
    <glyph glyph-name="uni1EA5" unicode="&#x1ea5;" horiz-adv-x="510" 
d="M192 559h-89l108 126h80l108 -126h-89l-59 62zM123 150q0 -18 8 -33.5t22 -26.5t32.5 -17.5t39.5 -6.5q59 0 103 43q46 43 46 101q-43 34 -120 34q-28 0 -52 -7t-41.5 -20t-27.5 -30t-10 -37zM242 506q103 0 161.5 -54t58.5 -150v-302h-88v68h-4q-57 -84 -152 -84
q-81 0 -136 48q-54 48 -54 120q0 38 15 68.5t42.5 52.5t66.5 33.5t87 11.5q82 0 135 -30v21q0 48 -38 81q-37 34 -89 34q-77 0 -122 -65l-81 51q67 96 198 96zM517 774l-83 -113h-80l63 113h100z" />
    <glyph glyph-name="uni1EA6" unicode="&#x1ea6;" horiz-adv-x="668" 
d="M469 990l63 -113h-80l-83 113h100zM275 775h-89l108 126h80l108 -126h-89l-59 62zM332 603l-117 -323h238l-117 323h-4zM114 0h-102l270 716h104l270 -716h-102l-69 194h-301z" />
    <glyph glyph-name="uni1EA7" unicode="&#x1ea7;" horiz-adv-x="510" 
d="M192 559h-89l108 126h80l108 -126h-89l-59 62zM123 150q0 -18 8 -33.5t22 -26.5t32.5 -17.5t39.5 -6.5q59 0 103 43q46 43 46 101q-43 34 -120 34q-28 0 -52 -7t-41.5 -20t-27.5 -30t-10 -37zM242 506q103 0 161.5 -54t58.5 -150v-302h-88v68h-4q-57 -84 -152 -84
q-81 0 -136 48q-54 48 -54 120q0 38 15 68.5t42.5 52.5t66.5 33.5t87 11.5q82 0 135 -30v21q0 48 -38 81q-37 34 -89 34q-77 0 -122 -65l-81 51q67 96 198 96zM386 774l63 -113h-80l-83 113h100z" />
    <glyph glyph-name="uni1EA8" unicode="&#x1ea8;" horiz-adv-x="668" 
d="M275 775h-89l108 126h80l108 -126h-89l-59 62zM447 867q0 9 2.5 18t7.5 16t13 12.5t16 10.5t13.5 11t5.5 14q0 15 -27 15q-6 0 -16 -1.5t-20 -16.5l-59 18q14 28 39 40.5t62 12.5q48 0 72 -17t24 -46q0 -23 -11.5 -35t-23.5 -19q-8 -7 -17.5 -13.5t-11.5 -19.5h-69z
M332 603l-117 -323h238l-117 323h-4zM114 0h-102l270 716h104l270 -716h-102l-69 194h-301z" />
    <glyph glyph-name="uni1EA9" unicode="&#x1ea9;" horiz-adv-x="510" 
d="M192 559h-89l108 126h80l108 -126h-89l-59 62zM123 150q0 -18 8 -33.5t22 -26.5t32.5 -17.5t39.5 -6.5q59 0 103 43q46 43 46 101q-43 34 -120 34q-28 0 -52 -7t-41.5 -20t-27.5 -30t-10 -37zM242 506q103 0 161.5 -54t58.5 -150v-302h-88v68h-4q-57 -84 -152 -84
q-81 0 -136 48q-54 48 -54 120q0 38 15 68.5t42.5 52.5t66.5 33.5t87 11.5q82 0 135 -30v21q0 48 -38 81q-37 34 -89 34q-77 0 -122 -65l-81 51q67 96 198 96zM364 651q0 9 2.5 18t7.5 16t13 12.5t16 10.5t13.5 11t5.5 14q0 15 -27 15q-6 0 -16 -1.5t-20 -16.5l-59 18
q14 28 39 40.5t62 12.5q48 0 72 -17t24 -46q0 -23 -11.5 -35t-23.5 -19q-8 -7 -17.5 -13.5t-11.5 -19.5h-69z" />
    <glyph glyph-name="uni1EAA" unicode="&#x1eaa;" horiz-adv-x="668" 
d="M275 775h-89l108 116h80l108 -116h-89l-59 57zM390 917q-31 0 -56 18q-26 18 -40 18q-26 0 -28 -29h-69q0 42 23.5 67t65.5 25q33 0 57 -18q25 -18 39 -18q27 0 28 28h69q0 -42 -23 -66.5t-66 -24.5zM332 603l-117 -323h238l-117 323h-4zM114 0h-102l270 716h104
l270 -716h-102l-69 194h-301z" />
    <glyph glyph-name="uni1EAB" unicode="&#x1eab;" horiz-adv-x="510" 
d="M123 150q0 -18 8 -33.5t22 -26.5t32.5 -17.5t39.5 -6.5q59 0 103 43q46 43 46 101q-43 34 -120 34q-28 0 -52 -7t-41.5 -20t-27.5 -30t-10 -37zM242 506q103 0 161.5 -54t58.5 -150v-302h-88v68h-4q-57 -84 -152 -84q-81 0 -136 48q-54 48 -54 120q0 38 15 68.5
t42.5 52.5t66.5 33.5t87 11.5q82 0 135 -30v21q0 48 -38 81q-37 34 -89 34q-77 0 -122 -65l-81 51q67 96 198 96zM192 559h-89l108 116h80l108 -116h-89l-59 57zM307 705q-31 0 -56 18q-26 18 -40 18q-26 0 -28 -29h-69q0 42 23.5 67t65.5 25q33 0 57 -18q25 -18 39 -18
q27 0 28 28h69q0 -42 -23 -66.5t-66 -24.5z" />
    <glyph glyph-name="uni1EAC" unicode="&#x1eac;" horiz-adv-x="668" 
d="M396 -154q0 -24 -18 -42t-44 -18q-24 0 -42 18t-18 42q0 26 18 44t42 18q26 0 44 -18t18 -44zM275 775h-89l108 141h80l108 -141h-89l-59 69zM332 603l-117 -323h238l-117 323h-4zM114 0h-102l270 716h104l270 -716h-102l-69 194h-301z" />
    <glyph glyph-name="uni1EAD" unicode="&#x1ead;" horiz-adv-x="510" 
d="M307 -154q0 -24 -18 -42t-44 -18q-24 0 -42 18t-18 42q0 26 18 44t42 18q26 0 44 -18t18 -44zM192 559h-89l108 141h80l108 -141h-89l-59 69zM123 150q0 -18 8 -33.5t22 -26.5t32.5 -17.5t39.5 -6.5q59 0 103 43q46 43 46 101q-43 34 -120 34q-28 0 -52 -7t-41.5 -20
t-27.5 -30t-10 -37zM242 506q103 0 161.5 -54t58.5 -150v-302h-88v68h-4q-57 -84 -152 -84q-81 0 -136 48q-54 48 -54 120q0 38 15 68.5t42.5 52.5t66.5 33.5t87 11.5q82 0 135 -30v21q0 48 -38 81q-37 34 -89 34q-77 0 -122 -65l-81 51q67 96 198 96z" />
    <glyph glyph-name="uni1EAE" unicode="&#x1eae;" horiz-adv-x="668" 
d="M333 775q-66 0 -99 30t-33 78h76q0 -28 16.5 -39.5t40.5 -10.5q22 -1 39 10.5t17 39.5h76q0 -48 -33.5 -78t-99.5 -30zM332 603l-117 -323h238l-117 323h-4zM114 0h-102l270 716h104l270 -716h-102l-69 194h-301zM455 1022l-83 -113h-85l63 113h105z" />
    <glyph glyph-name="uni1EAF" unicode="&#x1eaf;" horiz-adv-x="510" 
d="M267 559q-66 0 -99 30t-33 78h76q0 -28 16.5 -39.5t40.5 -10.5q22 -1 39 10.5t17 39.5h76q0 -48 -33.5 -78t-99.5 -30zM389 806l-83 -113h-85l63 113h105zM123 150q0 -18 8 -33.5t22 -26.5t32.5 -17.5t39.5 -6.5q59 0 103 43q46 43 46 101q-43 34 -120 34q-28 0 -52 -7
t-41.5 -20t-27.5 -30t-10 -37zM242 506q103 0 161.5 -54t58.5 -150v-302h-88v68h-4q-57 -84 -152 -84q-81 0 -136 48q-54 48 -54 120q0 38 15 68.5t42.5 52.5t66.5 33.5t87 11.5q82 0 135 -30v21q0 48 -38 81q-37 34 -89 34q-77 0 -122 -65l-81 51q67 96 198 96z" />
    <glyph glyph-name="uni1EB0" unicode="&#x1eb0;" horiz-adv-x="668" 
d="M318 1022l63 -113h-85l-83 113h105zM333 775q-66 0 -99 30t-33 78h76q0 -28 16.5 -39.5t40.5 -10.5q22 -1 39 10.5t17 39.5h76q0 -48 -33.5 -78t-99.5 -30zM332 603l-117 -323h238l-117 323h-4zM114 0h-102l270 716h104l270 -716h-102l-69 194h-301z" />
    <glyph glyph-name="uni1EB1" unicode="&#x1eb1;" horiz-adv-x="510" 
d="M267 559q-66 0 -99 30t-33 78h76q0 -28 16.5 -39.5t40.5 -10.5q22 -1 39 10.5t17 39.5h76q0 -48 -33.5 -78t-99.5 -30zM123 150q0 -18 8 -33.5t22 -26.5t32.5 -17.5t39.5 -6.5q59 0 103 43q46 43 46 101q-43 34 -120 34q-28 0 -52 -7t-41.5 -20t-27.5 -30t-10 -37z
M242 506q103 0 161.5 -54t58.5 -150v-302h-88v68h-4q-57 -84 -152 -84q-81 0 -136 48q-54 48 -54 120q0 38 15 68.5t42.5 52.5t66.5 33.5t87 11.5q82 0 135 -30v21q0 48 -38 81q-37 34 -89 34q-77 0 -122 -65l-81 51q67 96 198 96zM250 806l63 -113h-85l-83 113h105z" />
    <glyph glyph-name="uni1EB2" unicode="&#x1eb2;" horiz-adv-x="668" 
d="M333 775q-66 0 -99 28.5t-33 74.5h76q0 -27 16.5 -38t40.5 -10q22 -1 39 10t17 38h76q0 -46 -33.5 -74.5t-99.5 -28.5zM332 603l-117 -323h238l-117 323h-4zM114 0h-102l270 716h104l270 -716h-102l-69 194h-301zM301 890q0 8 2.5 16.5t7.5 14.5t12 11l14 10t11.5 10
t4.5 13q0 6 -6.5 11t-19.5 5q-4 0 -13 -2.5t-19 -16.5l-59 17q14 26 39 37t62 11q48 0 72 -16t24 -42q0 -20 -12 -31t-24 -18q-8 -6 -16.5 -12.5t-10.5 -17.5h-69z" />
    <glyph glyph-name="uni1EB3" unicode="&#x1eb3;" horiz-adv-x="510" 
d="M123 150q0 -18 8 -33.5t22 -26.5t32.5 -17.5t39.5 -6.5q59 0 103 43q46 43 46 101q-43 34 -120 34q-28 0 -52 -7t-41.5 -20t-27.5 -30t-10 -37zM242 506q103 0 161.5 -54t58.5 -150v-302h-88v68h-4q-57 -84 -152 -84q-81 0 -136 48q-54 48 -54 120q0 38 15 68.5
t42.5 52.5t66.5 33.5t87 11.5q82 0 135 -30v21q0 48 -38 81q-37 34 -89 34q-77 0 -122 -65l-81 51q67 96 198 96zM267 559q-66 0 -99 28.5t-33 74.5h76q0 -27 16.5 -38t40.5 -10q22 -1 39 10t17 38h76q0 -46 -33.5 -74.5t-99.5 -28.5zM235 674q0 8 2.5 16.5t7.5 14.5t12 11
l14 10t11.5 10t4.5 13q0 6 -6.5 11t-19.5 5q-4 0 -13 -2.5t-19 -16.5l-59 17q14 26 39 37t62 11q48 0 72 -16t24 -42q0 -20 -12 -31t-24 -18q-8 -6 -16.5 -12.5t-10.5 -17.5h-69z" />
    <glyph glyph-name="uni1EB4" unicode="&#x1eb4;" horiz-adv-x="668" 
d="M333 775q-66 0 -99 30t-33 78h76q0 -28 16.5 -39.5t40.5 -10.5q22 -1 39 10.5t17 39.5h76q0 -48 -33.5 -78t-99.5 -30zM332 603l-117 -323h238l-117 323h-4zM114 0h-102l270 716h104l270 -716h-102l-69 194h-301zM391 906q-30 0 -56 16q-26 17 -39 17q-27 0 -28 -25h-68
q0 40 23 64t65 24q31 0 57 -17q25 -16 38 -16q27 0 28 25h68q0 -40 -23 -64t-65 -24z" />
    <glyph glyph-name="uni1EB5" unicode="&#x1eb5;" horiz-adv-x="510" 
d="M267 559q-66 0 -99 30t-33 78h76q0 -28 16.5 -39.5t40.5 -10.5q22 -1 39 10.5t17 39.5h76q0 -48 -33.5 -78t-99.5 -30zM123 150q0 -18 8 -33.5t22 -26.5t32.5 -17.5t39.5 -6.5q59 0 103 43q46 43 46 101q-43 34 -120 34q-28 0 -52 -7t-41.5 -20t-27.5 -30t-10 -37z
M242 506q103 0 161.5 -54t58.5 -150v-302h-88v68h-4q-57 -84 -152 -84q-81 0 -136 48q-54 48 -54 120q0 38 15 68.5t42.5 52.5t66.5 33.5t87 11.5q82 0 135 -30v21q0 48 -38 81q-37 34 -89 34q-77 0 -122 -65l-81 51q67 96 198 96zM325 699q-30 0 -56 16q-26 17 -39 17
q-27 0 -28 -25h-68q0 40 23 64t65 24q31 0 57 -17q25 -16 38 -16q27 0 28 25h68q0 -40 -23 -64t-65 -24z" />
    <glyph glyph-name="uni1EB6" unicode="&#x1eb6;" horiz-adv-x="668" 
d="M396 -154q0 -24 -18 -42t-44 -18q-24 0 -42 18t-18 42q0 26 18 44t42 18q26 0 44 -18t18 -44zM333 775q-66 0 -99 34t-33 91h76q0 -32 16.5 -45.5t40.5 -12.5q22 -1 39 12.5t17 45.5h76q0 -57 -33.5 -91t-99.5 -34zM332 603l-117 -323h238l-117 323h-4zM114 0h-102
l270 716h104l270 -716h-102l-69 194h-301z" />
    <glyph glyph-name="uni1EB7" unicode="&#x1eb7;" horiz-adv-x="510" 
d="M307 -154q0 -24 -18 -42t-44 -18q-24 0 -42 18t-18 42q0 26 18 44t42 18q26 0 44 -18t18 -44zM267 559q-66 0 -99 34t-33 91h76q0 -32 16.5 -45.5t40.5 -12.5q22 -1 39 12.5t17 45.5h76q0 -57 -33.5 -91t-99.5 -34zM123 150q0 -18 8 -33.5t22 -26.5t32.5 -17.5t39.5 -6.5
q59 0 103 43q46 43 46 101q-43 34 -120 34q-28 0 -52 -7t-41.5 -20t-27.5 -30t-10 -37zM242 506q103 0 161.5 -54t58.5 -150v-302h-88v68h-4q-57 -84 -152 -84q-81 0 -136 48q-54 48 -54 120q0 38 15 68.5t42.5 52.5t66.5 33.5t87 11.5q82 0 135 -30v21q0 48 -38 81
q-37 34 -89 34q-77 0 -122 -65l-81 51q67 96 198 96z" />
    <glyph glyph-name="uni1EB8" unicode="&#x1eb8;" 
d="M340 -154q0 -24 -18 -42t-44 -18q-24 0 -42 18t-18 42q0 26 18 44t42 18q26 0 44 -18t18 -44zM490 716v-88h-326v-227h294v-86h-294v-227h326v-88h-418v716h418z" />
    <glyph glyph-name="uni1EB9" unicode="&#x1eb9;" horiz-adv-x="536" 
d="M337 -154q0 -24 -18 -42t-44 -18q-24 0 -42 18t-18 42q0 26 18 44t42 18q26 0 44 -18t18 -44zM276 -16q-107 0 -178 74q-70 73 -70 187q0 112 68 186q67 75 174 75q54 0 98 -18t75 -52.5t48 -84.5t17 -113l-1 -10h-385q2 -73 48 -116q47 -44 110 -44q89 0 138 88l82 -40
q-33 -63 -91 -97.5t-133 -34.5zM410 304q-4 51 -41.5 84.5t-100.5 33.5q-52 0 -89.5 -32t-49.5 -86h281z" />
    <glyph glyph-name="uni1EBA" unicode="&#x1eba;" 
d="M254 785q0 11 2.5 23t7.5 20q5 9 13 15.5l16 13t14 13.5t6 18q0 8 -7 15t-21 7t-23 -4t-20 -22l-57 22q14 35 39.5 50.5t63.5 15.5q48 0 73 -22t25 -57q0 -28 -12 -43t-25 -25q-8 -8 -17 -16t-11 -24h-67zM490 716v-88h-326v-227h294v-86h-294v-227h326v-88h-418v716h418
z" />
    <glyph glyph-name="uni1EBB" unicode="&#x1ebb;" horiz-adv-x="536" 
d="M254 569q0 11 2.5 23t7.5 20q5 9 13 15.5l16 13t14 13.5t6 18q0 8 -7 15t-21 7t-23 -4t-20 -22l-57 22q14 35 39.5 50.5t63.5 15.5q48 0 73 -22t25 -57q0 -28 -12 -43t-25 -25q-8 -8 -17 -16t-11 -24h-67zM276 -16q-107 0 -178 74q-70 73 -70 187q0 112 68 186
q67 75 174 75q54 0 98 -18t75 -52.5t48 -84.5t17 -113l-1 -10h-385q2 -73 48 -116q47 -44 110 -44q89 0 138 88l82 -40q-33 -63 -91 -97.5t-133 -34.5zM410 304q-4 51 -41.5 84.5t-100.5 33.5q-52 0 -89.5 -32t-49.5 -86h281z" />
    <glyph glyph-name="uni1EBC" unicode="&#x1ebc;" 
d="M339 775q-29 0 -57 20t-41 20q-28 0 -29 -31h-70q0 48 24 77.5t67 29.5q32 0 58 -20t40 -20q28 0 29 31h70q0 -48 -23 -77.5t-68 -29.5zM490 716v-88h-326v-227h294v-86h-294v-227h326v-88h-418v716h418z" />
    <glyph glyph-name="uni1EBD" unicode="&#x1ebd;" horiz-adv-x="536" 
d="M337 559q-29 0 -57 20t-41 20q-28 0 -29 -31h-70q0 48 24 77.5t67 29.5q32 0 58 -20t40 -20q28 0 29 31h70q0 -48 -23 -77.5t-68 -29.5zM276 -16q-107 0 -178 74q-70 73 -70 187q0 112 68 186q67 75 174 75q54 0 98 -18t75 -52.5t48 -84.5t17 -113l-1 -10h-385
q2 -73 48 -116q47 -44 110 -44q89 0 138 88l82 -40q-33 -63 -91 -97.5t-133 -34.5zM410 304q-4 51 -41.5 84.5t-100.5 33.5q-52 0 -89.5 -32t-49.5 -86h281z" />
    <glyph glyph-name="uni1EBE" unicode="&#x1ebe;" 
d="M221 775h-89l108 126h80l108 -126h-89l-59 62zM546 990l-83 -113h-80l63 113h100zM490 716v-88h-326v-227h294v-86h-294v-227h326v-88h-418v716h418z" />
    <glyph glyph-name="uni1EBF" unicode="&#x1ebf;" horiz-adv-x="536" 
d="M215 559h-89l108 126h80l108 -126h-89l-59 62zM540 774l-83 -113h-80l63 113h100zM276 -16q-107 0 -178 74q-70 73 -70 187q0 112 68 186q67 75 174 75q54 0 98 -18t75 -52.5t48 -84.5t17 -113l-1 -10h-385q2 -73 48 -116q47 -44 110 -44q89 0 138 88l82 -40
q-33 -63 -91 -97.5t-133 -34.5zM410 304q-4 51 -41.5 84.5t-100.5 33.5q-52 0 -89.5 -32t-49.5 -86h281z" />
    <glyph glyph-name="uni1EC0" unicode="&#x1ec0;" 
d="M415 990l63 -113h-80l-83 113h100zM221 775h-89l108 126h80l108 -126h-89l-59 62zM490 716v-88h-326v-227h294v-86h-294v-227h326v-88h-418v716h418z" />
    <glyph glyph-name="uni1EC1" unicode="&#x1ec1;" horiz-adv-x="536" 
d="M409 774l63 -113h-80l-83 113h100zM215 559h-89l108 126h80l108 -126h-89l-59 62zM276 -16q-107 0 -178 74q-70 73 -70 187q0 112 68 186q67 75 174 75q54 0 98 -18t75 -52.5t48 -84.5t17 -113l-1 -10h-385q2 -73 48 -116q47 -44 110 -44q89 0 138 88l82 -40
q-33 -63 -91 -97.5t-133 -34.5zM410 304q-4 51 -41.5 84.5t-100.5 33.5q-52 0 -89.5 -32t-49.5 -86h281z" />
    <glyph glyph-name="uni1EC2" unicode="&#x1ec2;" 
d="M221 775h-89l108 126h80l108 -126h-89l-59 62zM490 716v-88h-326v-227h294v-86h-294v-227h326v-88h-418v716h418zM393 867q0 9 2.5 18t7.5 16t13 12.5t16 10.5t13.5 11t5.5 14q0 15 -27 15q-6 0 -16 -1.5t-20 -16.5l-59 18q14 28 39 40.5t62 12.5q48 0 72 -17t24 -46
q0 -23 -11.5 -35t-23.5 -19q-8 -7 -17.5 -13.5t-11.5 -19.5h-69z" />
    <glyph glyph-name="uni1EC3" unicode="&#x1ec3;" horiz-adv-x="536" 
d="M215 559h-89l108 126h80l108 -126h-89l-59 62zM276 -16q-107 0 -178 74q-70 73 -70 187q0 112 68 186q67 75 174 75q54 0 98 -18t75 -52.5t48 -84.5t17 -113l-1 -10h-385q2 -73 48 -116q47 -44 110 -44q89 0 138 88l82 -40q-33 -63 -91 -97.5t-133 -34.5zM410 304
q-4 51 -41.5 84.5t-100.5 33.5q-52 0 -89.5 -32t-49.5 -86h281zM387 651q0 9 2.5 18t7.5 16t13 12.5t16 10.5t13.5 11t5.5 14q0 15 -27 15q-6 0 -16 -1.5t-20 -16.5l-59 18q14 28 39 40.5t62 12.5q48 0 72 -17t24 -46q0 -23 -11.5 -35t-23.5 -19q-8 -7 -17.5 -13.5
t-11.5 -19.5h-69z" />
    <glyph glyph-name="uni1EC4" unicode="&#x1ec4;" 
d="M221 775h-89l108 116h80l108 -116h-89l-59 57zM336 917q-31 0 -56 18q-26 18 -40 18q-26 0 -28 -29h-69q0 42 23.5 67t65.5 25q33 0 57 -18q25 -18 39 -18q27 0 28 28h69q0 -42 -23 -66.5t-66 -24.5zM490 716v-88h-326v-227h294v-86h-294v-227h326v-88h-418v716h418z" />
    <glyph glyph-name="uni1EC5" unicode="&#x1ec5;" horiz-adv-x="536" 
d="M215 559h-89l108 116h80l108 -116h-89l-59 57zM330 705q-31 0 -56 18q-26 18 -40 18q-26 0 -28 -29h-69q0 42 23.5 67t65.5 25q33 0 57 -18q25 -18 39 -18q27 0 28 28h69q0 -42 -23 -66.5t-66 -24.5zM276 -16q-107 0 -178 74q-70 73 -70 187q0 112 68 186q67 75 174 75
q54 0 98 -18t75 -52.5t48 -84.5t17 -113l-1 -10h-385q2 -73 48 -116q47 -44 110 -44q89 0 138 88l82 -40q-33 -63 -91 -97.5t-133 -34.5zM410 304q-4 51 -41.5 84.5t-100.5 33.5q-52 0 -89.5 -32t-49.5 -86h281z" />
    <glyph glyph-name="uni1EC6" unicode="&#x1ec6;" 
d="M340 -154q0 -24 -18 -42t-44 -18q-24 0 -42 18t-18 42q0 26 18 44t42 18q26 0 44 -18t18 -44zM221 775h-89l108 141h80l108 -141h-89l-59 69zM490 716v-88h-326v-227h294v-86h-294v-227h326v-88h-418v716h418z" />
    <glyph glyph-name="uni1EC7" unicode="&#x1ec7;" horiz-adv-x="536" 
d="M337 -154q0 -24 -18 -42t-44 -18q-24 0 -42 18t-18 42q0 26 18 44t42 18q26 0 44 -18t18 -44zM215 559h-89l108 141h80l108 -141h-89l-59 69zM276 -16q-107 0 -178 74q-70 73 -70 187q0 112 68 186q67 75 174 75q54 0 98 -18t75 -52.5t48 -84.5t17 -113l-1 -10h-385
q2 -73 48 -116q47 -44 110 -44q89 0 138 88l82 -40q-33 -63 -91 -97.5t-133 -34.5zM410 304q-4 51 -41.5 84.5t-100.5 33.5q-52 0 -89.5 -32t-49.5 -86h281z" />
    <glyph glyph-name="uni1EC8" unicode="&#x1ec8;" horiz-adv-x="236" 
d="M84 785q0 11 2.5 23t7.5 20q5 9 13 15.5l16 13t14 13.5t6 18q0 8 -7 15t-21 7t-23 -4t-20 -22l-57 22q14 35 39.5 50.5t63.5 15.5q48 0 73 -22t25 -57q0 -28 -12 -43t-25 -25q-8 -8 -17 -16t-11 -24h-67zM164 0h-92v716h92v-716z" />
    <glyph glyph-name="uni1EC9" unicode="&#x1ec9;" horiz-adv-x="220" 
d="M76 569q0 11 2.5 23t7.5 20q5 9 13 15.5l16 13t14 13.5t6 18q0 8 -7 15t-21 7t-23 -4t-20 -22l-57 22q14 35 39.5 50.5t63.5 15.5q48 0 73 -22t25 -57q0 -28 -12 -43t-25 -25q-8 -8 -17 -16t-11 -24h-67zM156 490v-490h-92v490h92z" />
    <glyph glyph-name="uni1ECA" unicode="&#x1eca;" horiz-adv-x="236" 
d="M164 0h-92v716h92v-716zM179 -154q0 -24 -18 -42t-44 -18q-24 0 -42 18t-18 42q0 26 18 44t42 18q26 0 44 -18t18 -44z" />
    <glyph glyph-name="uni1ECB" unicode="&#x1ecb;" horiz-adv-x="220" 
d="M172 -154q0 -24 -18 -42t-44 -18q-24 0 -42 18t-18 42q0 26 18 44t42 18q26 0 44 -18t18 -44zM156 490v-490h-92v490h92zM172 634q0 -24 -18 -42t-44 -18q-24 0 -42 18t-18 42q0 26 18 44t42 18q26 0 44 -18t18 -44z" />
    <glyph glyph-name="uni1ECC" unicode="&#x1ecc;" horiz-adv-x="810" 
d="M467 -154q0 -24 -18 -42t-44 -18q-24 0 -42 18t-18 42q0 26 18 44t42 18q26 0 44 -18t18 -44zM773 358q0 -160 -106 -266q-107 -108 -262 -108q-156 0 -262 108q-106 106 -106 266t106 266q106 108 262 108t262 -109q106 -106 106 -265zM131 358q0 -124 78 -205
q79 -81 196 -81t195 81q79 79 79 205t-79 205q-78 81 -195 81t-196 -81q-78 -81 -78 -205z" />
    <glyph glyph-name="uni1ECD" unicode="&#x1ecd;" horiz-adv-x="560" 
d="M342 -154q0 -24 -18 -42t-44 -18q-24 0 -42 18t-18 42q0 26 18 44t42 18q26 0 44 -18t18 -44zM28 245q0 113 71 187q72 74 181 74t180 -74q72 -74 72 -187q0 -114 -72 -187q-71 -74 -180 -74t-181 74q-71 74 -71 187zM120 245q0 -79 46 -128t114 -49t114 49t46 128
q0 78 -46 127q-47 50 -114 50t-114 -50q-46 -49 -46 -127z" />
    <glyph glyph-name="uni1ECE" unicode="&#x1ece;" horiz-adv-x="810" 
d="M773 358q0 -160 -106 -266q-107 -108 -262 -108q-156 0 -262 108q-106 106 -106 266t106 266q106 108 262 108t262 -109q106 -106 106 -265zM131 358q0 -124 78 -205q79 -81 196 -81t195 81q79 79 79 205t-79 205q-78 81 -195 81t-196 -81q-78 -81 -78 -205zM385 785
q0 11 2.5 23t7.5 20q5 9 13 15.5l16 13t14 13.5t6 18q0 8 -7 15t-21 7t-23 -4t-20 -22l-57 22q14 35 39.5 50.5t63.5 15.5q48 0 73 -22t25 -57q0 -28 -12 -43t-25 -25q-8 -8 -17 -16t-11 -24h-67z" />
    <glyph glyph-name="uni1ECF" unicode="&#x1ecf;" horiz-adv-x="560" 
d="M256 569q0 11 2.5 23t7.5 20q5 9 13 15.5l16 13t14 13.5t6 18q0 8 -7 15t-21 7t-23 -4t-20 -22l-57 22q14 35 39.5 50.5t63.5 15.5q48 0 73 -22t25 -57q0 -28 -12 -43t-25 -25q-8 -8 -17 -16t-11 -24h-67zM28 245q0 113 71 187q72 74 181 74t180 -74q72 -74 72 -187
q0 -114 -72 -187q-71 -74 -180 -74t-181 74q-71 74 -71 187zM120 245q0 -79 46 -128t114 -49t114 49t46 128q0 78 -46 127q-47 50 -114 50t-114 -50q-46 -49 -46 -127z" />
    <glyph glyph-name="uni1ED0" unicode="&#x1ed0;" horiz-adv-x="810" 
d="M346 775h-89l108 126h80l108 -126h-89l-59 62zM671 990l-83 -113h-80l63 113h100zM773 358q0 -160 -106 -266q-107 -108 -262 -108q-156 0 -262 108q-106 106 -106 266t106 266q106 108 262 108t262 -109q106 -106 106 -265zM131 358q0 -124 78 -205q79 -81 196 -81
t195 81q79 79 79 205t-79 205q-78 81 -195 81t-196 -81q-78 -81 -78 -205z" />
    <glyph glyph-name="uni1ED1" unicode="&#x1ed1;" horiz-adv-x="560" 
d="M221 559h-89l108 126h80l108 -126h-89l-59 62zM546 774l-83 -113h-80l63 113h100zM28 245q0 113 71 187q72 74 181 74t180 -74q72 -74 72 -187q0 -114 -72 -187q-71 -74 -180 -74t-181 74q-71 74 -71 187zM120 245q0 -79 46 -128t114 -49t114 49t46 128q0 78 -46 127
q-47 50 -114 50t-114 -50q-46 -49 -46 -127z" />
    <glyph glyph-name="uni1ED2" unicode="&#x1ed2;" horiz-adv-x="810" 
d="M540 990l63 -113h-80l-83 113h100zM346 775h-89l108 126h80l108 -126h-89l-59 62zM773 358q0 -160 -106 -266q-107 -108 -262 -108q-156 0 -262 108q-106 106 -106 266t106 266q106 108 262 108t262 -109q106 -106 106 -265zM131 358q0 -124 78 -205q79 -81 196 -81
t195 81q79 79 79 205t-79 205q-78 81 -195 81t-196 -81q-78 -81 -78 -205z" />
    <glyph glyph-name="uni1ED3" unicode="&#x1ed3;" horiz-adv-x="560" 
d="M415 774l63 -113h-80l-83 113h100zM221 559h-89l108 126h80l108 -126h-89l-59 62zM28 245q0 113 71 187q72 74 181 74t180 -74q72 -74 72 -187q0 -114 -72 -187q-71 -74 -180 -74t-181 74q-71 74 -71 187zM120 245q0 -79 46 -128t114 -49t114 49t46 128q0 78 -46 127
q-47 50 -114 50t-114 -50q-46 -49 -46 -127z" />
    <glyph glyph-name="uni1ED4" unicode="&#x1ed4;" horiz-adv-x="810" 
d="M346 775h-89l108 126h80l108 -126h-89l-59 62zM773 358q0 -160 -106 -266q-107 -108 -262 -108q-156 0 -262 108q-106 106 -106 266t106 266q106 108 262 108t262 -109q106 -106 106 -265zM131 358q0 -124 78 -205q79 -81 196 -81t195 81q79 79 79 205t-79 205
q-78 81 -195 81t-196 -81q-78 -81 -78 -205zM518 867q0 9 2.5 18t7.5 16t13 12.5t16 10.5t13.5 11t5.5 14q0 15 -27 15q-6 0 -16 -1.5t-20 -16.5l-59 18q14 28 39 40.5t62 12.5q48 0 72 -17t24 -46q0 -23 -11.5 -35t-23.5 -19q-8 -7 -17.5 -13.5t-11.5 -19.5h-69z" />
    <glyph glyph-name="uni1ED5" unicode="&#x1ed5;" horiz-adv-x="560" 
d="M221 559h-89l108 126h80l108 -126h-89l-59 62zM28 245q0 113 71 187q72 74 181 74t180 -74q72 -74 72 -187q0 -114 -72 -187q-71 -74 -180 -74t-181 74q-71 74 -71 187zM120 245q0 -79 46 -128t114 -49t114 49t46 128q0 78 -46 127q-47 50 -114 50t-114 -50
q-46 -49 -46 -127zM393 651q0 9 2.5 18t7.5 16t13 12.5t16 10.5t13.5 11t5.5 14q0 15 -27 15q-6 0 -16 -1.5t-20 -16.5l-59 18q14 28 39 40.5t62 12.5q48 0 72 -17t24 -46q0 -23 -11.5 -35t-23.5 -19q-8 -7 -17.5 -13.5t-11.5 -19.5h-69z" />
    <glyph glyph-name="uni1ED6" unicode="&#x1ed6;" horiz-adv-x="810" 
d="M346 775h-89l108 116h80l108 -116h-89l-59 57zM461 917q-31 0 -56 18q-26 18 -40 18q-26 0 -28 -29h-69q0 42 23.5 67t65.5 25q33 0 57 -18q25 -18 39 -18q27 0 28 28h69q0 -42 -23 -66.5t-66 -24.5zM773 358q0 -160 -106 -266q-107 -108 -262 -108q-156 0 -262 108
q-106 106 -106 266t106 266q106 108 262 108t262 -109q106 -106 106 -265zM131 358q0 -124 78 -205q79 -81 196 -81t195 81q79 79 79 205t-79 205q-78 81 -195 81t-196 -81q-78 -81 -78 -205z" />
    <glyph glyph-name="uni1ED7" unicode="&#x1ed7;" horiz-adv-x="560" 
d="M221 559h-89l108 116h80l108 -116h-89l-59 57zM336 705q-31 0 -56 18q-26 18 -40 18q-26 0 -28 -29h-69q0 42 23.5 67t65.5 25q33 0 57 -18q25 -18 39 -18q27 0 28 28h69q0 -42 -23 -66.5t-66 -24.5zM28 245q0 113 71 187q72 74 181 74t180 -74q72 -74 72 -187
q0 -114 -72 -187q-71 -74 -180 -74t-181 74q-71 74 -71 187zM120 245q0 -79 46 -128t114 -49t114 49t46 128q0 78 -46 127q-47 50 -114 50t-114 -50q-46 -49 -46 -127z" />
    <glyph glyph-name="uni1ED8" unicode="&#x1ed8;" horiz-adv-x="810" 
d="M346 775h-89l108 141h80l108 -141h-89l-59 69zM773 358q0 -160 -106 -266q-107 -108 -262 -108q-156 0 -262 108q-106 106 -106 266t106 266q106 108 262 108t262 -109q106 -106 106 -265zM131 358q0 -124 78 -205q79 -81 196 -81t195 81q79 79 79 205t-79 205
q-78 81 -195 81t-196 -81q-78 -81 -78 -205zM467 -154q0 -24 -18 -42t-44 -18q-24 0 -42 18t-18 42q0 26 18 44t42 18q26 0 44 -18t18 -44z" />
    <glyph glyph-name="uni1ED9" unicode="&#x1ed9;" horiz-adv-x="560" 
d="M342 -154q0 -24 -18 -42t-44 -18q-24 0 -42 18t-18 42q0 26 18 44t42 18q26 0 44 -18t18 -44zM221 559h-89l108 141h80l108 -141h-89l-59 69zM28 245q0 113 71 187q72 74 181 74t180 -74q72 -74 72 -187q0 -114 -72 -187q-71 -74 -180 -74t-181 74q-71 74 -71 187z
M120 245q0 -79 46 -128t114 -49t114 49t46 128q0 78 -46 127q-47 50 -114 50t-114 -50q-46 -49 -46 -127z" />
    <glyph glyph-name="uni1EDA" unicode="&#x1eda;" horiz-adv-x="810" 
d="M544 926l-102 -141h-85l82 141h105zM773 358q0 -160 -106 -266q-107 -108 -262 -108q-156 0 -262 108q-106 106 -106 266t106 266q106 108 262 108q56 0 102 -13q15 -2 25.5 -3t15.5 -2h18.5t24.5 1q61 0 60 77l75 -25q-2 -59 -35 -90q-22 -20 -52 -28q7 -6 14 -12.5
t14 -13.5q106 -106 106 -265zM131 358q0 -124 78 -205q79 -81 196 -81t195 81q79 79 79 205t-79 205q-78 81 -195 81t-196 -81q-78 -81 -78 -205z" />
    <glyph glyph-name="uni1EDB" unicode="&#x1edb;" horiz-adv-x="560" 
d="M426 710l-102 -141h-85l82 141h105zM28 245q0 113 71 187q72 74 181 74q45 0 85 -14q7 -1 12 -1.5t9 -0.5q8 -1 15 -1h14q61 0 60 77l75 -25q-2 -59 -35 -90q-20 -20 -48 -27q65 -73 65 -179q0 -114 -72 -187q-71 -74 -180 -74t-181 74q-71 74 -71 187zM120 245
q0 -79 46 -128t114 -49t114 49t46 128q0 78 -46 127q-47 50 -114 50t-114 -50q-46 -49 -46 -127z" />
    <glyph glyph-name="uni1EDC" unicode="&#x1edc;" horiz-adv-x="810" 
d="M395 926l82 -141h-85l-102 141h105zM773 358q0 -160 -106 -266q-107 -108 -262 -108q-156 0 -262 108q-106 106 -106 266t106 266q106 108 262 108q56 0 102 -13q15 -2 25.5 -3t15.5 -2h18.5t24.5 1q61 0 60 77l75 -25q-2 -59 -35 -90q-22 -20 -52 -28q7 -6 14 -12.5
t14 -13.5q106 -106 106 -265zM131 358q0 -124 78 -205q79 -81 196 -81t195 81q79 79 79 205t-79 205q-78 81 -195 81t-196 -81q-78 -81 -78 -205z" />
    <glyph glyph-name="uni1EDD" unicode="&#x1edd;" horiz-adv-x="560" 
d="M262 710l82 -141h-85l-102 141h105zM28 245q0 113 71 187q72 74 181 74q45 0 85 -14q7 -1 12 -1.5t9 -0.5q8 -1 15 -1h14q61 0 60 77l75 -25q-2 -59 -35 -90q-20 -20 -48 -27q65 -73 65 -179q0 -114 -72 -187q-71 -74 -180 -74t-181 74q-71 74 -71 187zM120 245
q0 -79 46 -128t114 -49t114 49t46 128q0 78 -46 127q-47 50 -114 50t-114 -50q-46 -49 -46 -127z" />
    <glyph glyph-name="uni1EDE" unicode="&#x1ede;" horiz-adv-x="810" 
d="M385 785q0 11 2.5 23t7.5 20q5 9 13 15.5l16 13t14 13.5t6 18q0 8 -7 15t-21 7t-23 -4t-20 -22l-57 22q14 35 39.5 50.5t63.5 15.5q48 0 73 -22t25 -57q0 -28 -12 -43t-25 -25q-8 -8 -17 -16t-11 -24h-67zM773 358q0 -160 -106 -266q-107 -108 -262 -108q-156 0 -262 108
q-106 106 -106 266t106 266q106 108 262 108q56 0 102 -13q15 -2 25.5 -3t15.5 -2h18.5t24.5 1q61 0 60 77l75 -25q-2 -59 -35 -90q-22 -20 -52 -28q7 -6 14 -12.5t14 -13.5q106 -106 106 -265zM131 358q0 -124 78 -205q79 -81 196 -81t195 81q79 79 79 205t-79 205
q-78 81 -195 81t-196 -81q-78 -81 -78 -205z" />
    <glyph glyph-name="uni1EDF" unicode="&#x1edf;" horiz-adv-x="560" 
d="M256 569q0 11 2.5 23t7.5 20q5 9 13 15.5l16 13t14 13.5t6 18q0 8 -7 15t-21 7t-23 -4t-20 -22l-57 22q14 35 39.5 50.5t63.5 15.5q48 0 73 -22t25 -57q0 -28 -12 -43t-25 -25q-8 -8 -17 -16t-11 -24h-67zM28 245q0 113 71 187q72 74 181 74q45 0 85 -14q7 -1 12 -1.5
t9 -0.5q8 -1 15 -1h14q61 0 60 77l75 -25q-2 -59 -35 -90q-20 -20 -48 -27q65 -73 65 -179q0 -114 -72 -187q-71 -74 -180 -74t-181 74q-71 74 -71 187zM120 245q0 -79 46 -128t114 -49t114 49t46 128q0 78 -46 127q-47 50 -114 50t-114 -50q-46 -49 -46 -127z" />
    <glyph glyph-name="uni1EE0" unicode="&#x1ee0;" horiz-adv-x="810" 
d="M464 775q-29 0 -57 20t-41 20q-28 0 -29 -31h-70q0 48 24 77.5t67 29.5q32 0 58 -20t40 -20q28 0 29 31h70q0 -48 -23 -77.5t-68 -29.5zM773 358q0 -160 -106 -266q-107 -108 -262 -108q-156 0 -262 108q-106 106 -106 266t106 266q106 108 262 108q56 0 102 -13
q15 -2 25.5 -3t15.5 -2h18.5t24.5 1q61 0 60 77l75 -25q-2 -59 -35 -90q-22 -20 -52 -28q7 -6 14 -12.5t14 -13.5q106 -106 106 -265zM131 358q0 -124 78 -205q79 -81 196 -81t195 81q79 79 79 205t-79 205q-78 81 -195 81t-196 -81q-78 -81 -78 -205z" />
    <glyph glyph-name="uni1EE1" unicode="&#x1ee1;" horiz-adv-x="560" 
d="M342 559q-29 0 -57 20t-41 20q-28 0 -29 -31h-70q0 48 24 77.5t67 29.5q32 0 58 -20t40 -20q28 0 29 31h70q0 -48 -23 -77.5t-68 -29.5zM28 245q0 113 71 187q72 74 181 74q45 0 85 -14q7 -1 12 -1.5t9 -0.5q8 -1 15 -1h14q61 0 60 77l75 -25q-2 -59 -35 -90
q-20 -20 -48 -27q65 -73 65 -179q0 -114 -72 -187q-71 -74 -180 -74t-181 74q-71 74 -71 187zM120 245q0 -79 46 -128t114 -49t114 49t46 128q0 78 -46 127q-47 50 -114 50t-114 -50q-46 -49 -46 -127z" />
    <glyph glyph-name="uni1EE2" unicode="&#x1ee2;" horiz-adv-x="810" 
d="M467 -154q0 -24 -18 -42t-44 -18q-24 0 -42 18t-18 42q0 26 18 44t42 18q26 0 44 -18t18 -44zM773 358q0 -160 -106 -266q-107 -108 -262 -108q-156 0 -262 108q-106 106 -106 266t106 266q106 108 262 108q56 0 102 -13q15 -2 25.5 -3t15.5 -2h18.5t24.5 1q61 0 60 77
l75 -25q-2 -59 -35 -90q-22 -20 -52 -28q7 -6 14 -12.5t14 -13.5q106 -106 106 -265zM131 358q0 -124 78 -205q79 -81 196 -81t195 81q79 79 79 205t-79 205q-78 81 -195 81t-196 -81q-78 -81 -78 -205z" />
    <glyph glyph-name="uni1EE3" unicode="&#x1ee3;" horiz-adv-x="560" 
d="M342 -154q0 -24 -18 -42t-44 -18q-24 0 -42 18t-18 42q0 26 18 44t42 18q26 0 44 -18t18 -44zM28 245q0 113 71 187q72 74 181 74q45 0 85 -14q7 -1 12 -1.5t9 -0.5q8 -1 15 -1h14q61 0 60 77l75 -25q-2 -59 -35 -90q-20 -20 -48 -27q65 -73 65 -179q0 -114 -72 -187
q-71 -74 -180 -74t-181 74q-71 74 -71 187zM120 245q0 -79 46 -128t114 -49t114 49t46 128q0 78 -46 127q-47 50 -114 50t-114 -50q-46 -49 -46 -127z" />
    <glyph glyph-name="uni1EE4" unicode="&#x1ee4;" horiz-adv-x="642" 
d="M321 -16q-119 0 -192 78q-73 76 -73 204v450h92v-454q0 -88 46 -139t127 -51t127 51t46 139v454h92v-450q0 -130 -72 -206t-193 -76zM384 -154q0 -24 -18 -42t-44 -18q-24 0 -42 18t-18 42q0 26 18 44t42 18q26 0 44 -18t18 -44z" />
    <glyph glyph-name="uni1EE5" unicode="&#x1ee5;" 
d="M318 -154q0 -24 -18 -42t-44 -18q-24 0 -42 18t-18 42q0 26 18 44t42 18q26 0 44 -18t18 -44zM486 0h-88v68h-4q-11 -18 -27.5 -33.5t-37 -26.5t-43.5 -17.5t-47 -6.5q-91 0 -139 51t-48 147v308h92v-302q3 -120 121 -120q54 0 92 44q37 44 37 107v271h92v-490z" />
    <glyph glyph-name="uni1EE6" unicode="&#x1ee6;" horiz-adv-x="642" 
d="M292 785q0 11 2.5 23t7.5 20q5 9 13 15.5l16 13t14 13.5t6 18q0 8 -7 15t-21 7t-23 -4t-20 -22l-57 22q14 35 39.5 50.5t63.5 15.5q48 0 73 -22t25 -57q0 -28 -12 -43t-25 -25q-8 -8 -17 -16t-11 -24h-67zM321 -16q-119 0 -192 78q-73 76 -73 204v450h92v-454
q0 -88 46 -139t127 -51t127 51t46 139v454h92v-450q0 -130 -72 -206t-193 -76z" />
    <glyph glyph-name="uni1EE7" unicode="&#x1ee7;" 
d="M241 569q0 11 2.5 23t7.5 20q5 9 13 15.5l16 13t14 13.5t6 18q0 8 -7 15t-21 7t-23 -4t-20 -22l-57 22q14 35 39.5 50.5t63.5 15.5q48 0 73 -22t25 -57q0 -28 -12 -43t-25 -25q-8 -8 -17 -16t-11 -24h-67zM486 0h-88v68h-4q-11 -18 -27.5 -33.5t-37 -26.5t-43.5 -17.5
t-47 -6.5q-91 0 -139 51t-48 147v308h92v-302q3 -120 121 -120q54 0 92 44q37 44 37 107v271h92v-490z" />
    <glyph glyph-name="uni1EE8" unicode="&#x1ee8;" horiz-adv-x="642" 
d="M462 926l-102 -141h-85l82 141h105zM321 -16q-119 0 -192 78q-73 76 -73 204v450h92v-454q0 -88 46 -139t127 -51t127 51t46 139v454h72q20 3 32 17q16 19 15 59l75 -25q-2 -59 -35 -90q-28 -27 -67 -31v-380q0 -130 -72 -206t-193 -76z" />
    <glyph glyph-name="uni1EE9" unicode="&#x1ee9;" 
d="M412 710l-102 -141h-85l82 141h105zM486 0h-88v68h-4q-11 -18 -27.5 -33.5t-37 -26.5t-43.5 -17.5t-47 -6.5q-91 0 -139 51t-48 147v308h92v-302q3 -120 121 -120q54 0 92 44q37 44 37 107v271h72q20 3 32 17q16 19 15 59l75 -25q-2 -59 -35 -90q-28 -27 -67 -31v-420z
" />
    <glyph glyph-name="uni1EEA" unicode="&#x1eea;" horiz-adv-x="642" 
d="M304 926l82 -141h-85l-102 141h105zM321 -16q-119 0 -192 78q-73 76 -73 204v450h92v-454q0 -88 46 -139t127 -51t127 51t46 139v454h72q20 3 32 17q16 19 15 59l75 -25q-2 -59 -35 -90q-28 -27 -67 -31v-380q0 -130 -72 -206t-193 -76z" />
    <glyph glyph-name="uni1EEB" unicode="&#x1eeb;" 
d="M246 710l82 -141h-85l-102 141h105zM486 0h-88v68h-4q-11 -18 -27.5 -33.5t-37 -26.5t-43.5 -17.5t-47 -6.5q-91 0 -139 51t-48 147v308h92v-302q3 -120 121 -120q54 0 92 44q37 44 37 107v271h72q20 3 32 17q16 19 15 59l75 -25q-2 -59 -35 -90q-28 -27 -67 -31v-420z
" />
    <glyph glyph-name="uni1EEC" unicode="&#x1eec;" horiz-adv-x="642" 
d="M292 785q0 11 2.5 23t7.5 20q5 9 13 15.5l16 13t14 13.5t6 18q0 8 -7 15t-21 7t-23 -4t-20 -22l-57 22q14 35 39.5 50.5t63.5 15.5q48 0 73 -22t25 -57q0 -28 -12 -43t-25 -25q-8 -8 -17 -16t-11 -24h-67zM321 -16q-119 0 -192 78q-73 76 -73 204v450h92v-454
q0 -88 46 -139t127 -51t127 51t46 139v454h72q20 3 32 17q16 19 15 59l75 -25q-2 -59 -35 -90q-28 -27 -67 -31v-380q0 -130 -72 -206t-193 -76z" />
    <glyph glyph-name="uni1EED" unicode="&#x1eed;" 
d="M241 569q0 11 2.5 23t7.5 20q5 9 13 15.5l16 13t14 13.5t6 18q0 8 -7 15t-21 7t-23 -4t-20 -22l-57 22q14 35 39.5 50.5t63.5 15.5q48 0 73 -22t25 -57q0 -28 -12 -43t-25 -25q-8 -8 -17 -16t-11 -24h-67zM486 0h-88v68h-4q-11 -18 -27.5 -33.5t-37 -26.5t-43.5 -17.5
t-47 -6.5q-91 0 -139 51t-48 147v308h92v-302q3 -120 121 -120q54 0 92 44q37 44 37 107v271h72q20 3 32 17q16 19 15 59l75 -25q-2 -59 -35 -90q-28 -27 -67 -31v-420z" />
    <glyph glyph-name="uni1EEE" unicode="&#x1eee;" horiz-adv-x="642" 
d="M378 775q-29 0 -57 20t-41 20q-28 0 -29 -31h-70q0 48 24 77.5t67 29.5q32 0 58 -20t40 -20q28 0 29 31h70q0 -48 -23 -77.5t-68 -29.5zM321 -16q-119 0 -192 78q-73 76 -73 204v450h92v-454q0 -88 46 -139t127 -51t127 51t46 139v454h72q20 3 32 17q16 19 15 59l75 -25
q-2 -59 -35 -90q-28 -27 -67 -31v-380q0 -130 -72 -206t-193 -76z" />
    <glyph glyph-name="uni1EEF" unicode="&#x1eef;" 
d="M324 559q-29 0 -57 20t-41 20q-28 0 -29 -31h-70q0 48 24 77.5t67 29.5q32 0 58 -20t40 -20q28 0 29 31h70q0 -48 -23 -77.5t-68 -29.5zM486 0h-88v68h-4q-11 -18 -27.5 -33.5t-37 -26.5t-43.5 -17.5t-47 -6.5q-91 0 -139 51t-48 147v308h92v-302q3 -120 121 -120
q54 0 92 44q37 44 37 107v271h72q20 3 32 17q16 19 15 59l75 -25q-2 -59 -35 -90q-28 -27 -67 -31v-420z" />
    <glyph glyph-name="uni1EF0" unicode="&#x1ef0;" horiz-adv-x="642" 
d="M384 -154q0 -24 -18 -42t-44 -18q-24 0 -42 18t-18 42q0 26 18 44t42 18q26 0 44 -18t18 -44zM321 -16q-119 0 -192 78q-73 76 -73 204v450h92v-454q0 -88 46 -139t127 -51t127 51t46 139v454h72q20 3 32 17q16 19 15 59l75 -25q-2 -59 -35 -90q-28 -27 -67 -31v-380
q0 -130 -72 -206t-193 -76z" />
    <glyph glyph-name="uni1EF1" unicode="&#x1ef1;" 
d="M318 -154q0 -24 -18 -42t-44 -18q-24 0 -42 18t-18 42q0 26 18 44t42 18q26 0 44 -18t18 -44zM486 0h-88v68h-4q-11 -18 -27.5 -33.5t-37 -26.5t-43.5 -17.5t-47 -6.5q-91 0 -139 51t-48 147v308h92v-302q3 -120 121 -120q54 0 92 44q37 44 37 107v271h72q20 3 32 17
q16 19 15 59l75 -25q-2 -59 -35 -90q-28 -27 -67 -31v-420z" />
    <glyph glyph-name="Ygrave" unicode="&#x1ef2;" horiz-adv-x="594" 
d="M277 926l82 -141h-85l-102 141h105zM345 333v-333h-92v333l-241 383h108l177 -291h4l173 291h108z" />
    <glyph glyph-name="ygrave" unicode="&#x1ef3;" horiz-adv-x="498" 
d="M232 710l82 -141h-85l-102 141h105zM494 490l-307 -706h-95l114 247l-202 459h100l146 -352h2l142 352h100z" />
    <glyph glyph-name="uni1EF4" unicode="&#x1ef4;" horiz-adv-x="594" 
d="M345 333v-333h-92v333l-241 383h108l177 -291h4l173 291h108zM360 -154q0 -24 -18 -42t-44 -18q-24 0 -42 18t-18 42q0 26 18 44t42 18q26 0 44 -18t18 -44z" />
    <glyph glyph-name="uni1EF5" unicode="&#x1ef5;" horiz-adv-x="498" 
d="M430 -154q0 -24 -18 -42t-44 -18q-24 0 -42 18t-18 42q0 26 18 44t42 18q26 0 44 -18t18 -44zM494 490l-307 -706h-95l114 247l-202 459h100l146 -352h2l142 352h100z" />
    <glyph glyph-name="uni1EF6" unicode="&#x1ef6;" horiz-adv-x="594" 
d="M267 785q0 11 2.5 23t7.5 20q5 9 13 15.5l16 13t14 13.5t6 18q0 8 -7 15t-21 7t-23 -4t-20 -22l-57 22q14 35 39.5 50.5t63.5 15.5q48 0 73 -22t25 -57q0 -28 -12 -43t-25 -25q-8 -8 -17 -16t-11 -24h-67zM345 333v-333h-92v333l-241 383h108l177 -291h4l173 291h108z
" />
    <glyph glyph-name="uni1EF7" unicode="&#x1ef7;" horiz-adv-x="498" 
d="M217 569q0 11 2.5 23t7.5 20q5 9 13 15.5l16 13t14 13.5t6 18q0 8 -7 15t-21 7t-23 -4t-20 -22l-57 22q14 35 39.5 50.5t63.5 15.5q48 0 73 -22t25 -57q0 -28 -12 -43t-25 -25q-8 -8 -17 -16t-11 -24h-67zM494 490l-307 -706h-95l114 247l-202 459h100l146 -352h2
l142 352h100z" />
    <glyph glyph-name="uni1EF8" unicode="&#x1ef8;" horiz-adv-x="594" 
d="M356 775q-29 0 -57 20t-41 20q-28 0 -29 -31h-70q0 48 24 77.5t67 29.5q32 0 58 -20t40 -20q28 0 29 31h70q0 -48 -23 -77.5t-68 -29.5zM345 333v-333h-92v333l-241 383h108l177 -291h4l173 291h108z" />
    <glyph glyph-name="uni1EF9" unicode="&#x1ef9;" horiz-adv-x="498" 
d="M309 559q-29 0 -57 20t-41 20q-28 0 -29 -31h-70q0 48 24 77.5t67 29.5q32 0 58 -20t40 -20q28 0 29 31h70q0 -48 -23 -77.5t-68 -29.5zM494 490l-307 -706h-95l114 247l-202 459h100l146 -352h2l142 352h100z" />
    <glyph glyph-name="endash" unicode="&#x2013;" horiz-adv-x="592" 
d="M536 272h-480v76h480v-76z" />
    <glyph glyph-name="emdash" unicode="&#x2014;" horiz-adv-x="892" 
d="M836 272h-780v76h780v-76z" />
    <glyph glyph-name="quoteleft" unicode="&#x2018;" horiz-adv-x="232" 
d="M141 732l43 -28l-50 -76q21 -4 35.5 -21t14.5 -41q0 -28 -19.5 -48t-48.5 -20q-29 1 -48.5 21t-19.5 49q0 31 21 59z" />
    <glyph glyph-name="quoteright" unicode="&#x2019;" horiz-adv-x="232" 
d="M91 498l-43 28l50 76q-21 4 -35.5 21t-14.5 41q0 29 20 48.5t48 19.5q29 0 48.5 -19.5t19.5 -48.5q0 -28 -21 -61z" />
    <glyph glyph-name="quotesinglbase" unicode="&#x201a;" horiz-adv-x="232" 
d="M91 -104l-43 28l50 76q-21 4 -35.5 21t-14.5 41q0 29 20 48.5t48 19.5q29 0 48.5 -19.5t19.5 -48.5q0 -28 -21 -61z" />
    <glyph glyph-name="quotedblleft" unicode="&#x201c;" horiz-adv-x="408" 
d="M141 732l43 -28l-50 -76q21 -4 35.5 -21t14.5 -41q0 -28 -19.5 -48t-48.5 -20q-29 1 -48.5 21t-19.5 49q0 31 21 59zM317 732l43 -28l-50 -76q21 -4 35.5 -21t14.5 -41q0 -28 -19.5 -48t-48.5 -20q-29 1 -48.5 21t-19.5 49q0 31 21 59z" />
    <glyph glyph-name="quotedblright" unicode="&#x201d;" horiz-adv-x="408" 
d="M267 498l-43 28l50 76q-21 4 -35.5 21t-14.5 41q0 29 20 48.5t48 19.5q29 0 48.5 -19.5t19.5 -48.5q0 -28 -21 -61zM91 498l-43 28l50 76q-21 4 -35.5 21t-14.5 41q0 29 20 48.5t48 19.5q29 0 48.5 -19.5t19.5 -48.5q0 -28 -21 -61z" />
    <glyph glyph-name="quotedblbase" unicode="&#x201e;" horiz-adv-x="408" 
d="M267 -104l-43 28l50 76q-21 4 -35.5 21t-14.5 41q0 29 20 48.5t48 19.5q29 0 48.5 -19.5t19.5 -48.5q0 -28 -21 -61zM91 -104l-43 28l50 76q-21 4 -35.5 21t-14.5 41q0 29 20 48.5t48 19.5q29 0 48.5 -19.5t19.5 -48.5q0 -28 -21 -61z" />
    <glyph glyph-name="bullet" unicode="&#x2022;" horiz-adv-x="400" 
d="M320 324q0 -48 -35 -85q-35 -35 -85 -35q-48 0 -85 35q-35 37 -35 85q0 50 35 85q37 35 85 35q50 0 85 -35t35 -85z" />
    <glyph glyph-name="ellipsis" unicode="&#x2026;" horiz-adv-x="704" 
d="M184 62q0 -28 -19.5 -48t-48.5 -20q-28 0 -48 20t-20 48q0 29 20 48.5t48 19.5q29 0 48.5 -19.5t19.5 -48.5zM420 62q0 -28 -19.5 -48t-48.5 -20q-28 0 -48 20t-20 48q0 29 20 48.5t48 19.5q29 0 48.5 -19.5t19.5 -48.5zM656 62q0 -28 -19.5 -48t-48.5 -20q-28 0 -48 20
t-20 48q0 29 20 48.5t48 19.5q29 0 48.5 -19.5t19.5 -48.5z" />
    <glyph glyph-name="guilsinglleft" unicode="&#x2039;" horiz-adv-x="356" 
d="M296 440l-160 -169l160 -169l-54 -50l-202 219l202 219z" />
    <glyph glyph-name="guilsinglright" unicode="&#x203a;" horiz-adv-x="356" 
d="M114 52l-54 50l160 169l-160 169l54 50l202 -219z" />
    <glyph glyph-name="fraction" unicode="&#x2044;" horiz-adv-x="170" 
d="M346 686l-465 -694l-57 37l466 695z" />
    <glyph glyph-name="uni2074" unicode="&#x2074;" horiz-adv-x="345" 
d="M269 422v-72h-70v72h-171v48l174 246h67v-234h48v-60h-48zM195 613l-94 -131h98v131h-4z" />
    <glyph glyph-name="Euro" unicode="&#x20ac;" horiz-adv-x="629" 
d="M605 25q-71 -41 -164 -41q-112 0 -200 65q-87 64 -120 175h-97v76h82l-2 42l2 42h-82v76h97q33 111 120 175q88 65 200 65q84 0 149 -41l-44 -75q-48 27 -105 27q-78 0 -137 -39.5t-86 -111.5h223v-76h-241l-2 -42l2 -42h241v-76h-223q27 -72 86 -111.5t137 -39.5
q66 0 122 32z" />
    <glyph glyph-name="minus" unicode="&#x2212;" horiz-adv-x="550" 
d="M494 309v-76h-438v76h438z" />
    <glyph glyph-name="uni2215" unicode="&#x2215;" horiz-adv-x="437" 
d="M410 716l-297 -716h-86l297 716h86z" />
    <glyph glyph-name="Lslash" horiz-adv-x="574" 
d="M550 88v-88h-402v277l-64 -40l-42 67l106 66v346h92v-282l125 78l42 -68l-167 -104v-252h310z" />
    <glyph glyph-name="uniF8FF" horiz-adv-x="1000" 
d="M499 290v161h392q7 -32 7 -86q0 -181 -111 -293q-110 -113 -288 -113q-173 0 -294 121q-122 122 -122 295q0 172 121 293q121 123 295 123q162 0 278 -108l-119 -120q-68 62 -159 62q-100 0 -174 -74q-72 -74 -72 -176q0 -104 72 -177q74 -74 174 -74q87 0 149 45
q61 46 75 121h-224z" />
    <glyph glyph-name="one.numerator" horiz-adv-x="242" 
d="M182 716v-366h-70v285l-64 -26l-24 54l112 53h46z" />
    <glyph glyph-name="two.denominator" horiz-adv-x="304" 
d="M276 64v-64h-250v60l143 144q33 34 33 62q0 19 -15 31.5t-37 12.5q-49 0 -61 -58l-65 27q9 43 44 69t81 26q53 0 88 -31q37 -30 37 -77q0 -44 -51 -98l-105 -104h158z" />
    <glyph glyph-name="two.numerator" horiz-adv-x="304" 
d="M276 414v-64h-250v60l143 144q33 34 33 62q0 19 -15 31.5t-37 12.5q-49 0 -61 -58l-65 27q9 43 44 69t81 26q53 0 88 -31q37 -30 37 -77q0 -44 -51 -98l-105 -104h158z" />
    <glyph glyph-name="three.numerator" horiz-adv-x="323" 
d="M158 342q-51 0 -86.5 26t-47.5 74l65 24q13 -60 69 -60q25 0 43 15.5t18 38.5q0 50 -71 50h-30v60h29q60 0 60 47q0 19 -14.5 31t-35.5 12q-42 0 -58 -43l-62 25q28 82 120 82q54 0 88 -29t34 -77q0 -47 -45 -75q57 -33 57 -84q0 -26 -10 -47t-28 -37t-42.5 -24.5
t-52.5 -8.5z" />
    <glyph glyph-name="four.denominator" horiz-adv-x="345" 
d="M269 72v-72h-70v72h-171v48l174 246h67v-234h48v-60h-48zM195 263l-94 -131h98v131h-4z" />
    <glyph glyph-name="four.numerator" horiz-adv-x="345" 
d="M269 422v-72h-70v72h-171v48l174 246h67v-234h48v-60h-48zM195 613l-94 -131h98v131h-4z" />
    <glyph glyph-name="r.alt" horiz-adv-x="360" 
d="M56 490h88v-80h4q40 94 169 94l19 -2v-96l-41 4q-32 0 -59 -10.5t-46.5 -29t-30.5 -44.5t-11 -56v-270h-92v490z" />
    <glyph glyph-name="uni03BC" 
d="M486 490v-490h-88v68h-4q-50 -84 -151 -84q-53 0 -99 40h-4l4 -56v-184h-92v706h92v-283q0 -139 121 -139q54 0 92 45q37 44 37 107v270h92z" />
    <glyph glyph-name="uni2103" horiz-adv-x="973" 
d="M665 -16q-152 0 -254 102q-102 103 -102 256t102 255q102 103 254 103t251 -114l-63 -62q-68 87 -188 87q-115 0 -188 -75q-74 -74 -74 -194q0 -118 74 -195q74 -74 188 -74q121 0 208 99l64 -63q-107 -125 -272 -125zM293 571q0 -54 -39 -91q-38 -38 -91 -38
q-52 0 -93 38q-38 38 -38 91t38 91q41 38 93 38q54 0 92 -38t38 -91zM163 506q25 0 43.5 19.5t18.5 45.5q1 28 -19 46.5t-45 18.5t-43 -19q-18 -17 -18 -43t17.5 -48t45.5 -20z" />
    <glyph glyph-name="uni2109" horiz-adv-x="813" 
d="M469 291v-291h-92v684h404v-88h-312v-219h281v-86h-281zM293 571q0 -54 -39 -91q-38 -38 -91 -38q-52 0 -93 38q-38 38 -38 91t38 91q41 38 93 38q54 0 92 -38t38 -91zM163 506q25 0 43.5 19.5t18.5 45.5q1 28 -19 46.5t-45 18.5t-43 -19q-18 -17 -18 -43t17.5 -48
t45.5 -20z" />
    <glyph glyph-name="uni2190" horiz-adv-x="1082" 
d="M1026 348v-76h-780v-160l-198 198l198 198v-160h780z" />
    <glyph glyph-name="uni2191" horiz-adv-x="476" 
d="M436 622h-160v-742h-76v742h-160l198 198z" />
    <glyph glyph-name="uni2192" horiz-adv-x="1082" 
d="M836 112v160h-780v76h780v160l198 -198z" />
    <glyph glyph-name="uni2193" horiz-adv-x="476" 
d="M200 792h76v-742h160l-198 -198l-198 198h160v742z" />
    <glyph glyph-name="uni2196" horiz-adv-x="772" 
d="M320 716l-113 -113l565 -565l-54 -54l-565 565l-113 -113v280h280z" />
    <glyph glyph-name="uni2197" horiz-adv-x="772" 
d="M54 -16l-54 54l565 565l-113 113h280v-280l-113 113z" />
    <glyph glyph-name="uni2198" horiz-adv-x="772" 
d="M718 732l54 -54l-565 -565l113 -113h-280v280l113 -113z" />
    <glyph glyph-name="uni2199" horiz-adv-x="772" 
d="M452 0l113 113l-565 565l54 54l565 -565l113 113v-280h-280z" />
    <glyph glyph-name="uni2639" horiz-adv-x="836" 
d="M418 -16q-154 0 -264 110t-110 264t110 264t264 110t264 -110t110 -264t-110 -264t-264 -110zM108 358q0 -128 91 -219t219 -91t219 91t91 219q0 129 -91 219q-90 91 -219 91q-128 0 -219 -91t-91 -219zM605 452q0 -24 -16.5 -40.5t-39.5 -16.5t-39.5 16.5t-16.5 40.5
q0 23 16.5 39t39.5 16t39.5 -16t16.5 -39zM343 452q0 -24 -16.5 -40.5t-39.5 -16.5t-39.5 16.5t-16.5 40.5q0 23 16.5 39t39.5 16t39.5 -16t16.5 -39zM418 301q63 0 112.5 -32t74.5 -87l-67 -31q-16 34 -49 54.5t-71 20.5q-39 0 -71 -20.5t-48 -54.5l-68 31q24 54 75 86.5
t112 32.5z" />
    <glyph glyph-name="uni263A" horiz-adv-x="836" 
d="M418 -16q-154 0 -264 110t-110 264t110 264t264 110t264 -110t110 -264t-110 -264t-264 -110zM108 358q0 -128 91 -219t219 -91t219 91t91 219q0 129 -91 219q-90 91 -219 91q-128 0 -219 -91t-91 -219zM343 452q0 -24 -16.5 -40.5t-39.5 -16.5t-39.5 16.5t-16.5 40.5
q0 23 16.5 39t39.5 16t39.5 -16t16.5 -39zM605 452q0 -24 -16.5 -40.5t-39.5 -16.5t-39.5 16.5t-16.5 40.5q0 23 16.5 39t39.5 16t39.5 -16t16.5 -39zM418 152q-61 0 -112 32.5t-75 86.5l68 31q16 -34 48 -54.5t71 -20.5q38 0 71 20.5t49 54.5l67 -31q-25 -55 -74.5 -87
t-112.5 -32z" />
    <glyph glyph-name="uni2780" horiz-adv-x="836" 
d="M418 -16q-154 0 -264 110t-110 264t110 264t264 110t264 -110t110 -264t-110 -264t-264 -110zM108 358q0 -128 91 -219t219 -91t219 91t91 219q0 129 -91 219q-90 91 -219 91q-128 0 -219 -91t-91 -219zM466 543v-366h-70v285l-64 -26l-24 54l112 53h46z" />
    <glyph glyph-name="uni2781" horiz-adv-x="836" 
d="M418 -16q-154 0 -264 110t-110 264t110 264t264 110t264 -110t110 -264t-110 -264t-264 -110zM108 358q0 -128 91 -219t219 -91t219 91t91 219q0 129 -91 219q-90 91 -219 91q-128 0 -219 -91t-91 -219zM543 241v-64h-250v60l143 144q33 34 33 62q0 19 -15 31.5t-37 12.5
q-49 0 -61 -58l-65 27q9 43 44 69t81 26q54 0 88 -31q37 -30 37 -77q0 -44 -51 -98l-105 -104h158z" />
    <glyph glyph-name="uni2782" horiz-adv-x="836" 
d="M418 -16q-154 0 -264 110t-110 264t110 264t264 110t264 -110t110 -264t-110 -264t-264 -110zM108 358q0 -128 91 -219t219 -91t219 91t91 219q0 129 -91 219q-90 91 -219 91q-128 0 -219 -91t-91 -219zM415 169q-51 0 -86.5 26t-47.5 74l65 24q13 -60 69 -60
q25 0 43 15.5t18 38.5q0 50 -71 50h-30v60h29q60 0 60 47q0 19 -14.5 31t-35.5 12q-42 0 -58 -43l-62 25q28 82 120 82q54 0 88 -29t34 -77q0 -47 -45 -75q57 -33 57 -84q0 -26 -10 -47t-28 -37t-42.5 -24.5t-52.5 -8.5z" />
    <glyph glyph-name="uni2783" horiz-adv-x="836" 
d="M418 -16q-154 0 -264 110t-110 264t110 264t264 110t264 -110t110 -264t-110 -264t-264 -110zM108 358q0 -128 91 -219t219 -91t219 91t91 219q0 129 -91 219q-90 91 -219 91q-128 0 -219 -91t-91 -219zM493 249v-72h-70v72h-171v48l174 246h67v-234h48v-60h-48zM325 309
h98v131h-4z" />
    <glyph glyph-name="uni2784" horiz-adv-x="836" 
d="M418 -16q-154 0 -264 110t-110 264t110 264t264 110t264 -110t110 -264t-110 -264t-264 -110zM108 358q0 -128 91 -219t219 -91t219 91t91 219q0 129 -91 219q-90 91 -219 91q-128 0 -219 -91t-91 -219zM552 296q0 -53 -40 -90q-37 -37 -94 -37q-49 0 -85 24t-48 67
l65 25q13 -52 68 -52q26 0 44 18.5t18 45.5t-18 45.5t-44 18.5q-36 0 -61 -33l-61 25l25 189h209v-60h-150l-12 -81q23 20 59 20q27 0 50 -9.5t39.5 -26t26 -39.5t9.5 -50z" />
    <glyph glyph-name="uni2785" horiz-adv-x="836" 
d="M418 -16q-154 0 -264 110t-110 264t110 264t264 110t264 -110t110 -264t-110 -264t-264 -110zM108 358q0 -128 91 -219t219 -91t219 91t91 219q0 129 -91 219q-90 91 -219 91q-128 0 -219 -91t-91 -219zM547 295q0 -52 -40 -89q-37 -37 -93 -37q-55 0 -95 37
q-39 37 -39 89q0 51 37 103l116 161l54 -38l-84 -106q4 4 21 4q50 0 86 -37q37 -37 37 -87zM352 296q0 -26 17.5 -44.5t43.5 -18.5t44 18.5t18 44.5t-18 44.5t-44 18.5t-43.5 -18.5t-17.5 -44.5z" />
    <glyph glyph-name="uni2786" horiz-adv-x="836" 
d="M418 -16q-154 0 -264 110t-110 264t110 264t264 110t264 -110t110 -264t-110 -264t-264 -110zM108 358q0 -128 91 -219t219 -91t219 91t91 219q0 129 -91 219q-90 91 -219 91q-128 0 -219 -91t-91 -219zM551 483l-175 -321l-62 33l159 284h-172v64h250v-60z" />
    <glyph glyph-name="uni2787" horiz-adv-x="836" 
d="M418 -16q-154 0 -264 110t-110 264t110 264t264 110t264 -110t110 -264t-110 -264t-264 -110zM108 358q0 -128 91 -219t219 -91t219 91t91 219q0 129 -91 219q-90 91 -219 91q-128 0 -219 -91t-91 -219zM552 283q0 -49 -40 -82q-41 -32 -94 -32q-54 0 -95 32
q-39 33 -39 82q0 52 51 87q-39 25 -39 72q0 24 9.5 44t26 34.5t38.5 22.5t48 8q52 0 86 -31q36 -32 36 -78q0 -42 -39 -72q51 -35 51 -87zM418 397q20 0 35 13t15 32t-14.5 32t-35.5 13t-35.5 -13t-14.5 -32t14.5 -32t35.5 -13zM418 233q24 0 43 15.5t19 37.5q0 21 -19 36.5
t-43 15.5q-25 0 -43.5 -15t-18.5 -37t18.5 -37.5t43.5 -15.5z" />
    <glyph glyph-name="uni2788" horiz-adv-x="836" 
d="M418 -16q-154 0 -264 110t-110 264t110 264t264 110t264 -110t110 -264t-110 -264t-264 -110zM108 358q0 -128 91 -219t219 -91t219 91t91 219q0 129 -91 219q-90 91 -219 91q-128 0 -219 -91t-91 -219zM282 425q0 50 39 88q41 38 94 38q57 0 94 -37q40 -37 40 -89
q0 -54 -45 -114l-108 -150l-54 38l84 106q-4 -4 -21 -4q-50 0 -87 37q-36 37 -36 87zM477 424q0 26 -17.5 44.5t-43.5 18.5t-44 -18.5t-18 -44.5t18 -44.5t44 -18.5t43.5 18.5t17.5 44.5z" />
    <glyph glyph-name="uni278A" horiz-adv-x="836" 
d="M418 -16q-154 0 -264 110t-110 264t110 264t264 110t264 -110t110 -264t-110 -264t-264 -110zM396 177h70v366h-46l-112 -53l24 -54l64 26v-285z" />
    <glyph glyph-name="uni278B" horiz-adv-x="836" 
d="M418 -16q-154 0 -264 110t-110 264t110 264t264 110t264 -110t110 -264t-110 -264t-264 -110zM293 177h250v64h-158l105 104q51 54 51 98q0 47 -37 77q-34 31 -88 31q-46 0 -81 -26t-44 -69l65 -27q12 58 61 58q22 0 37 -12.5t15 -31.5q0 -28 -33 -62l-143 -144v-60z" />
    <glyph glyph-name="uni278C" horiz-adv-x="836" 
d="M418 -16q-154 0 -264 110t-110 264t110 264t264 110t264 -110t110 -264t-110 -264t-264 -110zM415 165q57 0 95 33t38 84t-57 84q45 28 45 75q0 48 -34 77t-88 29q-92 0 -120 -82l62 -25q16 43 58 43q21 0 35.5 -12t14.5 -31q0 -47 -60 -47h-29v-60h30q71 0 71 -49
q0 -23 -18 -39t-43 -16q-56 0 -69 60l-65 -24q12 -48 47.5 -74t86.5 -26z" />
    <glyph glyph-name="uni278D" horiz-adv-x="836" 
d="M418 -16q-154 0 -264 110t-110 264t110 264t264 110t264 -110t110 -264t-110 -264t-264 -110zM423 177h70v72h48v60h-48v234h-67l-174 -246v-48h171v-72zM423 440v-131h-98l94 131h4z" />
    <glyph glyph-name="uni278E" horiz-adv-x="836" 
d="M418 -16q-154 0 -264 110t-110 264t110 264t264 110t264 -110t110 -264t-110 -264t-264 -110zM418 169q57 0 94 37q40 37 40 90q0 27 -9.5 50t-26 39.5t-39.5 26t-50 9.5q-36 0 -59 -20l12 81h150v60h-209l-25 -189l61 -25q25 33 61 33q26 0 44 -18.5t18 -45.5t-18 -45.5
t-44 -18.5q-55 0 -68 52l-65 -25q12 -43 48 -67t85 -24z" />
    <glyph glyph-name="uni278F" horiz-adv-x="836" 
d="M418 -16q-154 0 -264 110t-110 264t110 264t264 110t264 -110t110 -264t-110 -264t-264 -110zM280 295q0 -52 39 -89q40 -37 95 -37q56 0 93 37q40 37 40 89q0 50 -37 87q-36 37 -86 37q-17 0 -21 -4l84 106l-54 38l-116 -161q-37 -52 -37 -103zM475 296q0 -26 -18 -44.5
t-44 -18.5t-43.5 18.5t-17.5 44.5t17.5 44.5t43.5 18.5t44 -18.5t18 -44.5z" />
    <glyph glyph-name="uni2790" horiz-adv-x="836" 
d="M418 -16q-154 0 -264 110t-110 264t110 264t264 110t264 -110t110 -264t-110 -264t-264 -110zM473 479l-159 -284l62 -33l175 321v60h-250v-64h172z" />
    <glyph glyph-name="uni2791" horiz-adv-x="836" 
d="M418 -16q-154 0 -264 110t-110 264t110 264t264 110t264 -110t110 -264t-110 -264t-264 -110zM284 283q0 -49 39 -82q41 -32 95 -32q53 0 94 32q40 33 40 82q0 52 -51 87q39 30 39 72q0 46 -36 78q-34 31 -86 31q-53 0 -87 -31q-35 -32 -35 -78q0 -47 39 -72
q-51 -35 -51 -87zM418 397q-21 0 -35.5 13t-14.5 32t14.5 32t35.5 13t35.5 -13t14.5 -32t-15 -32t-35 -13zM480 286q0 -22 -19 -37.5t-43 -15.5q-25 0 -43.5 15.5t-18.5 37.5t18.5 37t43.5 15q24 0 43 -15.5t19 -36.5z" />
    <glyph glyph-name="uni2792" horiz-adv-x="836" 
d="M418 -16q-154 0 -264 110t-110 264t110 264t264 110t264 -110t110 -264t-110 -264t-264 -110zM549 425q0 52 -40 89q-37 37 -94 37q-53 0 -94 -38q-39 -38 -39 -88t36 -87q37 -37 87 -37q14 0 20 3l-83 -105l54 -38l108 150q45 60 45 114zM354 424q0 26 18 44.5t44 18.5
t43.5 -18.5t17.5 -44.5t-17.5 -44.5t-43.5 -18.5t-44 18.5t-18 44.5z" />
    <glyph glyph-name="Google.logo" horiz-adv-x="3284" 
d="M2625 776h116v-776h-116v776zM460 -16q-110 0 -208 56q-98 55 -153 150q-55 94 -55 204q0 109 55 203q55 95 153 151t208 56q162 0 281 -113l-79 -79q-86 80 -202 80q-124 0 -209 -87q-85 -85 -85 -211t85 -211q85 -87 209 -87q107 0 180 58q74 58 88 165h-268v112h377
q6 -30 6 -70q0 -170 -108 -273q-110 -104 -275 -104zM3059 -16q-112 0 -187 76t-75 188t71 189q72 75 178 75q39 0 74 -12t64 -34.5t51.5 -53.5t36.5 -68l12 -30l-353 -146q41 -80 128 -80q81 0 130 73l90 -60q-80 -117 -220 -117zM1991 248q0 -111 -77 -188
q-76 -76 -188 -76t-188 76q-77 77 -77 188q0 113 76 188q76 76 189 76q112 0 188 -76q77 -75 77 -188zM1413 248q0 -111 -77 -188q-76 -76 -188 -76t-188 76q-77 77 -77 188q0 113 76 188q76 76 189 76q112 0 188 -76q77 -75 77 -188zM3050 410q-54 0 -98 -44
q-41 -43 -40 -110l236 98q-10 25 -37 40.5t-61 15.5zM2155 247q0 -67 42 -113q43 -46 105 -46q59 0 100 45q41 47 41 114q0 68 -41 115q-40 46 -100 46t-104 -47q-43 -46 -43 -114zM1577 248q0 -68 43 -114t106 -46q62 0 105 46q44 47 44 114q0 71 -43 114q-43 46 -106 46
t-106 -46q-43 -43 -43 -114zM999 248q0 -68 43 -114t106 -46q62 0 105 46q44 47 44 114q0 71 -43 114q-43 46 -106 46t-106 -46q-43 -43 -43 -114zM2294 -253q-40 0 -76 11.5t-66 32t-53.5 49t-38.5 63.5l101 42q18 -42 53 -68t80 -26q141 0 141 166v27h-4q-50 -60 -139 -60
q-101 0 -178 77q-75 78 -75 186q0 109 75 187q76 78 178 78q89 0 139 -59h4v43h110v-474q0 -133 -66.5 -204t-184.5 -71z" />
    <glyph glyph-name="G.logo" horiz-adv-x="861" 
d="M460 -16q-110 0 -208 56q-98 55 -153 150q-55 94 -55 204q0 109 55 203q55 95 153 151t208 56q162 0 281 -113l-79 -79q-86 80 -202 80q-124 0 -209 -87q-85 -85 -85 -211t85 -211q85 -87 209 -87q107 0 180 58q74 58 88 165h-268v112h377q6 -30 6 -70q0 -170 -108 -273
q-110 -104 -275 -104z" />
    <glyph glyph-name="o.logo" horiz-adv-x="578" 
d="M552 248q0 -111 -77 -188q-76 -76 -188 -76t-188 76q-77 77 -77 188q0 113 76 188q76 76 189 76q112 0 188 -76q77 -75 77 -188zM138 248q0 -68 43 -114t106 -46q62 0 105 46q44 47 44 114q0 71 -43 114q-43 46 -106 46t-106 -46q-43 -43 -43 -114z" />
    <glyph glyph-name="g.logo" horiz-adv-x="566" 
d="M138 247q0 -67 42 -113q43 -46 105 -46q59 0 100 45q41 47 41 114q0 68 -41 115q-40 46 -100 46t-104 -47q-43 -46 -43 -114zM277 -253q-40 0 -76 11.5t-66.5 32t-53.5 49t-38 63.5l101 42q18 -42 53 -68t80 -26q141 0 141 166v27h-4q-50 -60 -139 -60q-101 0 -178 77
q-75 78 -75 186q0 109 75 187q76 78 178 78q89 0 139 -59h4v43h110v-474q0 -132 -66.5 -203.5t-184.5 -71.5z" />
    <glyph glyph-name="l.logo" horiz-adv-x="187" 
d="M42 776h116v-776h-116v776z" />
    <glyph glyph-name="e.logo" horiz-adv-x="514" 
d="M289 -16q-112 0 -187 76t-75 188q0 113 71 189q72 75 178 75q39 0 74 -12t64 -34.5t51.5 -53.5t36.5 -68l12 -30l-353 -146q41 -80 128 -80q81 0 130 73l90 -60q-80 -117 -220 -117zM280 410q-54 0 -98 -44q-42 -43 -40 -110l236 98q-10 25 -37 40.5t-61 15.5z" />
    <glyph glyph-name="e.salt" horiz-adv-x="536" 
d="M290 -16q-56 0 -104 20t-83 55t-55.5 82.5t-20.5 103.5q0 55 18.5 102.5t51.5 82.5t78.5 55.5t100.5 20.5q44 0 81 -14t66.5 -39.5t50.5 -60t32 -76.5l-370 -151q20 -46 63 -70t91 -24q43 0 80.5 18.5t59.5 54.5q22 -14 38.5 -25l37.5 -25q-39 -51 -94.5 -80.5
t-121.5 -29.5zM281 421q-34 0 -65 -14.5t-53.5 -38.5t-34.5 -56.5t-9 -68.5l282 110q-6 15 -18 27.5t-28.5 21.5t-35.5 14t-38 5z" />
    <glyph glyph-name="eacute.salt" horiz-adv-x="536" 
d="M290 -16q-56 0 -104 20t-83 55t-55.5 82.5t-20.5 103.5q0 55 18.5 102.5t51.5 82.5t78.5 55.5t100.5 20.5q44 0 81 -14t66.5 -39.5t50.5 -60t32 -76.5l-370 -151q20 -46 63 -70t91 -24q43 0 80.5 18.5t59.5 54.5q22 -14 38.5 -25l37.5 -25q-39 -51 -94.5 -80.5
t-121.5 -29.5zM281 421q-34 0 -65 -14.5t-53.5 -38.5t-34.5 -56.5t-9 -68.5l282 110q-6 15 -18 27.5t-28.5 21.5t-35.5 14t-38 5zM402 710l-102 -141h-85l82 141h105z" />
    <glyph glyph-name="egrave.salt" horiz-adv-x="536" 
d="M290 -16q-56 0 -104 20t-83 55t-55.5 82.5t-20.5 103.5q0 55 18.5 102.5t51.5 82.5t78.5 55.5t100.5 20.5q44 0 81 -14t66.5 -39.5t50.5 -60t32 -76.5l-370 -151q20 -46 63 -70t91 -24q43 0 80.5 18.5t59.5 54.5q22 -14 38.5 -25l37.5 -25q-39 -51 -94.5 -80.5
t-121.5 -29.5zM281 421q-34 0 -65 -14.5t-53.5 -38.5t-34.5 -56.5t-9 -68.5l282 110q-6 15 -18 27.5t-28.5 21.5t-35.5 14t-38 5zM245 710l82 -141h-85l-102 141h105z" />
    <glyph glyph-name="ecircumflex.salt" horiz-adv-x="536" 
d="M290 -16q-56 0 -104 20t-83 55t-55.5 82.5t-20.5 103.5q0 55 18.5 102.5t51.5 82.5t78.5 55.5t100.5 20.5q44 0 81 -14t66.5 -39.5t50.5 -60t32 -76.5l-370 -151q20 -46 63 -70t91 -24q43 0 80.5 18.5t59.5 54.5q22 -14 38.5 -25l37.5 -25q-39 -51 -94.5 -80.5
t-121.5 -29.5zM281 421q-34 0 -65 -14.5t-53.5 -38.5t-34.5 -56.5t-9 -68.5l282 110q-6 15 -18 27.5t-28.5 21.5t-35.5 14t-38 5zM212 559h-89l108 141h80l108 -141h-89l-59 69z" />
    <glyph glyph-name="uni1EB9.salt" horiz-adv-x="536" 
d="M290 -16q-56 0 -104 20t-83 55t-55.5 82.5t-20.5 103.5q0 55 18.5 102.5t51.5 82.5t78.5 55.5t100.5 20.5q44 0 81 -14t66.5 -39.5t50.5 -60t32 -76.5l-370 -151q20 -46 63 -70t91 -24q43 0 80.5 18.5t59.5 54.5q22 -14 38.5 -25l37.5 -25q-39 -51 -94.5 -80.5
t-121.5 -29.5zM281 421q-34 0 -65 -14.5t-53.5 -38.5t-34.5 -56.5t-9 -68.5l282 110q-6 15 -18 27.5t-28.5 21.5t-35.5 14t-38 5zM337 -154q0 -24 -18 -42t-44 -18q-24 0 -42 18t-18 42q0 26 18 44t42 18q26 0 44 -18t18 -44z" />
    <glyph glyph-name="uni1EBB.salt" horiz-adv-x="536" 
d="M290 -16q-56 0 -104 20t-83 55t-55.5 82.5t-20.5 103.5q0 55 18.5 102.5t51.5 82.5t78.5 55.5t100.5 20.5q44 0 81 -14t66.5 -39.5t50.5 -60t32 -76.5l-370 -151q20 -46 63 -70t91 -24q43 0 80.5 18.5t59.5 54.5q22 -14 38.5 -25l37.5 -25q-39 -51 -94.5 -80.5
t-121.5 -29.5zM281 421q-34 0 -65 -14.5t-53.5 -38.5t-34.5 -56.5t-9 -68.5l282 110q-6 15 -18 27.5t-28.5 21.5t-35.5 14t-38 5zM254 569q0 11 2.5 23t7.5 20q5 9 13 15.5l16 13t14 13.5t6 18q0 8 -7 15t-21 7t-23 -4t-20 -22l-57 22q14 35 39.5 50.5t63.5 15.5
q48 0 73 -22t25 -57q0 -28 -12 -43t-25 -25q-8 -8 -17 -16t-11 -24h-67z" />
    <glyph glyph-name="uni1EBD.salt" horiz-adv-x="536" 
d="M290 -16q-56 0 -104 20t-83 55t-55.5 82.5t-20.5 103.5q0 55 18.5 102.5t51.5 82.5t78.5 55.5t100.5 20.5q44 0 81 -14t66.5 -39.5t50.5 -60t32 -76.5l-370 -151q20 -46 63 -70t91 -24q43 0 80.5 18.5t59.5 54.5q22 -14 38.5 -25l37.5 -25q-39 -51 -94.5 -80.5
t-121.5 -29.5zM281 421q-34 0 -65 -14.5t-53.5 -38.5t-34.5 -56.5t-9 -68.5l282 110q-6 15 -18 27.5t-28.5 21.5t-35.5 14t-38 5zM337 559q-29 0 -57 20t-41 20q-28 0 -29 -31h-70q0 48 24 77.5t67 29.5q32 0 58 -20t40 -20q28 0 29 31h70q0 -48 -23 -77.5t-68 -29.5z" />
    <glyph glyph-name="uni1EBF.salt" horiz-adv-x="536" 
d="M290 -16q-56 0 -104 20t-83 55t-55.5 82.5t-20.5 103.5q0 55 18.5 102.5t51.5 82.5t78.5 55.5t100.5 20.5q44 0 81 -14t66.5 -39.5t50.5 -60t32 -76.5l-370 -151q20 -46 63 -70t91 -24q43 0 80.5 18.5t59.5 54.5q22 -14 38.5 -25l37.5 -25q-39 -51 -94.5 -80.5
t-121.5 -29.5zM281 421q-34 0 -65 -14.5t-53.5 -38.5t-34.5 -56.5t-9 -68.5l282 110q-6 15 -18 27.5t-28.5 21.5t-35.5 14t-38 5zM213 559h-89l108 126h80l108 -126h-89l-59 62zM538 774l-83 -113h-80l63 113h100z" />
    <glyph glyph-name="uni1EC1.salt" horiz-adv-x="536" 
d="M290 -16q-56 0 -104 20t-83 55t-55.5 82.5t-20.5 103.5q0 55 18.5 102.5t51.5 82.5t78.5 55.5t100.5 20.5q44 0 81 -14t66.5 -39.5t50.5 -60t32 -76.5l-370 -151q20 -46 63 -70t91 -24q43 0 80.5 18.5t59.5 54.5q22 -14 38.5 -25l37.5 -25q-39 -51 -94.5 -80.5
t-121.5 -29.5zM281 421q-34 0 -65 -14.5t-53.5 -38.5t-34.5 -56.5t-9 -68.5l282 110q-6 15 -18 27.5t-28.5 21.5t-35.5 14t-38 5zM406 774l63 -113h-80l-83 113h100zM212 559h-89l108 126h80l108 -126h-89l-59 62z" />
    <glyph glyph-name="uni1EC3.salt" horiz-adv-x="536" 
d="M290 -16q-56 0 -104 20t-83 55t-55.5 82.5t-20.5 103.5q0 55 18.5 102.5t51.5 82.5t78.5 55.5t100.5 20.5q44 0 81 -14t66.5 -39.5t50.5 -60t32 -76.5l-370 -151q20 -46 63 -70t91 -24q43 0 80.5 18.5t59.5 54.5q22 -14 38.5 -25l37.5 -25q-39 -51 -94.5 -80.5
t-121.5 -29.5zM281 421q-34 0 -65 -14.5t-53.5 -38.5t-34.5 -56.5t-9 -68.5l282 110q-6 15 -18 27.5t-28.5 21.5t-35.5 14t-38 5zM212 559h-89l108 126h80l108 -126h-89l-59 62zM384 651q0 9 2.5 18t7.5 16t13 12.5t16 10.5t13.5 11t5.5 14q0 15 -27 15q-6 0 -16 -1.5
t-20 -16.5l-59 18q14 28 39 40.5t62 12.5q48 0 72 -17t24 -46q0 -23 -11.5 -35t-23.5 -19q-8 -7 -17.5 -13.5t-11.5 -19.5h-69z" />
    <glyph glyph-name="uni1EC5.salt" horiz-adv-x="536" 
d="M290 -16q-56 0 -104 20t-83 55t-55.5 82.5t-20.5 103.5q0 55 18.5 102.5t51.5 82.5t78.5 55.5t100.5 20.5q44 0 81 -14t66.5 -39.5t50.5 -60t32 -76.5l-370 -151q20 -46 63 -70t91 -24q43 0 80.5 18.5t59.5 54.5q22 -14 38.5 -25l37.5 -25q-39 -51 -94.5 -80.5
t-121.5 -29.5zM281 421q-34 0 -65 -14.5t-53.5 -38.5t-34.5 -56.5t-9 -68.5l282 110q-6 15 -18 27.5t-28.5 21.5t-35.5 14t-38 5zM212 559h-89l108 116h80l108 -116h-89l-59 57zM327 701q-31 0 -56 18q-26 18 -40 18q-26 0 -28 -29h-69q0 42 23.5 67t65.5 25q33 0 57 -18
q25 -18 39 -18q27 0 28 28h69q0 -42 -23 -66.5t-66 -24.5z" />
    <glyph glyph-name="uni1EC7.salt" horiz-adv-x="536" 
d="M290 -16q-56 0 -104 20t-83 55t-55.5 82.5t-20.5 103.5q0 55 18.5 102.5t51.5 82.5t78.5 55.5t100.5 20.5q44 0 81 -14t66.5 -39.5t50.5 -60t32 -76.5l-370 -151q20 -46 63 -70t91 -24q43 0 80.5 18.5t59.5 54.5q22 -14 38.5 -25l37.5 -25q-39 -51 -94.5 -80.5
t-121.5 -29.5zM281 421q-34 0 -65 -14.5t-53.5 -38.5t-34.5 -56.5t-9 -68.5l282 110q-6 15 -18 27.5t-28.5 21.5t-35.5 14t-38 5zM212 559h-89l108 141h80l108 -141h-89l-59 69zM337 -154q0 -24 -18 -42t-44 -18q-24 0 -42 18t-18 42q0 26 18 44t42 18q26 0 44 -18t18 -44z
" />
    </font>
</defs>
</svg>
