<svg xmlns="http://www.w3.org/2000/svg" width="60" height="60" viewBox="0 0 60 60">
    <defs>
        <filter id="a" width="153.8%" height="141.2%" x="-26.9%" y="-14.7%" filterUnits="objectBoundingBox">
            <feOffset dy="2" in="SourceAlpha" result="shadowOffsetOuter1"/>
            <feGaussianBlur in="shadowOffsetOuter1" result="shadowBlurOuter1" stdDeviation="2"/>
            <feColorMatrix in="shadowBlurOuter1" result="shadowMatrixOuter1" values="0 0 0 0 0.681414753 0 0 0 0 0.58834347 0 0 0 0 0 0 0 0 1 0"/>
            <feMerge>
                <feMergeNode in="shadowMatrixOuter1"/>
                <feMergeNode in="SourceGraphic"/>
            </feMerge>
        </filter>
    </defs>
    <g fill="none" fill-rule="evenodd">
        <circle cx="30" cy="30" r="30" fill="#7ED321"/>
        <g fill-rule="nonzero" filter="url(#a)" transform="translate(17 13)">
            <path fill="#F46262" d="M20 25H7V.565C7 .253 7.255 0 7.57 0h11.86c.315 0 .57.253.57.565V25z"/>
            <path fill="#D65B5B" d="M10 0H7.643C7.288 0 7 .253 7 .565V25h2.357V.565C9.357.253 9.645 0 10 0z"/>
            <path fill="#EAEAEA" d="M11 0h4v25h-4z"/>
            <path fill="#D8D7DA" d="M11 0h2v25h-2z"/>
            <path fill="#D65B5B" d="M15 0h2v25h-2z"/>
            <path fill="#FFCD00" d="M13.622 9.292c1.266-2.278 4.736-1.348 4.693 1.258a.712.712 0 0 0 1.078.622c2.235-1.34 4.775 1.2 3.435 3.435a.712.712 0 0 0 .622 1.078c2.606-.043 3.536 3.427 1.257 4.693a.712.712 0 0 0 0 1.244c2.279 1.266 1.349 4.736-1.257 4.693a.712.712 0 0 0-.622 1.078c1.34 2.235-1.2 4.775-3.435 3.435a.712.712 0 0 0-1.078.622c.043 2.606-3.427 3.536-4.693 1.258a.712.712 0 0 0-1.244 0c-1.266 2.278-4.736 1.348-4.693-1.258a.712.712 0 0 0-1.078-.622c-2.235 1.34-4.775-1.2-3.435-3.435a.712.712 0 0 0-.622-1.078c-2.606.043-3.536-3.427-1.258-4.693a.712.712 0 0 0 0-1.244c-2.278-1.266-1.348-4.736 1.258-4.693.558.01.91-.599.622-1.078-1.34-2.235 1.2-4.775 3.435-3.435a.712.712 0 0 0 1.078-.622c-.043-2.606 3.427-3.536 4.693-1.258a.712.712 0 0 0 1.244 0z"/>
            <path fill="#FFEB99" d="M23 21c0 5.523-4.477 10-10 10S3 26.523 3 21s4.477-10 10-10 10 4.477 10 10z"/>
            <path fill="#FFDE55" d="M13 29c-4.411 0-8-3.589-8-8s3.589-8 8-8 8 3.589 8 8-3.589 8-8 8z"/>
            <g fill="#222223">
                <path d="M12.993 21.943c-.666 0-1.205-.467-1.205-1.042v-.602c0-.1.093-.18.208-.18h1.994c.115 0 .208.08.208.18v.602c0 .575-.54 1.042-1.205 1.042zM17.457 20.61c-.282 0-.51-.198-.51-.441v-.688c0-.244.228-.441.51-.441.281 0 .51.197.51.44v.689c0 .243-.229.44-.51.44zM8.53 20.61c-.282 0-.51-.198-.51-.441v-.688c0-.244.228-.441.51-.441.282 0 .51.197.51.44v.689c0 .243-.228.44-.51.44z"/>
            </g>
            <path fill="#F46262" d="M18.438 22h-.876c-.31 0-.562-.224-.562-.5s.251-.5.562-.5h.876c.31 0 .562.224.562.5s-.251.5-.562.5zM9.438 22h-.876c-.31 0-.562-.224-.562-.5s.252-.5.562-.5h.876c.31 0 .562.224.562.5s-.252.5-.562.5z"/>
        </g>
    </g>
</svg>
