<svg xmlns="http://www.w3.org/2000/svg" width="40" height="40" viewBox="0 0 40 40">
    <g fill="#00B2FF" fill-rule="nonzero">
        <path d="M26 17.333a.667.667 0 1 0 .002 1.335.667.667 0 0 0-.002-1.335zM32.667 17.333a.667.667 0 1 0 .001 1.335.667.667 0 0 0-.001-1.335zM7.333 17.333a.667.667 0 1 0 .002 1.335.667.667 0 0 0-.002-1.335zM12.667 17.333a.667.667 0 1 0 .001 1.335.667.667 0 0 0-.001-1.335z"/>
        <path d="M39.674 30.669a.586.586 0 1 0-1.136.295c.145.568.236 1.152.272 1.74H27.707a2.107 2.107 0 0 0-.482-.14v-.041a7.494 7.494 0 0 0-3.399-6.285 9.024 9.024 0 0 1 3.015-1.708 3.057 3.057 0 0 0 2.866 2.025c1.3 0 2.433-.832 2.864-2.02a9.146 9.146 0 0 1 5.156 4.351c.163.303.558.4.842.21a.6.6 0 0 0 .189-.775 10.406 10.406 0 0 0-1.677-2.296c.542-.409 1.01-1.03 1.396-1.86 1.534-3.294 1.53-9.586.451-12.426a9.926 9.926 0 0 0-3.625-4.649 9.762 9.762 0 0 0-5.596-1.757 9.816 9.816 0 0 0-6.51 2.475.596.596 0 0 0-.054.835c.214.246.584.27.828.055a8.65 8.65 0 0 1 5.736-2.181c1.769 0 3.474.535 4.931 1.548a8.749 8.749 0 0 1 3.195 4.097c.978 2.574.977 8.504-.418 11.499-.353.76-.766 1.276-1.228 1.542a10.262 10.262 0 0 0-3.39-1.84 7.264 7.264 0 0 0 4.093-6.543v-1.198a.59.59 0 0 0-.487-.583c-2.903-.504-4.912-3.477-4.931-3.506a.59.59 0 0 0-1.03.106c-.014.034-1.438 3.392-7.332 3.392a.59.59 0 0 0-.587.591v1.198a7.264 7.264 0 0 0 4.09 6.541 10.168 10.168 0 0 0-3.387 1.841c-.462-.266-.874-.782-1.228-1.541-1.394-2.995-1.395-8.925-.417-11.499a8.85 8.85 0 0 1 .932-1.8.595.595 0 0 0-.156-.822.583.583 0 0 0-.814.157 10.042 10.042 0 0 0-1.057 2.041c-1.08 2.841-1.083 9.133.451 12.426.195.42.412.785.648 1.097a7.323 7.323 0 0 0-1.596-.213c-.059-.463-.099-1.119.013-1.63a.587.587 0 1 0-1.145-.254c-.11.5-.113 1.055-.081 1.523-.921-.595-1.097-1.495-1.107-1.55a.587.587 0 1 0-1.157.194c.01.064.202 1.16 1.191 2.025a7.343 7.343 0 0 0-.537.185 10.217 10.217 0 0 0-3.78-2.18 7.255 7.255 0 0 0 2.986-2.683c.3.156.634.24.977.24a2.15 2.15 0 0 0 2.138-2.158c0-.46-.145-.888-.39-1.239 1.531-4.485.856-7.112.004-8.533-.85-1.418-2.262-2.33-3.977-2.566a5.03 5.03 0 0 0-2.775.417c-.816-.98-1.744-1.506-3.669-1.506-2.21 0-5.342 1.157-6.998 3.696-1.839 2.817-1.172 6.13-.214 8.522a2.16 2.16 0 0 0-.368 1.21c0 1.19.959 2.157 2.138 2.157.343 0 .677-.084.977-.24a7.255 7.255 0 0 0 2.981 2.682 10.216 10.216 0 0 0-4.33 2.721.602.602 0 0 0-.028.787c.22.268.635.284.874.033a9.058 9.058 0 0 1 3.716-2.372 3.057 3.057 0 0 0 2.865 2.026 3.057 3.057 0 0 0 2.865-2.023c1.033.344 2 .875 2.858 1.575a7.494 7.494 0 0 0-3.608 6.416v.04c-.168.029-.33.077-.482.142H1.19a9.256 9.256 0 0 1 1.196-4.022.595.595 0 0 0-.215-.809.584.584 0 0 0-.8.217A10.46 10.46 0 0 0 0 33.273v.024a.59.59 0 0 0 .586.592h10.191c-.099.248-.154.519-.154.802 0 1.19.96 2.158 2.138 2.158.309 0 .61-.067.884-.193C14.974 38.67 17.245 40 19.816 40c2.573 0 4.843-1.33 6.172-3.344.275.126.575.193.884.193a2.15 2.15 0 0 0 2.138-2.158c0-.283-.055-.554-.154-.802h10.558a.59.59 0 0 0 .586-.592v-.024c0-.882-.11-1.758-.326-2.604zM17.349 19.735a.945.945 0 0 1-.434-.106c.242-.579.411-1.196.497-1.84a.971.971 0 0 1 .902.971.97.97 0 0 1-.965.975zM2.66 9.68C4.08 7.507 6.775 6.517 8.68 6.517c1.86 0 2.389.54 3.038 1.429a.586.586 0 0 0 .798.14c.01-.007 1.047-.686 2.449-.492 1.357.188 2.47.9 3.132 2.007.988 1.647.992 4.108.02 7.146a2.106 2.106 0 0 0-.64-.14v-.985a.59.59 0 0 0-.488-.583c-2.902-.504-4.911-3.477-4.93-3.506a.588.588 0 0 0-1.03.102c-.003.008-.368.856-1.437 1.691-1.428 1.115-3.467 1.704-5.896 1.704a.59.59 0 0 0-.586.592v.985c-.242.014-.474.07-.688.159-1.062-2.832-.983-5.213.24-7.086zm.577 10.055a.971.971 0 0 1-.966-.975c0-.515.4-.937.902-.97.086.643.255 1.26.497 1.838a.95.95 0 0 1-.433.107zm1.06-2.512l-.001-.009a6.162 6.162 0 0 1-.014-.394v-.616c4.448-.161 6.514-2.136 7.348-3.293.807.968 2.459 2.626 4.673 3.19v.719c0 .132-.006.264-.014.394v.009c-.207 3.157-2.817 5.662-5.997 5.662-3.18 0-5.79-2.505-5.996-5.662zm5.995 8.149a1.88 1.88 0 0 1-1.721-1.14 9.167 9.167 0 0 1 3.442 0 1.88 1.88 0 0 1-1.72 1.14zm19.414 0a1.88 1.88 0 0 1-1.721-1.14 9.136 9.136 0 0 1 3.44.003 1.88 1.88 0 0 1-1.72 1.137zm-6.01-8.552v-.616c4.447-.161 6.514-2.136 7.348-3.293.807.968 2.458 2.625 4.672 3.19v.719c0 3.344-2.696 6.065-6.01 6.065-3.314 0-6.01-2.72-6.01-6.065zM12.76 35.666a.971.971 0 0 1-.965-.975c0-.449.302-.826.712-.939.108.652.299 1.277.562 1.86a.945.945 0 0 1-.309.054zm7.055 3.15c-3.438 0-6.236-2.823-6.236-6.293s2.798-6.294 6.236-6.294c3.44 0 6.237 2.824 6.237 6.294 0 3.47-2.798 6.293-6.237 6.293zm7.056-3.15a.945.945 0 0 1-.31-.053 7.467 7.467 0 0 0 .563-1.86c.41.112.712.49.712.938a.971.971 0 0 1-.965.975z"/>
        <path d="M16.667 32a.667.667 0 1 0 .001 1.335.667.667 0 0 0-.001-1.335zM22 32a.667.667 0 1 0 .002 1.335A.667.667 0 0 0 22 32zM19.124 5.399a10.18 10.18 0 0 0 1.947 1.212.646.646 0 0 0 .525 0 10.18 10.18 0 0 0 1.946-1.212c1.323-1.062 1.932-2.23 1.764-3.378C25.104.646 24.056.081 23.143.01c-.693-.055-1.349.149-1.81.522-.46-.373-1.117-.577-1.81-.522-.913.071-1.96.637-2.162 2.012-.169 1.148.441 2.316 1.763 3.378zm-.573-3.226c.125-.85.726-1.022 1.073-1.049.039-.003.078-.004.116-.004.477 0 .912.228 1.02.547.078.234.31.393.573.393a.598.598 0 0 0 .574-.393c.116-.345.615-.584 1.136-.543.347.027.948.2 1.072 1.049.212 1.44-1.74 2.766-2.782 3.303-1.041-.537-2.993-1.864-2.782-3.303z"/>
    </g>
</svg>
