<svg xmlns="http://www.w3.org/2000/svg" width="44" height="40" viewBox="0 0 44 40">
    <g fill="#00B2FF" fill-rule="nonzero">
        <path d="M36.546 16.855c-.34-.123-.726.023-.864.326-.371.818-1.252 1.346-2.242 1.346a2.564 2.564 0 0 1-1.712-.632 2.13 2.13 0 0 1-.53-.713c-.137-.303-.523-.45-.863-.327-.34.122-.504.467-.367.77.188.415.465.787.823 1.107.709.63 1.65.978 2.65.978 1.532 0 2.895-.818 3.47-2.084.138-.303-.026-.648-.365-.77zM29.627 12.754c-.486 0-.88.203-.88.453v.252c0 .25.394.454.88.454s.88-.203.88-.454v-.252c0-.25-.394-.453-.88-.453zM37.253 12.754c-.486 0-.88.203-.88.453v.252c0 .25.394.454.88.454s.88-.203.88-.454v-.252c0-.25-.394-.453-.88-.453zM14.253 16.855c-.34-.123-.726.023-.864.326-.372.818-1.252 1.346-2.242 1.346a2.565 2.565 0 0 1-1.712-.632 2.13 2.13 0 0 1-.53-.713c-.137-.303-.524-.45-.863-.327-.34.122-.504.467-.367.77.188.415.464.787.823 1.107.708.63 1.65.978 2.649.978 1.533 0 2.895-.818 3.47-2.084.139-.303-.025-.648-.364-.77zM7.627 12.754c-.324 0-.587.203-.587.453v.252c0 .25.263.454.587.454.324 0 .586-.203.586-.454v-.252c0-.25-.262-.453-.586-.453zM14.96 12.754c-.486 0-.88.203-.88.453v.252c0 .25.394.454.88.454s.88-.203.88-.454v-.252c0-.25-.394-.453-.88-.453z"/>
        <path d="M43.355 9.203a.642.642 0 0 0 .645-.64V6.79c0-2.521-2.067-4.572-4.607-4.572h-.867l-.105-.242A3.301 3.301 0 0 0 35.391 0h-4.276c-4.55 0-8.251 3.674-8.251 8.189v13.06c0 1.894 1.552 3.434 3.46 3.434h3.686v.903H14.75v-1.22a8.044 8.044 0 0 0 2.127-1.446 7.925 7.925 0 0 0 2.43-4.757 2.367 2.367 0 0 0 2.37-2.355v-.811c0-.574-.208-1.1-.553-1.51l1.483-5.826a.645.645 0 0 0-1.25-.313l-1.373 5.393a2.376 2.376 0 0 0-.61-.098v-2.159a.638.638 0 0 0-.261-.514.648.648 0 0 0-.573-.097c-3.532 1.075-6.627 1.018-8.952-.165-1.74-.886-2.463-2.109-2.469-2.118a.647.647 0 0 0-1.206.313c0 1.585-.341 1.928-2.026 2.04a.642.642 0 0 0-.601.639v2.061a2.376 2.376 0 0 0-.675.118c-.278-1.047-.455-1.824-.505-2.226-.1-.8-.031-3.187.004-4.039A1.909 1.909 0 0 1 4.023 4.57h.978c.17 0 .335-.067.456-.187l2.305-2.288a1.936 1.936 0 0 1 1.797-.505l8.107 1.914a5.685 5.685 0 0 0 4.821-1.067c.016-.012.036-.028.075-.003.04.024.033.049.028.069l-.488 1.917a.645.645 0 0 0 1.25.313l.488-1.917a1.32 1.32 0 0 0-.579-1.457 1.344 1.344 0 0 0-1.577.078 4.393 4.393 0 0 1-3.72.823L9.859.346a3.24 3.24 0 0 0-3.007.844L4.734 3.291h-.71C2.262 3.291.828 4.71.82 6.456c-.01.248-.127 3.191.005 4.236.066.53.288 1.49.661 2.853-.316.4-.506.905-.506 1.452v.811a2.366 2.366 0 0 0 2.37 2.355c.355 2.765 2.127 5.068 4.556 6.202v1.221H6.565c-.394 0-.782.043-1.16.128a1.827 1.827 0 0 0-1.584-.915H2.25A2.245 2.245 0 0 0 0 27.033v3.48c0 .899.538 1.675 1.311 2.029v6.818c0 .354.289.64.645.64H20.7a.642.642 0 0 0 .645-.64V30.8c0-1.57-.703-2.978-1.812-3.935H30.01v.32c0 1.844 2.79 3.44 3.109 3.616a.648.648 0 0 0 .627 0c.318-.176 3.107-1.772 3.107-3.617v-.319h1.343c2.186 0 3.964 1.765 3.964 3.935v7.92h-1.807v-4.285a.642.642 0 0 0-.644-.64.642.642 0 0 0-.645.64v4.286H27.8v-7.357a.642.642 0 0 0-.645-.64H23.29a.642.642 0 0 0-.644.64c0 .353.288.64.644.64h3.222v7.356c0 .354.288.64.644.64h15.65a.642.642 0 0 0 .644-.64V30.8c0-2.875-2.357-5.214-5.253-5.214h-1.343v-.903h3.688c1.907 0 3.459-1.54 3.459-3.434v-9.666a.642.642 0 0 0-.645-.64.642.642 0 0 0-.644.64v1.448a2.368 2.368 0 0 0-1.235-.388V9.559c0-1.47-.446-2.883-1.29-4.086a.645.645 0 0 0-.937-.129 16 16 0 0 1-13.088 3.29.649.649 0 0 0-.52.125.638.638 0 0 0-.246.471 6.284 6.284 0 0 0-.008.329v3.084a2.37 2.37 0 0 0-1.234.388V8.19c0-3.81 3.123-6.91 6.962-6.91h4.276c.803 0 1.528.473 1.847 1.204l.273.627a.645.645 0 0 0 .592.386h1.29c1.83 0 3.318 1.477 3.318 3.293v1.774c0 .354.288.64.644.64zM4.583 17.491a.642.642 0 0 0-.644-.607h-.586a1.08 1.08 0 0 1-1.083-1.076v-.811a1.08 1.08 0 0 1 1.083-1.076h.576a.642.642 0 0 0 .645-.64V11.16c1.343-.19 2.099-.71 2.427-1.722a8.34 8.34 0 0 0 1.914 1.366c3.01 1.572 6.514 1.22 9.169.528v1.95c0 .354.288.64.645.64h.575c.597 0 1.083.483 1.083 1.076v.811c0 .593-.486 1.076-1.083 1.076h-.587a.642.642 0 0 0-.643.606 6.654 6.654 0 0 1-2.088 4.504 6.749 6.749 0 0 1-4.657 1.849 6.79 6.79 0 0 1-2.518-.481c-.012-.006-.025-.01-.037-.015-2.355-.954-4.052-3.188-4.191-5.856zm8.877 7.346v2.347a2.126 2.126 0 0 1-2.132 2.116 2.126 2.126 0 0 1-2.132-2.116v-2.347a8.118 8.118 0 0 0 4.264 0zM1.29 30.513v-3.48a.96.96 0 0 1 .961-.955h1.57c.295 0 .536.238.536.532v4.326c0 .293-.24.531-.536.531H2.25a.96.96 0 0 1-.962-.954zm18.767.287v7.92H18.25v-4.285a.642.642 0 0 0-.645-.64.642.642 0 0 0-.644.64v4.286H5.696v-4.286a.642.642 0 0 0-.645-.64.642.642 0 0 0-.644.64v4.286H2.6v-5.974h1.22a1.82 1.82 0 0 0 1.826-1.811v-3.964a4 4 0 0 1 .919-.107h1.342v.32c0 1.871 1.535 3.395 3.421 3.395.915 0 1.774-.354 2.42-.995a3.36 3.36 0 0 0 1.001-2.4v-.32h1.344c2.186 0 3.964 1.765 3.964 3.935zm15.507-3.616c0 .71-1.16 1.711-2.132 2.315-.973-.604-2.133-1.606-2.133-2.315v-2.347a8.114 8.114 0 0 0 4.265 0v2.347zm7.147-9.41v3.475a2.165 2.165 0 0 1-2.17 2.155h-2.123c.193-.152.38-.313.561-.484a7.93 7.93 0 0 0 2.43-4.757c.481 0 .928-.144 1.302-.389zm-17.254-3.853h.575a.642.642 0 0 0 .644-.64V10.02a17.31 17.31 0 0 0 12.81-3.234c.46.849.7 1.796.7 2.774v3.723c0 .353.29.64.645.64h.576a1.08 1.08 0 0 1 1.083 1.075v.811a1.08 1.08 0 0 1-1.083 1.076h-.586a.642.642 0 0 0-.644.607 6.657 6.657 0 0 1-2.087 4.503 6.75 6.75 0 0 1-4.659 1.849c-.888 0-1.738-.17-2.516-.481l-.038-.015c-2.355-.954-4.051-3.189-4.19-5.856a.642.642 0 0 0-.644-.607h-.586a1.081 1.081 0 0 1-1.084-1.076v-.811c0-.593.486-1.076 1.084-1.076zm-.003 4.242a7.946 7.946 0 0 0 2.991 5.24h-2.121a2.165 2.165 0 0 1-2.171-2.154v-3.475c.373.245.82.389 1.301.39z"/>
    </g>
</svg>
