<svg xmlns="http://www.w3.org/2000/svg" width="47" height="40" viewBox="0 0 47 40">
    <g fill="#00B2FF" fill-rule="nonzero">
        <path d="M8.355 17.346a5.683 5.683 0 0 0 4.746-2.555c.511.495 1.192.81 1.943.846 1.408 3.035 4.387 4.97 7.723 4.97h2.092c3.336 0 6.317-1.936 7.724-4.972a2.967 2.967 0 0 0 1.906-.86 5.673 5.673 0 0 0 4.759 2.571c.62 0 1.124-.512 1.124-1.14V8.37c0-2.663-2.134-4.83-4.757-4.83h-1.647a1.835 1.835 0 0 0-1.687-1.133h-.33a1.81 1.81 0 0 0-.933.262C29.462 1.025 27.276 0 24.859 0h-2.092c-2.422 0-4.61 1.029-6.167 2.678a1.81 1.81 0 0 0-.948-.27h-.33c-.757 0-1.408.468-1.687 1.134h-1.647c-2.623 0-4.757 2.167-4.757 4.83v7.833c0 .63.504 1.141 1.124 1.141zm24.044-3.112c-.046 0-.098-.005-.164-.014a.69.69 0 0 0-.74.433c-1.1 2.762-3.704 4.546-6.636 4.546h-2.092c-2.935 0-5.54-1.787-6.638-4.553a.693.693 0 0 0-.765-.43.96.96 0 0 1-.176.018c-.905 0-1.64-.747-1.64-1.665v-.786a.995.995 0 0 1 .986-1.001h.386a.698.698 0 0 0 .693-.704v-.08a7.15 7.15 0 0 1 5.623-2.774h5.154a7.15 7.15 0 0 1 5.623 2.774v.08c0 .389.31.704.693.704h.172c.624 0 1.13.514 1.13 1.148v.669c.001.901-.722 1.635-1.61 1.635zm6.587-5.863v7.56a4.318 4.318 0 0 1-3.688-2.565c.062-.245.097-.502.097-.767v-.67c0-.565-.184-1.088-.492-1.511 0 0-.008-1.31-.024-1.471a.695.695 0 0 0-.758-.63.7.7 0 0 0-.62.77c.01.114.016.231.016.347v.027c-.039-.01-.078-.023-.118-.03V8.67a8.87 8.87 0 0 0-.1-1.33c.494-.338.815-.912.815-1.543v-.849h1.5c1.86 0 3.372 1.536 3.372 3.423zM31.95 3.815h.331a.45.45 0 0 1 .447.453V5.3a8.717 8.717 0 0 0-.796-1.484l.018-.001zm-9.183-2.408h2.092c3.7 0 6.754 2.867 7.118 6.528a8.502 8.502 0 0 0-5.587-2.118h-5.154c-2.062 0-4.048.77-5.587 2.118.364-3.661 3.418-6.528 7.118-6.528zm-7.446 2.408h.331l.041.002a8.7 8.7 0 0 0-.818 1.542V4.268c0-.25.2-.453.446-.453zM8.616 8.37c0-1.887 1.513-3.423 3.372-3.423h1.501v.849c0 .645.329 1.224.836 1.559a8.858 8.858 0 0 0-.098 1.314v.725a2.267 2.267 0 0 0-.142.023c0-.11.006-.22.017-.33a.7.7 0 0 0-.62-.77.696.696 0 0 0-.759.63c-.016.16-.024 1.31-.024 1.31a2.419 2.419 0 0 0-.537 1.525v.786c0 .295.042.58.119.85a4.327 4.327 0 0 1-3.665 2.513v-7.56z"/>
        <path d="M21.09 11.212c0 .502-.405.91-.904.91a.906.906 0 0 1-.904-.91c0-.502.405-.909.904-.909.5 0 .904.407.904.91zM27.718 11.212c0 .502-.405.91-.904.91a.906.906 0 0 1-.904-.91c0-.502.405-.909.904-.909.5 0 .904.407.904.91zM26.664 12.727h-6.328c-.299 0-.585.125-.784.344-.2.219-.296.511-.264.803.235 2.11 2.046 3.702 4.212 3.702s3.977-1.591 4.212-3.702a1.025 1.025 0 0 0-.264-.803 1.065 1.065 0 0 0-.784-.344zM23.5 16.193c-1.31 0-2.425-.872-2.74-2.083h5.48c-.315 1.211-1.43 2.083-2.74 2.083zM44.981 28.824v-.76c0-4.78-3.875-8.67-8.638-8.67h-2.116c-4.763 0-8.638 3.89-8.638 8.67v.725a2.409 2.409 0 0 0-2.089 2.388v.786a3.07 3.07 0 0 0 2.916 3.068A8.596 8.596 0 0 0 34.227 40h2.116a8.598 8.598 0 0 0 7.813-4.97A3.04 3.04 0 0 0 47 31.992v-.67a2.556 2.556 0 0 0-2.019-2.499zm-10.754-8.023h2.116c3.743 0 6.832 2.867 7.2 6.528a8.656 8.656 0 0 0-5.65-2.118h-5.214c-2.086 0-4.095.77-5.651 2.118.368-3.661 3.456-6.528 7.2-6.528zm11.371 11.192c0 .902-.73 1.635-1.629 1.635-.046 0-.098-.004-.165-.014a.699.699 0 0 0-.75.433 7.208 7.208 0 0 1-6.71 4.546h-2.117a7.207 7.207 0 0 1-6.714-4.553.7.7 0 0 0-.774-.43.977.977 0 0 1-.178.018 1.664 1.664 0 0 1-1.66-1.665v-.786a1 1 0 0 1 .998-1.001h.39c.388 0 .702-.315.702-.704v-.08a7.263 7.263 0 0 1 5.688-2.774h5.213a7.263 7.263 0 0 1 5.688 2.774v.08c0 .389.314.704.7.704h.175c.63 0 1.143.515 1.143 1.147v.67z"/>
        <path d="M33.141 30.606c0 .502-.405.91-.904.91a.906.906 0 0 1-.904-.91c0-.502.405-.909.904-.909.5 0 .904.407.904.91zM39.77 30.606c0 .502-.405.91-.905.91a.906.906 0 0 1-.903-.91c0-.502.404-.909.903-.909.5 0 .904.407.904.91zM38.715 32.727h-6.328c-.299 0-.584.126-.784.344-.2.219-.296.512-.263.804.235 2.11 2.045 3.7 4.211 3.7 2.166 0 3.977-1.59 4.212-3.7a1.023 1.023 0 0 0-.263-.804 1.065 1.065 0 0 0-.785-.344zm-3.164 3.466c-1.31 0-2.425-.872-2.74-2.083h5.48c-.314 1.211-1.43 2.083-2.74 2.083zM21.482 28.824v-.76c0-4.78-3.876-8.67-8.639-8.67h-2.116c-4.763 0-8.638 3.89-8.638 8.67v.725A2.408 2.408 0 0 0 0 31.177v.786a3.07 3.07 0 0 0 2.916 3.068A8.595 8.595 0 0 0 10.727 40h2.116a8.598 8.598 0 0 0 7.813-4.971 3.041 3.041 0 0 0 2.844-3.036v-.67a2.557 2.557 0 0 0-2.018-2.5zm.616 3.169c0 .901-.73 1.635-1.629 1.635-.046 0-.098-.005-.165-.014a.7.7 0 0 0-.75.433 7.208 7.208 0 0 1-6.711 4.546h-2.116a7.206 7.206 0 0 1-6.714-4.553.7.7 0 0 0-.774-.43.98.98 0 0 1-.178.018 1.664 1.664 0 0 1-1.66-1.665v-.786a1 1 0 0 1 .998-1.001h.39c.388 0 .702-.315.702-.704v-.08a7.263 7.263 0 0 1 5.688-2.774h5.213c.476 0 .952.046 1.415.138a.703.703 0 0 0 .272-1.38 8.666 8.666 0 0 0-1.687-.165H9.18c-2.086 0-4.095.77-5.652 2.118.369-3.661 3.457-6.528 7.2-6.528h2.116c3.742 0 6.83 2.865 7.2 6.524a8.713 8.713 0 0 0-1.03-.77.7.7 0 0 0-.967.217.705.705 0 0 0 .216.97 7.26 7.26 0 0 1 1.818 1.652v.078c0 .389.314.703.7.703h.175c.63 0 1.143.515 1.143 1.148v.67z"/>
        <path d="M9.038 30.606c0 .502-.404.91-.903.91a.906.906 0 0 1-.904-.91c0-.502.405-.909.904-.909s.903.407.903.91zM15.667 30.606c0 .502-.405.91-.904.91a.906.906 0 0 1-.904-.91c0-.502.405-.909.904-.909.5 0 .904.407.904.91zM14.613 32.727H8.285c-.3 0-.585.126-.785.344-.2.219-.296.512-.263.804.235 2.11 2.046 3.7 4.212 3.7s3.977-1.59 4.212-3.7a1.025 1.025 0 0 0-.264-.804 1.064 1.064 0 0 0-.784-.344zm-3.164 3.466c-1.31 0-2.426-.872-2.74-2.083h5.48c-.315 1.211-1.43 2.083-2.74 2.083z"/>
    </g>
</svg>
