<svg xmlns="http://www.w3.org/2000/svg" width="60" height="60" viewBox="0 0 60 60">
    <g fill="none" fill-rule="evenodd">
        <circle cx="30" cy="30" r="30" fill="#7ED321"/>
        <g fill-rule="nonzero">
            <path fill="#D8D7DA" d="M30.5 51c-2.481 0-4.5-2.106-4.5-4.694v-3.752c0-.306.238-.554.531-.554.294 0 .532.248.532.554v3.752c0 1.977 1.542 3.585 3.437 3.585 1.895 0 3.437-1.608 3.437-3.585v-3.752c0-.306.238-.554.532-.554.293 0 .531.248.531.554v3.752C35 48.894 32.981 51 30.5 51z"/>
            <path fill="#92DD7A" d="M47.676 28.85c-1.35 5.022-7.694 12.333-12.732 10.988C29.905 38.492 28.08 29 29.43 23.978c1.35-5.02 6.53-8 11.567-6.655 5.039 1.346 8.029 6.507 6.679 11.528z"/>
            <path fill="#7EC66A" d="M29.43 23.978c1.209-4.497 5.49-7.356 9.989-6.937A10.46 10.46 0 0 1 41 22.58c0 2.865-1.123 6.499-2.93 9.486-.933 1.542-1.968 2.784-3.067 3.7a3.01 3.01 0 0 1 .591 2.27l1.939.517a3.027 3.027 0 0 1 1.394.814c-1.344.595-2.706.811-3.984.47-5.038-1.346-6.863-10.839-5.513-15.86z"/>
            <path fill="#B1EF97" d="M36.603 42.934l-4.192-1.139c-1.015-.276-1.618-1.334-1.346-2.364a1.9 1.9 0 0 1 2.332-1.365l4.192 1.14c1.015.275 1.618 1.334 1.346 2.363a1.9 1.9 0 0 1-2.332 1.365z"/>
            <path fill="#92DD7A" d="M33.816 39.942c.255-.897 1.233-1.429 2.184-1.188l-2.755-.696c-.951-.24-1.929.292-2.184 1.188-.255.896.31 1.818 1.26 2.058l2.756.696c-.95-.24-1.516-1.162-1.26-2.058z"/>
            <path fill="#F46262" d="M31.57 23.978c1.35 5.022-.476 14.514-5.514 15.86-5.038 1.345-11.382-5.966-12.732-10.987-1.35-5.021 1.64-10.182 6.678-11.528 5.039-1.345 10.218 1.634 11.568 6.655z"/>
            <path fill="#D65B5B" d="M31.57 23.978c-1.21-4.497-5.49-7.356-9.989-6.937A10.46 10.46 0 0 0 20 22.58c0 2.864 1.122 6.499 2.93 9.486.933 1.542 1.968 2.784 3.067 3.7a3.009 3.009 0 0 0-.591 2.27l-1.939.517a3.024 3.024 0 0 0-1.394.814c1.344.594 2.706.811 3.984.47 5.037-1.346 6.863-10.839 5.513-15.86z"/>
            <path fill="#FF737D" d="M28.589 41.795l-4.192 1.139a1.901 1.901 0 0 1-2.332-1.365c-.272-1.03.33-2.088 1.346-2.364l4.192-1.139a1.9 1.9 0 0 1 2.332 1.365c.272 1.03-.33 2.088-1.346 2.364z"/>
            <path fill="#F46262" d="M24.816 41.058c-.254-.896.31-1.818 1.261-2.058l-2.755.696c-.951.24-1.516 1.162-1.26 2.058.254.897 1.232 1.429 2.183 1.188L27 42.247c-.951.24-1.929-.292-2.184-1.189z"/>
            <path fill="#FFDE55" d="M40 22.288C40 27.417 35.747 36 30.5 36S21 27.417 21 22.288C21 17.158 25.253 13 30.5 13s9.5 4.158 9.5 9.288z"/>
            <path fill="#222223" d="M32 22.5a1.5 1.5 0 1 1-3 0 1.5 1.5 0 0 1 3 0z"/>
            <path fill="#FFCD00" d="M24.052 22.288c0-4.62 3.441-8.452 7.948-9.167A9.727 9.727 0 0 0 30.474 13C25.24 13 21 17.158 21 22.288 21 27.417 25.241 36 30.474 36c.52 0 1.029-.086 1.526-.243-4.507-1.429-7.948-8.85-7.948-13.47z"/>
            <path fill="#222223" d="M35.5 21c-.276 0-.5-.253-.5-.566v-.868c0-.313.224-.566.5-.566s.5.253.5.566v.868c0 .313-.224.566-.5.566zM25.5 21c-.276 0-.5-.253-.5-.566v-.868c0-.313.224-.566.5-.566s.5.253.5.566v.868c0 .313-.224.566-.5.566z"/>
            <path fill="#F46262" d="M35.434 23h-.868c-.313 0-.566-.224-.566-.5s.253-.5.566-.5h.868c.313 0 .566.224.566.5s-.253.5-.566.5zM26.434 23h-.868c-.313 0-.566-.224-.566-.5s.253-.5.566-.5h.868c.313 0 .566.224.566.5s-.253.5-.566.5z"/>
            <path fill="#D8D7DA" d="M30.5 51c-.276 0-.5-.241-.5-.54V39.54c0-.299.224-.54.5-.54s.5.241.5.54v10.92c0 .299-.224.54-.5.54z"/>
            <path fill="#FFEB99" d="M32.13 39h-4.26c-1.033 0-1.87-.895-1.87-2s.837-2 1.87-2h4.26c1.033 0 1.87.895 1.87 2s-.837 2-1.87 2z"/>
            <path fill="#FFDE55" d="M29.077 37c0-1.105.86-2 1.923-2h-3.077C26.861 35 26 35.895 26 37s.861 2 1.923 2H31c-1.062 0-1.923-.895-1.923-2z"/>
        </g>
    </g>
</svg>
