<svg xmlns="http://www.w3.org/2000/svg" width="40" height="40" viewBox="0 0 40 40">
    <g fill="#01B2FF" fill-rule="nonzero">
        <path d="M27 7.658a1.66 1.66 0 0 0-2.832-1.173.575.575 0 0 0 .812.813.51.51 0 0 1 .722.721.575.575 0 0 0 .812.813c.313-.314.486-.73.486-1.174z"/>
        <path d="M39.027 16.555c.566-1.404.87-2.91.888-4.457.034-3.045-1.048-5.907-3.058-8.123a5.183 5.183 0 0 1 2.113-1.212.586.586 0 1 0-.327-1.126 6.356 6.356 0 0 0-2.615 1.51C32.564.006 27.653-.71 23.451.976A4.513 4.513 0 0 0 20.569 0a4.515 4.515 0 0 0-3.141 1.33 4.524 4.524 0 0 0-.83 5.287 2.677 2.677 0 0 0-1.065.169c-2.622.984-6.453 3.568-8.723 5.883a6.37 6.37 0 0 0-1.803 4.813c.03.524.08 1.107.147 1.734-1.535 1.423-2.926 3.218-3.84 4.97-.607 1.162-1.52 3.326-.818 4.763l.008.018a8.186 8.186 0 0 0 1.903 8.626 8.186 8.186 0 0 0 8.626 1.902l.018.01c.343.167.754.25 1.22.25 1.156 0 2.652-.51 4.298-1.49a19.474 19.474 0 0 0 4.212-3.42c.63.069 1.213.118 1.737.148a6.369 6.369 0 0 0 4.813-1.803c1.327-1.3 2.78-3.146 3.987-5.062a.586.586 0 1 0-.991-.625c-1.16 1.843-2.552 3.61-3.816 4.85a5.194 5.194 0 0 1-3.926 1.47 29.486 29.486 0 0 1-.877-.064c.156-.2.304-.401.444-.602a6.181 6.181 0 0 0 1.1-3.625c-.027-2.233-.305-6.078-1.005-10.17l-.021-.122c3.774.756 6.933 1.765 9.172 2.934.68.355.989 1.164.72 1.881-.13.347-.295.726-.489 1.127a.586.586 0 0 0 1.055.51c.21-.433.388-.845.53-1.225.132-.35.185-.711.169-1.065a4.511 4.511 0 0 0 2.076.506 4.53 4.53 0 0 0 3.212-1.335A4.515 4.515 0 0 0 40 19.43a4.516 4.516 0 0 0-.973-2.876zM18.257 2.158a3.35 3.35 0 0 1 3.95-.6A12.527 12.527 0 0 0 17.554 5.9a3.357 3.357 0 0 1 .703-3.742zM3.234 36.765a7.016 7.016 0 0 1-1.797-6.88c.892.574 2.667 1.373 6.294 2.383.431 1.545.868 2.901 1.286 3.987.424 1.102.79 1.824 1.101 2.306a7.016 7.016 0 0 1-6.884-1.796zm17.955-4.277c-1.236 1.778-3.187 3.56-5.22 4.77-1.905 1.133-3.593 1.59-4.405 1.193a.426.426 0 0 1-.058-.035.598.598 0 0 0-.069-.056c-.48-.44-1.44-2.236-2.658-6.695a81.062 81.062 0 0 1-.44-1.68.586.586 0 1 0-1.136.284c.057.23.115.456.173.68-4.445-1.288-5.513-2.136-5.76-2.419l-.013-.015a.423.423 0 0 1-.055-.08c-.625-1.278.92-4.842 3.783-7.76a88.79 88.79 0 0 0 1.242 6.903.586.586 0 0 0 1.144-.25c-.827-3.779-1.403-7.484-1.54-9.913a5.195 5.195 0 0 1 1.469-3.926c2.167-2.211 5.812-4.674 8.298-5.607.717-.27 1.526.04 1.88.72.925 1.77 2.18 5.36 3.089 9.936a.585.585 0 0 0 .03.154 60.815 60.815 0 0 1 1.136 10.853 5.015 5.015 0 0 1-.89 2.943zm11.612-10.64a2.678 2.678 0 0 0-.862-.713c-2.462-1.285-5.805-2.339-9.941-3.134-.6-3.111-1.589-6.98-3.134-9.941a2.678 2.678 0 0 0-.713-.862c.52-.967 1.18-1.854 1.967-2.64C24.443.233 31.4.153 35.623 4.378c4.224 4.224 4.143 11.178-.18 15.502a11.31 11.31 0 0 1-2.641 1.968zm5.04-.104a3.357 3.357 0 0 1-3.743.702 12.526 12.526 0 0 0 2.172-1.737 12.546 12.546 0 0 0 2.173-2.912 3.351 3.351 0 0 1-.602 3.947z"/>
        <path d="M32.341 13c-.443 0-.86.173-1.173.486a.574.574 0 1 0 .813.812.507.507 0 0 1 .72 0 .507.507 0 0 1 0 .722.574.574 0 1 0 .813.812c.313-.314.486-.73.486-1.173 0-.443-.173-.86-.486-1.173A1.648 1.648 0 0 0 32.341 13zM28.337 12.758a1.028 1.028 0 0 1-1.095-1.096.62.62 0 1 0-1.237-.084 2.267 2.267 0 0 0 2.417 2.417.62.62 0 0 0-.085-1.237z"/>
    </g>
</svg>
