<svg xmlns="http://www.w3.org/2000/svg" width="60" height="60" viewBox="0 0 60 60">
    <g fill="none" fill-rule="evenodd">
        <circle cx="30" cy="30" r="30" fill="#7ED321"/>
        <g fill-rule="nonzero">
            <path fill="#935B45" d="M19 45c0-6.075 4.925-11 11-11s11 4.925 11 11H19z"/>
            <g fill="#774839">
                <path d="M31.609 34.43c-.53-.078-1.072-.12-1.625-.12-5.98 0-10.829 4.787-10.829 10.69h3.249c0-5.359 3.995-9.796 9.205-10.57zM43.937 16.888c0 1.57-1.289 2.843-2.88 2.843-1.59 0-2.879-1.273-2.879-2.843s1.29-2.842 2.88-2.842c1.59 0 2.88 1.273 2.88 2.842zM21.79 16.888c0 1.57-1.288 2.843-2.879 2.843-1.59 0-2.88-1.273-2.88-2.843s1.29-2.842 2.88-2.842c1.59 0 2.88 1.273 2.88 2.842z"/>
            </g>
            <path fill="#B2785B" d="M41 24.5C41 30.851 35.851 36 29.5 36S18 30.851 18 24.5 23.149 13 29.5 13 41 18.149 41 24.5z"/>
            <path fill="#935B45" d="M21.566 24.5c0-5.781 4.532-10.565 10.434-11.378A13.061 13.061 0 0 0 30.217 13C23.47 13 18 18.149 18 24.5S23.47 36 30.217 36A13.1 13.1 0 0 0 32 35.878c-5.902-.813-10.434-5.597-10.434-11.378z"/>
            <path fill="#92D8FF" d="M35.446 34C33.375 34 30 36.36 30 36.36S26.625 34 24.554 34c-2.072 0-2.072 9 0 9C26.625 43 30 40.64 30 40.64S33.375 43 35.446 43c2.072 0 2.072-9 0-9z"/>
            <path fill="#66D3D0" d="M29 37.5a1.5 1.5 0 1 1-3 0 1.5 1.5 0 0 1 3 0zM35 37.5a1.5 1.5 0 1 1-3 0 1.5 1.5 0 0 1 3 0z"/>
            <path fill="#D7F3FF" d="M29.5 42c-1.38 0-2.5-1.163-2.5-2.597v-1.806C27 36.163 28.12 35 29.5 35s2.5 1.163 2.5 2.597v1.806C32 40.837 30.88 42 29.5 42z"/>
            <path fill="#BDEBFF" d="M28.265 39.403v-1.806c0-1.194.734-2.2 1.735-2.503a2.178 2.178 0 0 0-.632-.094C28.06 35 27 36.163 27 37.597v1.806C27 40.837 28.06 42 29.368 42c.219 0 .43-.033.632-.094-1-.304-1.735-1.309-1.735-2.503z"/>
            <path fill="#222223" d="M30.506 23c-.387 0-.74-.15-1.006-.394a1.481 1.481 0 0 1-1.006.394A1.503 1.503 0 0 1 27 21.493a.49.49 0 0 1 .488-.493c.27 0 .488.22.488.493a.52.52 0 0 0 .518.522.52.52 0 0 0 .518-.522A.49.49 0 0 1 29.5 21c.27 0 .488.22.488.493a.52.52 0 0 0 .518.522.52.52 0 0 0 .518-.522.49.49 0 0 1 .488-.493c.27 0 .488.22.488.493 0 .83-.67 1.507-1.494 1.507zM34.5 22c-.276 0-.5-.252-.5-.562v-.876c0-.31.224-.562.5-.562s.5.252.5.562v.876c0 .31-.224.562-.5.562z"/>
            <path fill="#222223" d="M26.5 22c-.276 0-.5-.252-.5-.562v-.876c0-.31.224-.562.5-.562s.5.252.5.562v.876c0 .31-.224.562-.5.562z"/>
            <path fill="#EAEAEA" d="M35.438 24h-.876c-.31 0-.562-.224-.562-.5s.252-.5.562-.5h.876c.31 0 .562.224.562.5s-.252.5-.562.5zM26.438 24h-.876c-.31 0-.562-.224-.562-.5s.252-.5.562-.5h.876c.31 0 .562.224.562.5s-.252.5-.562.5z"/>
        </g>
    </g>
</svg>
