<?xml version="1.0" encoding="UTF-8"?>
<svg width="20px" height="15px" viewBox="0 0 20 15" version="1.1" xmlns="http://www.w3.org/2000/svg" xmlns:xlink="http://www.w3.org/1999/xlink">
    <!-- Generator: Sketch 49 (51002) - http://www.bohemiancoding.com/sketch -->
    <title>book (1)</title>
    <desc>Created with Sketch.</desc>
    <defs></defs>
    <g id="shop-UI" stroke="none" stroke-width="1" fill="none" fill-rule="evenodd">
        <g id="3.3-shop-menu-LoggedIn-Mobile" transform="translate(-80.000000, -84.000000)" fill="#1CD1FF" fill-rule="nonzero">
            <g id="book-(1)" transform="translate(80.000000, 84.000000)">
                <path d="M19.612328,1.19222895 C19.6110196,1.19222895 19.6097112,1.19222895 19.6084513,1.19222895 L18.2942431,1.19222895 L18.2942431,0.743220143 C18.3013181,0.565503619 18.1861795,0.405786155 18.0151192,0.356143586 C17.1027331,0.11741412 16.1632099,-0.00228930507 15.2200039,3.31542654e-05 C13.6693158,3.31542654e-05 11.5565032,0.348402055 9.99418492,1.93541594 C8.4434968,0.332918993 6.31517736,3.31542654e-05 4.76836596,3.31542654e-05 C3.82515991,-0.00228930507 2.88563675,0.11741412 1.97325063,0.356143586 C1.80219035,0.405786155 1.68705175,0.565503619 1.69412677,0.743220143 L1.69412677,1.18835818 L0.387672029,1.18835818 C0.173580151,1.18835818 0,1.36167171 0,1.57543474 L0,13.93866 C0,14.152423 0.173580151,14.3257365 0.387672029,14.3257365 C0.454254701,14.325543 0.519674355,14.3082213 0.577631324,14.2754166 C0.616398527,14.2560627 4.49311882,12.138754 9.90502035,13.5012635 L9.96317116,13.5012635 L9.99806164,13.5012635 C10.0289785,13.5049891 10.0601861,13.5049891 10.0911029,13.5012635 C15.5185113,12.1271417 19.3952316,14.2405797 19.418492,14.2754166 C19.538428,14.3445581 19.686228,14.3445581 19.806164,14.2754166 C19.9253731,14.2067105 19.9991762,14.0799913 20,13.9425307 L20,1.57930551 C20,1.36554248 19.8264683,1.19222895 19.612328,1.19222895 Z M0.775344059,13.3232082 L0.775344059,1.96638206 L1.70188021,1.96638206 L1.70188021,11.6742621 C1.69945726,11.8880251 1.87105059,12.063274 2.08514247,12.0656933 C2.10607676,12.0659352 2.12701105,12.0644837 2.14770304,12.0613387 C2.94969955,11.9390709 3.75940105,11.8743807 4.57065323,11.8678004 C5.69441752,11.8483498 6.81348129,12.0171152 7.88137236,12.3671291 C5.46981004,12.0759508 3.02369645,12.4050626 0.775344059,13.3232082 Z M4.57065323,11.097518 C3.86552626,11.0991147 3.16122311,11.1443543 2.46171739,11.2329948 L2.46171739,1.04901062 C3.21651483,0.881116166 3.98730374,0.795427094 4.76061252,0.793540095 C6.21050591,0.793540095 8.21089358,1.12642593 9.59875945,2.69021522 L9.61038961,12.3322923 C8.80403179,11.8058681 7.23008335,11.097518 4.57065323,11.097518 Z M10.3857337,2.69021522 C11.7735995,1.141909 13.7739872,0.793540095 15.2238806,0.793540095 C15.9971409,0.79581417 16.7679298,0.881454858 17.5227757,1.04901062 L17.5227757,11.2329948 C16.8271952,11.1435318 16.1267688,11.0969858 15.4254701,11.0936473 C12.7815468,11.0936473 11.2037217,11.8019974 10.3857337,12.3284215 L10.3857337,2.69021522 Z M19.2207792,13.3232082 C16.9676294,12.4025466 14.5158946,12.0733864 12.099244,12.3671291 C13.1721748,12.0158572 14.2965691,11.8470434 15.4254701,11.8678004 C16.2418104,11.8723485 17.0567455,11.9357323 17.8639271,12.0574679 C18.075596,12.0895469 18.2732603,11.9441996 18.3053886,11.7328558 C18.3085385,11.7121956 18.3099922,11.6912935 18.30975,11.6703913 L18.30975,1.96638206 L19.2362861,1.96638206 L19.2207792,13.3232082 Z" id="Shape"></path>
            </g>
        </g>
    </g>
</svg>