<svg xmlns="http://www.w3.org/2000/svg" width="40" height="40" viewBox="0 0 40 40">
    <g fill="#00B2FF" fill-rule="nonzero">
        <path d="M21.29 0h-9.225c-.392 0-.71.299-.71.667v4.666H.71C.318 5.333 0 5.632 0 6v33.333c0 .368.318.667.71.667h20.58c.392 0 .71-.299.71-.667V.667C22 .299 21.682 0 21.29 0zm-.71 34.667h-7.806v-1.334h7.807v1.334zM1.42 10h9.935v20H1.419V10zm19.16-2.667h-7.806v-2h7.807v2zm-19.16 24h9.935v2H1.419v-2zM12.773 32V8.667h7.807V32h-7.807zm7.807-30.667V4h-7.807V1.333h7.807zm-9.226 5.334v2H1.419v-2h9.936zm-9.936 28h9.936v4H1.419v-4zm11.355 4V36h7.807v2.667h-7.807z"/>
        <path d="M39.98 36.365L32.532 4.518a.688.688 0 0 0-.288-.424.565.565 0 0 0-.473-.07l-9.31 2.769c-.33.098-.527.474-.44.843l7.447 31.847a.687.687 0 0 0 .289.424.564.564 0 0 0 .472.07l9.31-2.77c.33-.098.526-.474.441-.842zM24.366 12.182l8.111-2.412.292 1.246-8.11 2.416-.293-1.25zm8.717.177l3.6 15.403-8.109 2.413-3.6-15.404 8.109-2.412zm3.916 16.743l.635 2.717-8.111 2.412-.633-2.716 8.109-2.413zM31.489 5.54l.675 2.89-8.111 2.412-.675-2.889 8.11-2.413zm-.977 32.92l-.676-2.89 8.111-2.412.676 2.889-8.11 2.414zM9.2 14H2.8c-.442 0-.8.18-.8.4v3.2c0 .22.358.4.8.4h6.4c.442 0 .8-.18.8-.4v-3.2c0-.22-.358-.4-.8-.4zm-.8 3.2H3.6v-2.4h4.8v2.4z"/>
    </g>
</svg>
