<svg xmlns="http://www.w3.org/2000/svg" width="40" height="40" viewBox="0 0 40 40">
    <g fill="none" fill-rule="nonzero">
        <path fill="#09B5FF" d="M25.622 8.753l1.25-.006.006 1.25-1.25.006z"/>
        <path fill="#00B2FF" d="M39.333 21.285h-9.465l.8-11.987a.676.676 0 0 0-.18-.503.728.728 0 0 0-.487-.21l-1.333.007.007 1.337h.617l-.16 2.391-1.932 1.075a7.342 7.342 0 0 1-6.533.289V9.97l4.003-.02-.007-1.338-3.994.021V5.61l7.024-4.478L26.977 0l-7.333 4.679a.669.669 0 0 0-.308.564V8.64l-9.329.048a.668.668 0 0 0-.661.713l.742 11.156c-.39.71-.703 1.46-.934 2.236a6.623 6.623 0 0 0-5.776-3.403c-.368 0-.667.3-.667.669a6.612 6.612 0 0 0 1.093 3.647 3.69 3.69 0 0 0-.8.535l-.193.171a8.302 8.302 0 0 0-2.54 8.333l.408 1.578a8.314 8.314 0 0 0 3.433 4.84 4.66 4.66 0 0 0 4.897.19l-.037-.067c1.248.37 2.535.588 3.835.65.134.007.267.007.405.01V40h8.79c9.931.009 17.99-8.057 17.998-18.015v-.032a.668.668 0 0 0-.667-.668zm-9.72 1.7v-.364h6.639a14.337 14.337 0 0 1-8.488 12.427 14.11 14.11 0 0 1-3.878 1.09c1-.873 1.883-1.873 2.626-2.974a18.137 18.137 0 0 0 3.101-10.178zM19.336 9.978v3.231a8.665 8.665 0 0 0-6.51.764l-1.775.989-.328-4.94 8.613-.044zm-7.237 9.933l.082-.106-.852-.658-.18-2.708 2.32-1.297a7.34 7.34 0 0 1 6.588-.268 8.667 8.667 0 0 0 7.786-.314l1.178-.656-.298 4.495a2.223 2.223 0 0 0-.484-.284l-.996-.417a1.885 1.885 0 0 0-1.642.087 1.934 1.934 0 0 0-.976 1.375 17.65 17.65 0 0 1-6.022 10.509 8.283 8.283 0 0 0-2.741-5.257l-.194-.171a3.619 3.619 0 0 0-4.745-.067l-.84.702c.21-1.808.907-3.524 2.016-4.965zm-3.477 5.406a5.309 5.309 0 0 1-4.528-4.54 5.311 5.311 0 0 1 4.528 4.54zM4.851 38.05a6.982 6.982 0 0 1-2.882-4.063l-.408-1.577a6.97 6.97 0 0 1 2.137-6.998l.193-.17c.237-.203.512-.356.809-.45A6.59 6.59 0 0 0 9.337 26.7a.654.654 0 0 0 .125-.026c.38-.024.741-.167 1.034-.41l1.277-1.069a2.296 2.296 0 0 1 3.01.044l.193.17a6.956 6.956 0 0 1 2.35 5.224 17.576 17.576 0 0 1-8.789 3.152l-2.952.222a.668.668 0 0 0-.617.669v2.435c0 .238.128.458.333.577l.093.054c.546.318 1.11.604 1.688.855a3.345 3.345 0 0 1-2.231-.545zm8.019.55a14.91 14.91 0 0 1-6.567-1.88v-1.428l2.333-.176c8.679-.652 15.807-7.131 17.302-15.728a.601.601 0 0 1 .304-.431.554.554 0 0 1 .487-.026l.996.417c.335.14.553.468.552.831v2.808a16.81 16.81 0 0 1-2.873 9.43A14.149 14.149 0 0 1 12.87 38.6zm9.132.062h-2.124a15.316 15.316 0 0 0 2.124-1.122v.062a15.43 15.43 0 0 0 6.302-1.333 15.674 15.674 0 0 0 9.281-13.649h1.068c-.349 8.966-7.703 16.051-16.65 16.042z"/>
        <path fill="#09B5FF" d="M30.625 23.75h1.25V25h-1.25zM28.75 30.625H30v1.25h-1.25zM30.625 28.125h1.25v1.25h-1.25z"/>
    </g>
</svg>
