<svg xmlns="http://www.w3.org/2000/svg" width="30" height="40" viewBox="0 0 30 40">
    <g fill="#01B2FF" fill-rule="nonzero">
        <path d="M8.889 11.831c-.92 0-1.667.751-1.667 1.675 0 .32.258.579.576.579a.577.577 0 0 0 .575-.579c0-.286.232-.518.516-.518.284 0 .516.232.516.518 0 .32.257.579.575.579a.577.577 0 0 0 .576-.579c0-.924-.748-1.675-1.667-1.675zM11.014 27.043a2.058 2.058 0 0 0-1.472.548c-.4.371-.63.874-.648 1.415-.09 2.832.95 5.344 2.858 6.892 1.511 1.227 3.493 1.849 5.892 1.848 1.245 0 2.622-.169 4.093-.502 1.105-.25 1.798-1.34 1.544-2.43s-1.36-1.774-2.463-1.523c-2.97.673-5.202.491-6.454-.525-.433-.351-1.432-1.409-1.36-3.631.035-1.118-.857-2.056-1.99-2.092zm2.613 6.607c1.54 1.25 4.116 1.512 7.45.756a.897.897 0 0 1 1.073.664.884.884 0 0 1-.672 1.059c-1.386.314-2.676.473-3.834.473-2.123 0-3.857-.534-5.155-1.588-1.627-1.32-2.515-3.497-2.435-5.972a.873.873 0 0 1 .282-.616.895.895 0 0 1 .641-.239.89.89 0 0 1 .867.911c-.088 2.73 1.218 4.093 1.783 4.552z"/>
        <path d="M30 12.9c0-1.265-.834-2.33-2.006-2.654a11.05 11.05 0 0 0-.097-.719.584.584 0 1 0-1.151.195 9.749 9.749 0 0 1 .121 1.079c.028.508.008.948-.04 1.302-.166-.06-.357-.127-.569-.202-1.838-.652-5.26-1.866-8.3-3.207-4.868-2.147-5.63-3.245-5.73-3.617a.585.585 0 0 0-1.053-.166C9.339 7.74 5.33 11.567 3.282 12.206 3.154 9.37 4.042 6.76 5.815 4.8 7.932 2.46 11.194 1.172 15 1.172c3.076 0 5.638.675 7.613 2.006 1.581 1.066 2.758 2.52 3.498 4.323a.583.583 0 1 0 1.08-.447 10.73 10.73 0 0 0-3.927-4.848C21.093.742 18.312 0 15 0 10.86 0 7.291 1.425 4.95 4.013c-1.543 1.705-2.486 3.844-2.762 6.19A2.764 2.764 0 0 0 0 12.9c0 .485.13.963.371 1.38a2.025 2.025 0 0 0 1.816 2.813V28.3a4.95 4.95 0 0 0 3.948 4.854v2.266a.585.585 0 1 0 1.168 0v-4.882c0-2.245.955-4.345 2.632-5.815A12.728 12.728 0 0 0 15 25.768c1.798 0 3.51-.374 5.064-1.046a7.697 7.697 0 0 1 2.633 5.815c0 .764.407 1.472 1.063 1.847a8.083 8.083 0 0 1 4.046 6.363.075.075 0 0 1-.02.059.067.067 0 0 1-.05.022H7.32a.017.017 0 0 1-.017-.017v-.743a.585.585 0 1 0-1.168 0v.743c0 .655.532 1.189 1.185 1.189h20.416c.344 0 .676-.146.91-.4.234-.256.353-.601.324-.948a9.255 9.255 0 0 0-4.632-7.286.953.953 0 0 1-.473-.829 8.862 8.862 0 0 0-2.676-6.368A12.94 12.94 0 0 0 27.167 17c.193.061.396.095.602.095a2.025 2.025 0 0 0 1.86-2.814c.24-.418.371-.896.371-1.381zm-28.832 0c0-.64.386-1.196.937-1.444-.008.48.01.965.057 1.456l.001.132a2 2 0 0 0-.94.27 1.595 1.595 0 0 1-.055-.414zm1.019 3.02a.853.853 0 0 1 0-1.703v1.704zm3.948 14.617v1.413a3.759 3.759 0 0 1-2.78-3.65v-9.995a12.951 12.951 0 0 0 5.456 5.864 8.863 8.863 0 0 0-2.676 6.368zM15 24.596c-6.264 0-11.39-4.978-11.66-11.199 1.373-.319 3.066-1.628 4.321-2.752 1.48-1.327 2.943-2.93 3.977-4.348 1.497 1.687 5.938 3.767 14.23 6.709.318.112.586.208.795.283C26.45 19.56 21.3 24.596 15 24.596zm12.769-8.673a.837.837 0 0 1-.28-.049c.129-.54.224-1.095.282-1.66a.854.854 0 0 1-.002 1.71zm1.008-2.608a2 2 0 0 0-.94-.27v-.072a5.86 5.86 0 0 0 .205-1.44c.472.276.79.791.79 1.367 0 .142-.019.281-.055.415z"/>
        <path d="M21.111 11.831c-.919 0-1.667.751-1.667 1.675a.577.577 0 0 0 1.151 0c0-.286.232-.518.516-.518.284 0 .516.232.516.518 0 .32.257.579.575.579a.577.577 0 0 0 .576-.579c0-.924-.748-1.675-1.667-1.675zM16.178 15.955c-.236.238-.556.37-.9.37-.345 0-.665-.132-.9-.37a.629.629 0 0 0-.854-.026.548.548 0 0 0-.028.806c.46.464 1.11.73 1.782.73.672 0 1.321-.266 1.781-.73a.548.548 0 0 0-.028-.806.629.629 0 0 0-.853.026z"/>
    </g>
</svg>
