<svg xmlns="http://www.w3.org/2000/svg" width="20" height="20" viewBox="0 0 20 20">
    <g fill="#1CD1FF" fill-rule="nonzero">
        <circle cx="14.183" cy="5.425" r="1.242"/>
        <path d="M19.784 6.481c-.417-1.063-1.182-2.596-2.457-3.865C16.056 1.35 14.539.607 13.49.206a3.14 3.14 0 0 0-3.332.707L7.091 3.967a3.127 3.127 0 0 0-.652 3.467c.161.362.336.716.523 1.058L.23 15.228A.782.782 0 0 0 0 15.78v3.439c0 .431.35.781.781.781H4.22c.431 0 .781-.35.781-.781v-1.407h1.406c.432 0 .781-.35.781-.782v-1.406h1.407a.781.781 0 0 0 0-1.563H6.406a.781.781 0 0 0-.781.781v1.407H4.219a.781.781 0 0 0-.782.781v1.407H1.562v-2.333l6.928-6.93a.782.782 0 0 0 .116-.958c-.27-.446-.52-.923-.74-1.418a1.556 1.556 0 0 1 .328-1.723L11.26 2.02a1.576 1.576 0 0 1 1.672-.354c.907.347 2.215.985 3.291 2.057 1.084 1.079 1.743 2.406 2.106 3.33.226.575.089 1.23-.35 1.667l-3.105 3.091a1.573 1.573 0 0 1-1.72.336 10.14 10.14 0 0 1-1.406-.718.781.781 0 1 0-.817 1.332c.514.315 1.06.594 1.623.829a3.13 3.13 0 0 0 3.422-.671l3.105-3.091a3.114 3.114 0 0 0 .702-3.347z"/>
    </g>
</svg>
