<svg xmlns="http://www.w3.org/2000/svg" width="20" height="20" viewBox="0 0 20 20">
    <g fill="#1CD1FF" fill-rule="nonzero">
        <path d="M16.875 0H3.125A3.129 3.129 0 0 0 0 3.125v1.563a.781.781 0 1 0 1.563 0V3.125c0-.862.7-1.563 1.562-1.563h13.75c.862 0 1.563.701 1.563 1.563v13.75c0 .862-.701 1.563-1.563 1.563H3.125c-.862 0-1.563-.701-1.563-1.563v-1.563a.781.781 0 1 0-1.562 0v1.563A3.129 3.129 0 0 0 3.125 20h13.75A3.129 3.129 0 0 0 20 16.875V3.125A3.129 3.129 0 0 0 16.875 0z"/>
        <path d="M13.088 8.383l-2.908-2.91a.777.777 0 1 0-1.1 1.103l2.908 2.908a.78.78 0 0 1 0 1.102l-.003.003-2.908 2.948a.78.78 0 0 0 1.107 1.095l2.906-2.947a2.341 2.341 0 0 0-.002-3.302z"/>
        <path d="M9.059 9.18H.778A.771.771 0 0 0 0 9.945c0 .423.348.765.778.765h8.28c.43 0 .778-.342.778-.765a.771.771 0 0 0-.777-.765z"/>
    </g>
</svg>
