<?xml version="1.0" encoding="utf-8"?>
<!-- Generator: Adobe Illustrator 22.1.0, SVG Export Plug-In . SVG Version: 6.00 Build 0)  -->
<svg version="1.1" id="Layer_1" xmlns="http://www.w3.org/2000/svg" xmlns:xlink="http://www.w3.org/1999/xlink" x="0px" y="0px"
	 viewBox="0 0 884 242" style="enable-background:new 0 0 884 242;" xml:space="preserve">
<style type="text/css">
	.st0{fill:#F65A86;}
	.st1{fill:#636363;}
	.st2{fill:#39A648;}
	.st3{fill:url(#Path_1_);}
	.st4{fill:#3FB34F;}
	.st5{fill:url(#Path-4_1_);}
	.st6{fill:url(#Path-3_1_);}
	.st7{fill:url(#YNA_1_);}
</style>
<title>KynaKids-Pinkraftlogo</title>
<desc>Created with Sketch.</desc>
<g id="Page-1">
	<g id="KynaKids-Pink">
		<g id="Group-2">
			<path id="Fill-6" class="st0" d="M583.7,66.1c9.5-9.3,24.6-9.3,33.8,0c9.5,9.3,9.5,24.4,0,33.8l-11.9,12.2l13.4,13.4
				c9.5,9.5,9.5,24.5,0,33.8c-9.2,9.3-24.3,9.3-33.8,0l-13.4-13.4l-11,11.4c-5.3,5.7-11.2,8.7-19,8.7c-13.1,0-23.7-10.5-23.7-23.6
				V82.9c0-13.4,10.6-23.9,23.7-23.9c11.9,0,21.3,7.8,24,18.6L557,90.1c-0.3,0.8,0.8,1.8,1.5,1.1L583.7,66.1z"/>
			<path id="Fill-9" class="st0" d="M737.8,112.5c0-3.2-2.4-5.9-5.9-5.9h-3.2v11.3h3.2C735.4,117.9,737.8,115.5,737.8,112.5
				L737.8,112.5z M707.5,165.9c-13.6,0-24.5-10.4-24.5-23.5V83.1C683,70,693.4,59,707,59h23.3c29.4,0,52.9,24.1,52.9,53.4
				c0,29.6-24.2,53.5-53.9,53.5H707.5z"/>
			<path id="Fill-11" class="st0" d="M872.5,100.8c-5-2.9-10.9-4.4-16.9-4.8c-1.2,0-1.7,1.7-0.5,2c40.3,9.2,36.8,68.1-11,68.1H811
				c-12.8,0-24-13.4-24-24.1c0-8.1,2.9-14.1,9.5-18.9c5.9,3.9,13.7,5.9,20.8,5.9c1.2,0,1.5-1.5,0.3-2c-4.2-0.3-8.6-2-12.5-3.9
				c-29.6-15.5-22.8-64.5,20.8-64h32.8c13.4,0,24.5,10.5,24.5,23.8C883.2,90.6,879.6,97.2,872.5,100.8"/>
			<path id="Fill-13" class="st0" d="M673.9,129.7L673.9,129.7L673.9,129.7c-12.3-19.4-19.4-42.3-19.4-66.8c0-8.5,0.9-16.8,2.5-24.8
				c-18.1,21.7-29,49.5-29,79.9c0,9.9,1.2,19.5,3.4,28.8c0.1,0.5,0.2,0.9,0.3,1.4c2.5,10.2,11.7,17.8,22.7,17.8
				c13,0,23.4-10.5,23.4-23.3C677.9,137.8,676.4,133.4,673.9,129.7"/>
			<path id="FOR" class="st1" d="M540.6,8.6h-19.5v16.3h18.8v2.9h-18.8v18.7H518V5.6h22.6V8.6z M581.8,41c-4.1,4.1-9.1,6.1-14.9,6.1
				s-10.8-2-14.9-6.1c-4.1-4.1-6.1-9.1-6.1-14.9s2-10.8,6.1-14.9C556.1,7.1,561,5,566.9,5s10.8,2.1,14.9,6.2c4.1,4.1,6.1,9,6.1,14.9
				S585.9,36.9,581.8,41z M554.1,38.9c3.5,3.5,7.8,5.2,12.8,5.2s9.3-1.7,12.7-5.2c3.5-3.5,5.2-7.8,5.2-12.8s-1.7-9.3-5.2-12.8
				C576.2,9.7,572,8,566.9,8c-5,0-9.3,1.8-12.8,5.3c-3.5,3.5-5.2,7.8-5.2,12.8S550.7,35.3,554.1,38.9z M621.5,46.5l-9.8-16.7h-12.9
				v16.7h-3.1V5.6h16.1c3.3,0,6.1,1.2,8.5,3.6c2.4,2.4,3.6,5.2,3.6,8.5c0,2.7-0.9,5.2-2.6,7.3c-1.7,2.1-3.8,3.6-6.4,4.3l10.1,17.1
				H621.5z M598.9,8.6v18.2h13c2.5,0,4.6-0.9,6.4-2.6c1.7-1.8,2.6-3.9,2.6-6.5c0-2.5-0.9-4.6-2.6-6.5c-1.7-1.8-3.9-2.7-6.4-2.7
				H598.9z"/>
			<polygon id="Fill-15" class="st2" points="677.4,16.7 669.6,24.9 666.2,36 655.8,31 644.2,31.3 645.7,19.9 642,9.1 653.3,6.9 
				662.4,0 667.9,10 			"/>
			<g id="Group-3" transform="translate(0.000000, 5.000000)">
				<g id="Group">
					
						<linearGradient id="Path_1_" gradientUnits="userSpaceOnUse" x1="125.8153" y1="335.1941" x2="127.6998" y2="335.2069" gradientTransform="matrix(35.297 0 0 -147.2 -4458.6143 49429.4727)">
						<stop  offset="0" style="stop-color:#2E903B"/>
						<stop  offset="1" style="stop-color:#3FB34F"/>
					</linearGradient>
					<polygon id="Path" class="st3" points="0,38.8 35.3,13.8 35.3,161 0,161 					"/>
					<path id="Combined-Shape" class="st4" d="M2.4,17.4v-3.7L0,12.1L17.6,0l17.6,12.1L17.6,24.1L3.6,14.5v2.9
						c0.7,0.3,1.2,0.9,1.2,1.8c0,1-0.8,1.9-1.8,1.9s-1.8-0.8-1.8-1.9C1.2,18.4,1.7,17.7,2.4,17.4z"/>
					
						<linearGradient id="Path-4_1_" gradientUnits="userSpaceOnUse" x1="127.6568" y1="334.4418" x2="129.5413" y2="334.4546" gradientTransform="matrix(70.5941 0 0 -69 -9002.8213 23203.5352)">
						<stop  offset="0" style="stop-color:#2E903B"/>
						<stop  offset="1" style="stop-color:#3FB34F"/>
					</linearGradient>
					<polygon id="Path-4" class="st5" points="44.4,108.7 78.6,161 115,161 69.2,92 					"/>
					
						<linearGradient id="Path-3_1_" gradientUnits="userSpaceOnUse" x1="128.5343" y1="335.0058" x2="128.8291" y2="334.5397" gradientTransform="matrix(72.8713 0 0 -85.1 -9307.9707 28556.9941)">
						<stop  offset="0" style="stop-color:#2E903B"/>
						<stop  offset="1" style="stop-color:#3FB34F"/>
					</linearGradient>
					<polygon id="Path-3" class="st6" points="35.3,78.6 108.2,29.9 108.2,66.3 35.3,115 					"/>
				</g>
				
					<linearGradient id="YNA_1_" gradientUnits="userSpaceOnUse" x1="130.1735" y1="334.1997" x2="130.1576" y2="335.6219" gradientTransform="matrix(386 0 0 -131 -49934 43996.4805)">
					<stop  offset="0" style="stop-color:#2E903B"/>
					<stop  offset="1" style="stop-color:#3FB34F"/>
				</linearGradient>
				<path id="YNA" class="st7" d="M237.8,30l-44.1,80.7V161h-33.5v-50L116,30h37.6l23.2,48.5L200.2,30H237.8z M326.1,30h33.3v131
					h-25.8l-46.2-65.9V161h-33.5V30h26l46.2,65.9V30z M465.9,161l-5.6-18.9h-43.6l-5.6,18.9h-36.3L418,30h40.8L502,161H465.9z
					 M425.3,113.3h26.4l-13.3-44.5L425.3,113.3z"/>
			</g>
		</g>
		<path id="Trường-Học-Trực-Tuyế-Copy" class="st1" d="M25.3,195.6v2.6H14v33.2h-2.8v-33.2H0v-2.6H25.3z M30.1,210.9
			c1.5-3.6,4.4-5.4,8.5-5.4v2.5c-1.2,0-2.4,0.2-3.4,0.6c-1,0.4-1.9,1-2.7,1.7c-0.8,0.8-1.4,1.7-1.8,2.9s-0.6,2.5-0.6,4v14.2h-2.6
			v-25.6h2.6V210.9z M63,205.9h1.4c1.3,0,2.1-0.3,2.5-0.8c0.3-0.6,0.5-1.5,0.5-2.7V202h2.5v0.3c0,1.9-0.3,3.4-1,4.3
			c-0.7,0.9-1.8,1.4-3.3,1.6v23.3H63v-4.9c-1.8,3.6-4.9,5.4-9.2,5.4c-1.5,0-2.9-0.2-4.1-0.7s-2.3-1.2-3.1-2.1c-0.9-0.9-1.5-2-2-3.2
			c-0.5-1.3-0.7-2.7-0.7-4.2v-15.9h2.6v15.9c0,2.4,0.7,4.3,2,5.7c1.3,1.4,3.2,2.1,5.6,2.1c1.3,0,2.5-0.2,3.6-0.7s2-1.1,2.8-1.9
			c0.8-0.9,1.4-1.9,1.8-3.2s0.7-2.7,0.7-4.4V205.9z M86.7,202.3l-4.7-6.5h3.1l4.1,6.5H86.7z M85.9,232c-3.8,0-7-1.3-9.6-3.8
			c-2.6-2.6-3.9-5.8-3.9-9.5s1.3-6.9,3.9-9.5c2.6-2.6,5.8-3.9,9.6-3.9c1.4,0,2.7,0.2,4,0.6h1.9c1.3,0,2.1-0.3,2.5-0.8
			c0.3-0.6,0.5-1.5,0.5-2.7V202h2.5v0.3c0,1.7-0.3,3.1-0.8,4s-1.4,1.5-2.5,1.8c0.2,0.2,0.5,0.4,0.7,0.6c0.2,0.2,0.4,0.4,0.7,0.6
			c2.6,2.6,3.9,5.7,3.9,9.5c0,3.7-1.3,6.9-3.9,9.5C92.7,230.7,89.6,232,85.9,232z M78.2,226.4c2.1,2.1,4.7,3.2,7.7,3.2
			c3,0,5.6-1.1,7.7-3.2c2.1-2.1,3.1-4.7,3.1-7.7s-1-5.6-3.1-7.7c-2.1-2.1-4.7-3.2-7.7-3.2c-3,0-5.6,1.1-7.7,3.2
			c-2.1,2.1-3.1,4.7-3.1,7.7S76.1,224.3,78.2,226.4z M117.9,205.3c1.5,0,2.9,0.2,4.1,0.7c1.2,0.5,2.3,1.2,3.1,2.1
			c0.9,0.9,1.5,2,2,3.2c0.5,1.3,0.7,2.7,0.7,4.2v15.9h-2.6v-15.9c0-2.4-0.7-4.3-2-5.7s-3.2-2.1-5.6-2.1c-1.3,0-2.5,0.2-3.6,0.7
			c-1.1,0.4-2,1.1-2.8,1.9c-0.8,0.9-1.4,1.9-1.8,3.2c-0.4,1.3-0.7,2.7-0.7,4.4v13.5h-2.6v-25.6h2.6v4.9
			C110.6,207.1,113.6,205.3,117.9,205.3z M158.5,205.9h2.6v24.3c0,3.7-1.2,6.6-3.6,8.8c-2.4,2.1-5.5,3.2-9.1,3.2
			c-3,0-5.5-0.5-7.5-1.6c-2.1-1.1-3.6-2.6-4.5-4.5l2.3-1.3c1.6,3.3,4.9,5,9.8,5c3.2,0,5.7-0.9,7.5-2.6c1.8-1.7,2.7-4,2.7-7v-4.7
			c-1.1,2-2.5,3.6-4.5,4.8c-1.9,1.1-4.1,1.7-6.5,1.7c-3.7,0-6.8-1.3-9.4-3.8c-2.6-2.6-3.8-5.8-3.8-9.5s1.3-6.9,3.8-9.5
			c2.6-2.6,5.7-3.9,9.4-3.9c2.5,0,4.6,0.6,6.5,1.7c1.9,1.1,3.4,2.7,4.5,4.8V205.9z M139.9,226.4c2.1,2.1,4.7,3.2,7.7,3.2
			c3,0,5.6-1.1,7.7-3.2c2.1-2.1,3.2-4.7,3.2-7.7s-1.1-5.6-3.2-7.7c-2.1-2.1-4.7-3.2-7.7-3.2c-3,0-5.6,1.1-7.7,3.2
			c-2.1,2.1-3.1,4.7-3.1,7.7S137.8,224.3,139.9,226.4z M208.1,195.6h2.7v35.8h-2.7v-17.1h-20.8v17.1h-2.7v-35.8h2.7v16.1h20.8V195.6
			z M229.7,237.9c0-0.6,0.2-1.1,0.6-1.4c0.4-0.3,0.9-0.5,1.4-0.5c0.5,0,1,0.2,1.4,0.5s0.6,0.8,0.6,1.4c0,0.7-0.2,1.2-0.6,1.5
			c-0.4,0.3-0.9,0.5-1.4,0.5c-0.5,0-1-0.2-1.4-0.5C229.9,239.1,229.7,238.6,229.7,237.9z M231.7,232c-3.8,0-7-1.3-9.6-3.8
			c-2.6-2.6-3.9-5.8-3.9-9.5s1.3-6.9,3.9-9.5c2.6-2.6,5.8-3.9,9.6-3.9c3.7,0,6.9,1.3,9.5,3.9c2.6,2.6,3.9,5.7,3.9,9.5
			c0,3.7-1.3,6.9-3.9,9.5C238.5,230.7,235.4,232,231.7,232z M224,226.4c2.1,2.1,4.7,3.2,7.7,3.2c3,0,5.6-1.1,7.7-3.2
			c2.1-2.1,3.1-4.7,3.1-7.7s-1-5.6-3.1-7.7c-2.1-2.1-4.7-3.2-7.7-3.2c-3,0-5.6,1.1-7.7,3.2c-2.1,2.1-3.1,4.7-3.1,7.7
			S221.9,224.3,224,226.4z M263.7,232c-3.9,0-7.1-1.3-9.6-3.8s-3.8-5.7-3.8-9.5s1.3-7,3.8-9.5s5.8-3.8,9.6-3.8
			c2.5,0,4.7,0.6,6.8,1.7s3.5,2.8,4.4,4.8l-2.1,1.2c-0.8-1.6-1.9-2.9-3.6-3.9c-1.6-1-3.5-1.4-5.5-1.4c-3,0-5.6,1.1-7.7,3.2
			c-2.1,2.1-3.1,4.7-3.1,7.7c0,3.1,1,5.7,3.1,7.8c2.1,2.1,4.7,3.1,7.7,3.1c2,0,3.9-0.5,5.5-1.4c1.6-1,2.9-2.3,3.7-3.9l2.1,1.3
			c-1,2-2.5,3.6-4.6,4.7C268.5,231.4,266.2,232,263.7,232z M318.4,195.6v2.6h-11.3v33.2h-2.8v-33.2h-11.3v-2.6H318.4z M323.2,210.9
			c1.5-3.6,4.4-5.4,8.5-5.4v2.5c-1.2,0-2.4,0.2-3.4,0.6c-1,0.4-1.9,1-2.7,1.7c-0.8,0.8-1.4,1.7-1.8,2.9s-0.6,2.5-0.6,4v14.2h-2.6
			v-25.6h2.6V210.9z M344.9,237.9c0-0.6,0.2-1.1,0.6-1.4c0.4-0.3,0.9-0.5,1.4-0.5c0.5,0,1,0.2,1.4,0.5s0.6,0.8,0.6,1.4
			c0,0.7-0.2,1.2-0.6,1.5c-0.4,0.3-0.9,0.5-1.4,0.5c-0.5,0-1-0.2-1.4-0.5C345.1,239.1,344.8,238.6,344.9,237.9z M356.1,205.9h1.4
			c1.3,0,2.1-0.3,2.5-0.8c0.3-0.6,0.5-1.5,0.5-2.7V202h2.5v0.3c0,1.9-0.3,3.4-1,4.3s-1.8,1.4-3.3,1.6v23.3h-2.6v-4.9
			c-1.8,3.6-4.9,5.4-9.2,5.4c-1.5,0-2.9-0.2-4.1-0.7c-1.2-0.5-2.3-1.2-3.1-2.1s-1.5-2-2-3.2c-0.5-1.3-0.7-2.7-0.7-4.2v-15.9h2.6
			v15.9c0,2.4,0.7,4.3,2,5.7s3.2,2.1,5.6,2.1c1.3,0,2.5-0.2,3.6-0.7c1.1-0.4,2-1.1,2.8-1.9c0.8-0.9,1.4-1.9,1.8-3.2s0.7-2.7,0.7-4.4
			V205.9z M379,232c-3.9,0-7.1-1.3-9.6-3.8s-3.8-5.7-3.8-9.5s1.3-7,3.8-9.5s5.8-3.8,9.6-3.8c2.5,0,4.7,0.6,6.8,1.7s3.5,2.8,4.4,4.8
			l-2.1,1.2c-0.8-1.6-1.9-2.9-3.6-3.9c-1.6-1-3.5-1.4-5.5-1.4c-3,0-5.6,1.1-7.7,3.2c-2.1,2.1-3.1,4.7-3.1,7.7c0,3.1,1,5.7,3.1,7.8
			c2.1,2.1,4.7,3.1,7.7,3.1c2,0,3.9-0.5,5.5-1.4c1.6-1,2.9-2.3,3.7-3.9l2.1,1.3c-1,2-2.5,3.6-4.6,4.7C383.7,231.4,381.5,232,379,232
			z M433.6,195.6v2.6h-11.3v33.2h-2.8v-33.2h-11.3v-2.6H433.6z M453.8,205.9h2.6v25.6h-2.6v-4.9c-1.8,3.6-4.9,5.4-9.2,5.4
			c-1.5,0-2.9-0.2-4.1-0.7c-1.2-0.5-2.3-1.2-3.1-2.1s-1.5-2-2-3.2c-0.5-1.3-0.7-2.7-0.7-4.2v-15.9h2.6v15.9c0,2.4,0.7,4.3,2,5.7
			s3.2,2.1,5.6,2.1c1.3,0,2.5-0.2,3.6-0.7c1.1-0.4,2-1.1,2.8-1.9c0.8-0.9,1.4-1.9,1.8-3.2c0.4-1.3,0.7-2.7,0.7-4.4V205.9z
			 M483.7,205.9h2.8l-11,27.9c-1,2.6-2.4,4.6-4.2,6s-3.8,2.1-5.9,1.9v-2.4c1.6,0.1,3.1-0.3,4.4-1.4c1.3-1.1,2.4-2.6,3.2-4.6l0.6-1.4
			l-11.8-26h2.8l10.3,22.8L483.7,205.9z M503.8,197.8l-3.8,4.5h-2.7l5.1-6h2.8l5.1,6h-2.7L503.8,197.8z M503.4,205.3
			c3.8,0,6.8,1.3,9.1,4c2.4,2.7,3.5,5.8,3.5,9.5c0,0.1,0,0.3,0,0.6c0,0.3,0,0.5,0,0.6h-23.2c0.3,2.9,1.4,5.2,3.4,7
			c2,1.7,4.5,2.6,7.4,2.6c2,0,3.8-0.4,5.4-1.3c1.5-0.8,2.7-2,3.5-3.4l2.3,1.3c-1.1,1.8-2.6,3.2-4.5,4.2c-1.9,1-4.2,1.6-6.6,1.6
			c-4,0-7.2-1.2-9.7-3.7c-2.5-2.5-3.8-5.7-3.8-9.6c0-3.8,1.2-7,3.7-9.5C496.3,206.6,499.5,205.3,503.4,205.3z M503.4,207.8
			c-2.9,0-5.3,0.9-7.3,2.7c-1.9,1.8-3.1,4.1-3.3,7h20.6c-0.3-3-1.4-5.4-3.3-7.1C508.2,208.6,505.9,207.8,503.4,207.8z M512.3,192
			h2.9l-4.3,6h-2.3L512.3,192z M534.4,205.3c1.5,0,2.9,0.2,4.1,0.7c1.2,0.5,2.3,1.2,3.1,2.1c0.9,0.9,1.5,2,2,3.2
			c0.5,1.3,0.7,2.7,0.7,4.2v15.9h-2.6v-15.9c0-2.4-0.7-4.3-2-5.7s-3.2-2.1-5.6-2.1c-1.3,0-2.5,0.2-3.6,0.7c-1.1,0.4-2,1.1-2.8,1.9
			c-0.8,0.9-1.4,1.9-1.8,3.2c-0.4,1.3-0.7,2.7-0.7,4.4v13.5h-2.6v-25.6h2.6v4.9C527.1,207.1,530.2,205.3,534.4,205.3z M580.7,195.6
			c4.9,0,8.9,1.7,12.1,5.2c3.2,3.4,4.8,7.6,4.8,12.7c0,5-1.6,9.3-4.8,12.7c-3.2,3.4-7.2,5.2-12.1,5.2h-13.5v-35.8H580.7z
			 M580.7,228.9c4.2,0,7.6-1.5,10.2-4.4c2.7-3,4-6.6,4-10.9c0-4.3-1.3-8-4-10.9c-2.7-3-6.1-4.5-10.2-4.5H570v30.7H580.7z
			 M621.1,202.3h-2.5l-4.7-6.5h3.1L621.1,202.3z M627.2,205.9h2.6v25.6h-2.6v-5.8c-1.1,2-2.6,3.5-4.5,4.7c-1.9,1.1-4.1,1.7-6.5,1.7
			c-3.6,0-6.8-1.3-9.4-3.8c-2.6-2.6-3.9-5.8-3.9-9.5s1.3-6.9,3.9-9.5c2.6-2.6,5.7-3.9,9.4-3.9c2.5,0,4.6,0.6,6.5,1.7
			c1.9,1.1,3.4,2.7,4.5,4.7V205.9z M608.7,226.4c2.1,2.1,4.7,3.2,7.7,3.2c3,0,5.6-1.1,7.7-3.2c2.1-2.1,3.1-4.7,3.1-7.7
			s-1-5.6-3.1-7.7c-2.1-2.1-4.7-3.2-7.7-3.2c-3,0-5.6,1.1-7.7,3.2c-2.1,2.1-3.1,4.7-3.1,7.7S606.6,224.3,608.7,226.4z M650.1,205.3
			c1.5,0,2.9,0.2,4.1,0.7s2.3,1.2,3.1,2.1c0.9,0.9,1.5,2,2,3.2c0.5,1.3,0.7,2.7,0.7,4.2v15.9h-2.6v-15.9c0-2.4-0.7-4.3-2-5.7
			s-3.2-2.1-5.6-2.1c-1.3,0-2.5,0.2-3.6,0.7c-1.1,0.4-2,1.1-2.8,1.9c-0.8,0.9-1.4,1.9-1.8,3.2c-0.4,1.3-0.7,2.7-0.7,4.4v13.5h-2.6
			v-25.6h2.6v4.9C642.8,207.1,645.9,205.3,650.1,205.3z M679.8,205.3c1.5,0,2.9,0.2,4.1,0.7s2.3,1.2,3.1,2.1c0.9,0.9,1.5,2,2,3.2
			c0.5,1.3,0.7,2.7,0.7,4.2v15.9h-2.6v-15.9c0-2.4-0.7-4.3-2-5.7s-3.2-2.1-5.6-2.1c-1.3,0-2.5,0.2-3.6,0.7c-1.1,0.4-2,1.1-2.8,1.9
			c-0.8,0.9-1.4,1.9-1.8,3.2c-0.4,1.3-0.7,2.7-0.7,4.4v13.5H668v-35.8h2.6v15.1C672.4,207.1,675.5,205.3,679.8,205.3z M729.1,232
			c-5.4,0-9.8-1.8-13.4-5.3c-3.5-3.5-5.3-7.9-5.3-13.1c0-5.2,1.8-9.6,5.3-13.1c3.5-3.6,8-5.4,13.4-5.4c3.3,0,6.3,0.8,9,2.4
			c2.8,1.6,4.9,3.6,6.3,6.2l-2.4,1.4c-1.2-2.2-2.9-4-5.3-5.3c-2.3-1.4-4.8-2-7.7-2c-4.6,0-8.5,1.5-11.5,4.6c-3,3-4.5,6.8-4.5,11.3
			s1.5,8.2,4.5,11.3c3,3,6.9,4.6,11.5,4.6c1.4,0,2.8-0.2,4.1-0.5c1.3-0.4,2.5-0.9,3.7-1.5c1.1-0.6,2.1-1.4,3-2.4
			c0.9-0.9,1.7-2,2.3-3.1l2.4,1.4c-0.7,1.3-1.6,2.5-2.7,3.6c-1.1,1.1-2.3,2-3.6,2.8c-1.3,0.8-2.8,1.4-4.3,1.8S730.8,232,729.1,232z
			 M762.9,205.3c1.5,0,2.9,0.2,4.1,0.7c1.2,0.5,2.3,1.2,3.1,2.1c0.9,0.9,1.5,2,2,3.2c0.5,1.3,0.7,2.7,0.7,4.2v15.9h-2.6v-15.9
			c0-2.4-0.7-4.3-2-5.7s-3.2-2.1-5.6-2.1c-1.3,0-2.5,0.2-3.6,0.7c-1.1,0.4-2,1.1-2.8,1.9c-0.8,0.9-1.4,1.9-1.8,3.2
			c-0.4,1.3-0.7,2.7-0.7,4.4v13.5h-2.6v-35.8h2.6v15.1C755.6,207.1,758.7,205.3,762.9,205.3z M792.5,232c-3.8,0-7-1.3-9.6-3.8
			c-2.6-2.6-3.9-5.8-3.9-9.5s1.3-6.9,3.9-9.5c2.6-2.6,5.8-3.9,9.6-3.9c3.7,0,6.9,1.3,9.5,3.9c2.6,2.6,3.9,5.7,3.9,9.5
			c0,3.7-1.3,6.9-3.9,9.5C799.4,230.7,796.2,232,792.5,232z M784.8,226.4c2.1,2.1,4.7,3.2,7.7,3.2c3,0,5.6-1.1,7.7-3.2
			c2.1-2.1,3.1-4.7,3.1-7.7s-1-5.6-3.1-7.7c-2.1-2.1-4.7-3.2-7.7-3.2c-3,0-5.6,1.1-7.7,3.2c-2.1,2.1-3.1,4.7-3.1,7.7
			S782.7,224.3,784.8,226.4z"/>
	</g>
</g>
<g>
	<path class="st1" d="M843.2,195.4v2.5h-11v32.5h-2.7v-32.5h-11v-2.5H843.2z"/>
	<path class="st1" d="M847.2,210.3c1.5-3.5,4.3-5.2,8.4-5.2v2.4c-1.2,0-2.3,0.2-3.3,0.6c-1,0.4-1.9,1-2.7,1.7s-1.3,1.7-1.8,2.8
		s-0.6,2.4-0.6,3.9v13.9h-2.5v-25h2.5V210.3z"/>
	<path class="st1" d="M871.9,204.9c3.7,0,6.6,1.3,8.9,3.9c2.3,2.6,3.5,5.7,3.5,9.2c0,0.1,0,0.3,0,0.6s0,0.5,0,0.6h-22.7
		c0.3,2.8,1.4,5.1,3.3,6.8c1.9,1.7,4.4,2.6,7.2,2.6c2,0,3.8-0.4,5.2-1.2c1.5-0.8,2.6-1.9,3.4-3.3l2.2,1.3c-1,1.7-2.5,3.1-4.4,4.1
		c-1.9,1-4.1,1.5-6.5,1.5c-3.9,0-7-1.2-9.5-3.6c-2.5-2.5-3.7-5.6-3.7-9.4c0-3.7,1.2-6.8,3.6-9.3
		C864.9,206.1,868.1,204.9,871.9,204.9z M871.9,207.3c-2.8,0-5.2,0.9-7.1,2.7c-1.9,1.8-3,4-3.2,6.8h20.1c-0.3-3-1.3-5.3-3.2-6.9
		C876.5,208.1,874.4,207.3,871.9,207.3z M871.6,201.9v-0.3c0-0.6,0-1,0.1-1.3c0.1-0.3,0.3-0.6,0.5-0.8c0.1-0.1,0.2-0.1,0.3-0.2
		c0.2-0.2,0.4-0.3,0.6-0.3c0-0.1,0.1-0.2,0.2-0.2c0.3-0.2,0.6-0.5,0.8-0.7s0.3-0.6,0.3-1.1c0-0.5-0.1-0.8-0.4-1.1
		c-0.3-0.3-0.7-0.4-1.3-0.4c-0.5,0-0.9,0.2-1.4,0.5s-0.8,0.7-1.1,1.3c-0.2-0.1-0.5-0.2-1-0.4c-0.4-0.2-0.7-0.3-0.8-0.4
		c0.4-0.9,0.9-1.6,1.7-2.1c0.8-0.5,1.6-0.7,2.5-0.7c1,0,1.8,0.3,2.6,0.8s1.2,1.4,1.2,2.5c0,0.9-0.2,1.5-0.6,2
		c-0.4,0.5-0.8,0.9-1.2,1.1c-0.5,0.2-0.8,0.4-0.9,0.7c-0.1,0.2-0.1,0.6-0.1,1v0.2H871.6z"/>
</g>
</svg>
